<svg width="36" height="36" viewBox="0 0 36 36" fill="none" xmlns="http://www.w3.org/2000/svg">
<path d="M28.8462 35.9997C27.2773 35.9997 25.0735 35.4324 21.7733 33.5889C17.7603 31.3389 14.6563 29.2617 10.6649 25.2815C6.81663 21.4364 4.94392 18.9469 2.32294 14.1784C-0.638021 8.79445 -0.133276 5.97227 0.430947 4.7661C1.10287 3.32447 2.09468 2.46223 3.37664 1.60642C4.10478 1.12944 4.87534 0.720563 5.67854 0.384973C5.75891 0.350419 5.83366 0.317473 5.90037 0.28774C6.29822 0.108541 6.90102 -0.162265 7.66457 0.127024C8.17414 0.318276 8.62905 0.70962 9.34116 1.41275C10.8015 2.85277 12.7972 6.05986 13.5334 7.63488C14.0277 8.69641 14.3549 9.39713 14.3557 10.183C14.3557 11.1031 13.8927 11.8127 13.3309 12.5785C13.2256 12.7224 13.1211 12.8598 13.0199 12.9932C12.4082 13.7967 12.274 14.029 12.3624 14.4436C12.5416 15.2769 13.8782 17.7576 16.0749 19.949C18.2715 22.1403 20.6811 23.3923 21.5178 23.5707C21.9502 23.6631 22.1873 23.5233 23.0167 22.8901C23.1357 22.7993 23.2578 22.7052 23.3856 22.6112C24.2424 21.974 24.9192 21.5232 25.8177 21.5232H25.8226C26.6046 21.5232 27.2741 21.8623 28.3833 22.4216C29.83 23.1512 33.1341 25.1208 34.5833 26.5825C35.2882 27.2929 35.6812 27.7461 35.8733 28.2548C36.1626 29.0206 35.8902 29.6209 35.7125 30.0226C35.6828 30.0893 35.6498 30.1625 35.6153 30.2436C35.277 31.0452 34.8656 31.814 34.3864 32.5403C33.532 33.818 32.6664 34.8072 31.2213 35.4798C30.4792 35.8308 29.6671 36.0085 28.8462 35.9997Z" fill="white"/>
</svg>
