<svg width="28" height="36" viewBox="0 0 28 36" fill="none" xmlns="http://www.w3.org/2000/svg">
<path d="M13.9355 17.1C12.6155 17.1 11.3496 16.6259 10.4162 15.782C9.48288 14.9381 8.95853 13.7935 8.95853 12.6C8.95853 11.4065 9.48288 10.2619 10.4162 9.41802C11.3496 8.57411 12.6155 8.1 13.9355 8.1C15.2555 8.1 16.5214 8.57411 17.4547 9.41802C18.3881 10.2619 18.9124 11.4065 18.9124 12.6C18.9124 13.1909 18.7837 13.7761 18.5336 14.3221C18.2835 14.868 17.9169 15.3641 17.4547 15.782C16.9926 16.1998 16.4439 16.5313 15.8401 16.7575C15.2363 16.9836 14.5891 17.1 13.9355 17.1ZM13.9355 0C10.2396 0 6.69502 1.3275 4.08161 3.69045C1.4682 6.05341 0 9.25827 0 12.6C0 22.05 13.9355 36 13.9355 36C13.9355 36 27.871 22.05 27.871 12.6C27.871 9.25827 26.4028 6.05341 23.7894 3.69045C21.1759 1.3275 17.6314 0 13.9355 0Z" fill="url(#paint0_linear_2852_10642)"/>
<defs>
<linearGradient id="paint0_linear_2852_10642" x1="0" y1="18" x2="27.871" y2="18" gradientUnits="userSpaceOnUse">
<stop stop-color="#329CCB"/>
<stop offset="1" stop-color="#668DCA"/>
</linearGradient>
</defs>
</svg>
