<svg width="39" height="37" viewBox="0 0 39 37" fill="none" xmlns="http://www.w3.org/2000/svg">
<path d="M19.5 0C16.9392 0 14.4035 0.478517 12.0377 1.40823C9.67182 2.33794 7.52216 3.70064 5.71142 5.41852C2.05446 8.88795 0 13.5935 0 18.5C0 23.4065 2.05446 28.1121 5.71142 31.5815C7.52216 33.2994 9.67182 34.6621 12.0377 35.5918C14.4035 36.5215 16.9392 37 19.5 37C24.6717 37 29.6316 35.0509 33.2886 31.5815C36.9455 28.1121 39 23.4065 39 18.5C39 16.0705 38.4956 13.6649 37.5157 11.4204C36.5357 9.17583 35.0993 7.13641 33.2886 5.41852C31.4778 3.70064 29.3282 2.33794 26.9623 1.40823C24.5965 0.478517 22.0608 0 19.5 0ZM27.69 26.27L17.55 20.35V9.25H20.475V18.87L29.25 23.865L27.69 26.27Z" fill="url(#paint0_linear_2852_10644)"/>
<defs>
<linearGradient id="paint0_linear_2852_10644" x1="0" y1="18.5" x2="39" y2="18.5" gradientUnits="userSpaceOnUse">
<stop stop-color="#329CCB"/>
<stop offset="1" stop-color="#668DCA"/>
</linearGradient>
</defs>
</svg>
