<svg width="8" height="14" viewBox="0 0 8 14" fill="none" xmlns="http://www.w3.org/2000/svg">
<path d="M5.7636 2.22964H7.58369C7.75113 2.22964 7.88703 2.10478 7.88703 1.95094V0.278706C7.88703 0.12486 7.75113 0 7.58369 0H5.7636C3.9241 0 2.42678 1.37513 2.42678 3.06576V5.0167H0.303347C0.1359 5.0167 0 5.14156 0 5.2954V6.96764C0 7.12148 0.1359 7.24634 0.303347 7.24634H2.42678V13.0992C2.42678 13.253 2.56268 13.3779 2.73013 13.3779H4.55021C4.71766 13.3779 4.85356 13.253 4.85356 13.0992V7.24634H6.97699C7.10743 7.24634 7.22331 7.16942 7.26517 7.05571L7.87187 5.38348C7.90281 5.29875 7.88703 5.2051 7.83 5.13208C7.77237 5.05962 7.68136 5.0167 7.58369 5.0167H4.85356V3.06576C4.85356 2.60478 5.26186 2.22964 5.7636 2.22964Z" fill="#123342"/>
</svg>
