<svg width="15" height="15" viewBox="0 0 15 15" fill="none" xmlns="http://www.w3.org/2000/svg">
<path d="M8.11174 0C8.9392 0.00215149 9.35918 0.00645448 9.72179 0.0164948L9.86448 0.0215149C10.0292 0.0272522 10.1918 0.0344238 10.3882 0.0430298C11.1708 0.078888 11.7048 0.199372 12.1733 0.376511C12.6587 0.558671 13.0677 0.805375 13.4766 1.2034C13.8508 1.56179 14.1402 1.99549 14.3247 2.47422C14.5064 2.93105 14.6299 3.45171 14.6667 4.21549C14.6755 4.40626 14.6829 4.56475 14.6888 4.72611L14.6932 4.86524C14.7042 5.21809 14.7086 5.62759 14.7101 6.4344L14.7108 6.9694V7.90889C14.7126 8.43199 14.707 8.95509 14.6939 9.47804L14.6895 9.61717C14.6836 9.77853 14.6763 9.93703 14.6674 10.1278C14.6307 10.8916 14.5056 11.4115 14.3247 11.8691C14.1402 12.3478 13.8508 12.7815 13.4766 13.1399C13.1091 13.5047 12.6643 13.7869 12.1733 13.9668C11.7048 14.1439 11.1708 14.2644 10.3882 14.3003L9.86448 14.3218L9.72179 14.3261C9.35918 14.3361 8.9392 14.3411 8.11174 14.3426L7.56304 14.3433H6.60024C6.06351 14.3451 5.52677 14.3396 4.99019 14.3268L4.8475 14.3225C4.67289 14.316 4.49833 14.3086 4.32381 14.3003C3.54121 14.2644 3.00723 14.1439 2.53796 13.9668C2.04725 13.7868 1.60271 13.5046 1.23536 13.1399C0.860937 12.7816 0.571262 12.3479 0.386567 11.8691C0.204893 11.4122 0.0813256 10.8916 0.0445496 10.1278L0.022484 9.61717L0.0188064 9.47804C0.00524789 8.9551 -0.000882106 8.432 0.000418362 7.90889V6.4344C-0.00161748 5.9113 0.00377691 5.3882 0.0165999 4.86524L0.0217485 4.72611C0.0276327 4.56475 0.0349878 4.40626 0.0438141 4.21549C0.0805901 3.45171 0.204158 2.93177 0.385831 2.47422C0.570957 1.99529 0.861142 1.56158 1.23609 1.2034C1.60323 0.838759 2.04751 0.556572 2.53796 0.376511C3.00723 0.199372 3.54048 0.078888 4.32381 0.0430298C4.51946 0.0344238 4.68274 0.0272522 4.8475 0.0215149L4.99019 0.0172119C5.52653 0.00446987 6.06302 -0.00102891 6.59951 0.000717112L8.11174 0ZM7.35562 3.58582C6.38026 3.58582 5.44485 3.96361 4.75517 4.63608C4.06548 5.30855 3.67802 6.22062 3.67802 7.17164C3.67802 8.12266 4.06548 9.03473 4.75517 9.7072C5.44485 10.3797 6.38026 10.7575 7.35562 10.7575C8.33098 10.7575 9.2664 10.3797 9.95608 9.7072C10.6458 9.03473 11.0332 8.12266 11.0332 7.17164C11.0332 6.22062 10.6458 5.30855 9.95608 4.63608C9.2664 3.96361 8.33098 3.58582 7.35562 3.58582ZM7.35562 5.02015C7.64539 5.0201 7.93234 5.07571 8.20007 5.18378C8.4678 5.29186 8.71107 5.4503 8.91601 5.65005C9.12094 5.8498 9.28351 6.08696 9.39445 6.34797C9.50538 6.60898 9.5625 6.88874 9.56255 7.17128C9.5626 7.45382 9.50558 7.7336 9.39473 7.99465C9.28388 8.2557 9.12139 8.4929 8.91653 8.69272C8.71166 8.89254 8.46844 9.05106 8.20075 9.15922C7.93305 9.26739 7.64613 9.32309 7.35636 9.32313C6.77114 9.32313 6.2099 9.09646 5.79608 8.69298C5.38227 8.28949 5.1498 7.74225 5.1498 7.17164C5.1498 6.60103 5.38227 6.05379 5.79608 5.65031C6.2099 5.24682 6.77114 5.02015 7.35636 5.02015M11.2178 2.51007C10.974 2.51007 10.7401 2.60452 10.5677 2.77264C10.3953 2.94076 10.2984 3.16877 10.2984 3.40653C10.2984 3.64428 10.3953 3.8723 10.5677 4.04042C10.7401 4.20854 10.974 4.30298 11.2178 4.30298C11.4617 4.30298 11.6955 4.20854 11.868 4.04042C12.0404 3.8723 12.1372 3.64428 12.1372 3.40653C12.1372 3.16877 12.0404 2.94076 11.868 2.77264C11.6955 2.60452 11.4617 2.51007 11.2178 2.51007Z" fill="#123342"/>
</svg>
