<svg width="14" height="14" viewBox="0 0 14 14" fill="none" xmlns="http://www.w3.org/2000/svg">
<path d="M1.67882 3.27377C2.60601 3.27377 3.35765 2.54091 3.35765 1.63688C3.35765 0.732858 2.60601 0 1.67882 0C0.751635 0 0 0.732858 0 1.63688C0 2.54091 0.751635 3.27377 1.67882 3.27377Z" fill="#123342"/>
<path d="M3.07785 4.36768H0.279804C0.125352 4.36768 0 4.4899 0 4.64049V12.8249C0 12.9755 0.125352 13.0977 0.279804 13.0977H3.07785C3.2323 13.0977 3.35765 12.9755 3.35765 12.8249V4.64049C3.35765 4.4899 3.2323 4.36768 3.07785 4.36768Z" fill="#123342"/>
<path d="M11.417 3.91337C10.2211 3.51398 8.72524 3.86481 7.82819 4.49392C7.79741 4.37661 7.68773 4.28931 7.55734 4.28931H4.7593C4.60484 4.28931 4.47949 4.41153 4.47949 4.56213V12.7465C4.47949 12.8971 4.60484 13.0194 4.7593 13.0194H7.55734C7.71179 13.0194 7.83714 12.8971 7.83714 12.7465V6.86468C8.28931 6.48492 8.87186 6.36379 9.34865 6.56131C9.81088 6.75173 10.0756 7.21661 10.0756 7.83589V12.7465C10.0756 12.8971 10.2009 13.0194 10.3554 13.0194H13.1534C13.3079 13.0194 13.4332 12.8971 13.4332 12.7465V7.28645C13.4013 5.04446 12.3196 4.21456 11.417 3.91337Z" fill="#123342"/>
</svg>
