<svg width="20" height="13" viewBox="0 0 20 13" fill="none" xmlns="http://www.w3.org/2000/svg">
<path d="M0 11.8492V1.15221C0 1.13991 0.019155 1.02241 0.0574651 0.799708L6.59572 6.18152L0.0766201 12.2202C0.0356888 12.0999 0.00996312 11.9754 0 11.8492ZM0.868361 0.0557642C0.97395 0.0156829 1.08695 -0.00314934 1.20038 0.000429146H18.8039C18.9218 0.000703544 19.039 0.0193911 19.1508 0.0557642L12.5944 5.46422L11.7261 6.13233L10.0096 7.48496L8.29307 6.12926L7.42577 5.46422L0.868361 0.0557642ZM0.887516 12.9446L7.46408 6.87218L10.0096 8.8591L12.5551 6.87218L19.1316 12.9446C19.0267 12.982 18.9157 13.0007 18.8039 13H1.20038C1.09489 12.9996 0.99033 12.9809 0.891773 12.9446H0.887516ZM13.4234 6.18152L19.9425 0.795609C19.9813 0.909352 20.0007 1.02839 20 1.14811V11.8492C19.9979 11.9748 19.9786 12.0995 19.9425 12.2202L13.4234 6.18152Z" fill="#329CCB"/>
</svg>
