<svg width="17" height="17" viewBox="0 0 17 17" fill="none" xmlns="http://www.w3.org/2000/svg">
<path d="M16.5164 12.0088L12.7966 10.4189C12.6378 10.3511 12.4611 10.3368 12.2934 10.3781C12.1257 10.4195 11.9759 10.5142 11.8667 10.6481L10.2206 12.66C7.63575 11.4412 5.55556 9.36108 4.3368 6.77631L6.34874 5.13021C6.48291 5.02124 6.57787 4.87148 6.61923 4.70366C6.66059 4.53584 6.64609 4.35911 6.57792 4.20028L4.98468 0.481675C4.91003 0.310385 4.77793 0.170528 4.61117 0.0862439C4.4444 0.00195959 4.25345 -0.0214637 4.07126 0.0200168L0.618128 0.816625C0.443306 0.856814 0.287165 0.95483 0.174983 1.0948C0.0628023 1.23478 0.00114776 1.40852 1.41861e-06 1.58789C-0.000867031 3.61162 0.397011 5.61569 1.1709 7.48561C1.9448 9.35552 3.07954 11.0546 4.5103 12.4859C5.94106 13.9171 7.63981 15.0525 9.50948 15.827C11.3792 16.6016 13.3831 17.0001 15.4069 17C15.5872 17.0001 15.7622 16.939 15.9033 16.8267C16.0444 16.7145 16.1433 16.5576 16.1837 16.3819L16.9803 12.9288C17.0215 12.7458 16.9976 12.5541 16.9128 12.3868C16.8279 12.2195 16.6873 12.087 16.5153 12.0121L16.5164 12.0088Z" fill="#329CCB"/>
</svg>
