<svg width="46" height="43" viewBox="0 0 46 43" fill="none" xmlns="http://www.w3.org/2000/svg">
<path d="M32.9444 8.64477C35.1215 8.64477 37.0313 8.62411 38.9342 8.64477C39.888 8.65855 40.8763 8.62871 41.791 8.85143C44.2122 9.43923 45.9839 11.7629 45.9885 14.2633C46.0038 21.9889 46.0038 29.719 45.9885 37.4538C45.9885 40.5719 43.4336 42.9851 40.1645 42.9897C31.1459 43.0034 22.1265 43.0034 13.1063 42.9897C10.6873 42.9897 8.26834 42.9897 5.85166 42.9897C2.3614 42.9713 0 40.6132 0 37.1576C0 29.657 0 22.1565 0 14.6559C0 11.0809 2.34297 8.70218 5.95533 8.64248C7.91356 8.61034 9.87179 8.60115 11.8277 8.64248C12.687 8.66315 12.9612 8.37613 12.9381 7.52199C12.8829 6.33874 12.9354 5.15295 13.0948 3.97913C13.2723 2.89169 13.8275 1.90095 14.6633 1.17996C15.4992 0.458957 16.5626 0.0535147 17.6679 0.0344413C21.2003 -0.0114804 24.7328 -0.0114804 28.2653 0.0344413C29.4311 0.0464105 30.5514 0.487106 31.4112 1.27193C32.2709 2.05676 32.8095 3.13041 32.9236 4.2868C33.0526 5.67593 32.9444 7.09721 32.9444 8.64477ZM20.0776 22.9127C18.905 22.9127 17.9144 22.9012 16.926 22.9127C15.9377 22.9242 15.053 23.3351 15.0623 24.373C15.0761 25.8057 14.2951 27.4911 15.9653 28.5633C16.228 28.731 16.6311 28.7126 16.9698 28.7218C17.737 28.7447 18.5041 28.7539 19.2736 28.7218C19.868 28.6988 20.1007 28.933 20.0822 29.5231C20.0569 30.4002 20.0523 31.2819 20.0822 32.159C20.1283 33.1509 20.6858 33.702 21.6949 33.7433C22.4598 33.7732 23.2269 33.7594 23.9987 33.7433C25.381 33.7226 25.8602 33.2474 25.8786 31.8789C25.8924 30.8617 25.8786 29.8446 25.8786 28.7241H27.3093C30.9953 28.7241 31.0898 28.6253 30.9746 24.9194C30.9308 23.4798 30.4033 22.9448 28.9265 22.9035C27.9474 22.8759 26.966 22.9035 25.8786 22.9035C25.8786 21.7164 25.897 20.6924 25.8786 19.6683C25.851 18.472 25.3856 17.9922 24.2153 17.9531C23.4112 17.9256 22.6026 17.9279 21.8009 17.9531C20.6351 17.9899 20.1352 18.4766 20.0961 19.6545C20.0477 20.6855 20.0776 21.7141 20.0776 22.9127ZM28.786 8.56212C28.786 7.37504 28.8735 6.33491 28.7399 5.32693C28.6915 4.95726 28.1202 4.37864 27.7769 4.36946C24.6008 4.29598 21.4207 4.29598 18.2369 4.36946C17.8913 4.36946 17.3154 4.93659 17.2647 5.28789C17.1334 6.33491 17.2163 7.40948 17.2163 8.55523L28.786 8.56212Z" fill="white"/>
</svg>
