<svg width="29" height="29" viewBox="0 0 29 29" fill="none" xmlns="http://www.w3.org/2000/svg">
<path d="M18.8324 28.9734C18.4128 28.9734 17.9944 28.9811 17.5749 28.9734C16.8387 28.9556 16.1585 28.4492 16.0019 27.7544C15.9276 27.422 15.7985 27.2835 15.4304 27.299C14.8028 27.3245 14.1729 27.3178 13.5464 27.299C13.2469 27.2912 13.1086 27.3965 13.0274 27.678C12.7805 28.5312 12.1781 28.9856 11.2864 28.9656C10.2999 28.9423 9.29963 29.1097 8.33024 28.8703C7.10935 28.5678 6.25656 27.8154 5.83817 26.6541C5.72385 26.3527 5.55352 26.3106 5.29403 26.2895C3.73477 26.1632 2.50588 25.4673 1.66681 24.194C1.08691 23.3237 0.840905 22.2836 0.971769 21.2553C1.04073 20.5415 1.29304 19.8557 1.70567 19.2607C1.9343 18.9283 1.59136 18.8352 1.44732 18.69C0.561378 17.7958 0.00694886 16.7564 8.99468e-05 15.4998C-0.00905527 13.8597 0.679122 12.5433 2.08634 11.6213C2.42929 11.3997 2.419 11.2124 2.27611 10.8933C1.41874 8.97293 2.00632 6.50183 3.89252 5.33387C4.53154 4.93827 5.18886 4.65792 5.93305 4.57148C6.39031 4.5194 6.55035 4.31661 6.53206 3.84899C6.49891 2.94587 6.57207 2.05605 7.1768 1.28037C7.73923 0.558984 8.47199 0.115736 9.37393 0.0614382C10.1821 0.00824854 11.0086 -0.070426 11.8134 0.125711C12.4822 0.288604 12.8926 0.719662 13.0274 1.37124C13.0789 1.62167 13.1898 1.71032 13.4447 1.70367C14.1489 1.69407 14.8531 1.69407 15.5572 1.70367C15.8053 1.70367 15.9573 1.64051 15.9791 1.37124C16.0442 0.595552 16.8444 0.0592225 17.4903 0.0481414C18.3408 0.0326277 19.1959 -0.0538091 20.0464 0.134571C21.2616 0.403844 22.2424 1.40004 22.3921 2.59903C22.4611 3.03597 22.4886 3.4781 22.4745 3.91991C22.4447 4.36316 22.6436 4.50277 23.0369 4.55929C24.4784 4.76651 25.6261 5.4203 26.4092 6.64256C27.2517 7.95789 27.3363 9.34525 26.7841 10.7592C26.6127 11.2025 26.6241 11.4086 27.0311 11.7067C28.6258 12.8735 29.2831 14.4393 28.8898 16.3608C28.7108 17.2704 28.2337 18.0997 27.5295 18.7255C27.2768 18.9471 27.2082 19.0934 27.4243 19.4458C28.0502 20.4655 28.2387 21.6825 27.9493 22.8355C27.6599 23.9884 26.9157 24.9854 25.8765 25.6124C25.1803 26.0269 24.451 26.1853 23.6851 26.2995C23.4427 26.336 23.2815 26.3793 23.1844 26.6485C22.9475 27.3335 22.4924 27.9278 21.8847 28.346C21.277 28.7642 20.5481 28.9847 19.8029 28.9756L18.8324 28.9734Z" fill="white"/>
<path d="M13.3489 14.4685C13.3489 10.4488 13.3489 6.42876 13.3489 2.40833C13.3489 1.67598 13.3489 1.67486 14.1122 1.67374C14.6638 1.67374 15.2166 1.68385 15.7683 1.67374C16.0784 1.66587 16.2318 1.7737 16.2203 2.0927C16.2123 2.31735 16.2409 2.54199 16.2409 2.76664C16.2409 10.6016 16.2409 18.4361 16.2409 26.2703C16.2409 27.3183 16.2409 27.3183 15.1731 27.3183C14.7348 27.3183 14.2953 27.2958 13.8593 27.325C13.4553 27.352 13.3386 27.1992 13.3409 26.814C13.3557 24.7012 13.3477 22.5884 13.3477 20.4744L13.3489 14.4685Z" fill="url(#paint0_linear_961_6476)"/>
<defs>
<linearGradient id="paint0_linear_961_6476" x1="14.7909" y1="1.67334" x2="14.7909" y2="27.3281" gradientUnits="userSpaceOnUse">
<stop stop-color="#3E94B9"/>
<stop offset="1" stop-color="#04B6FF"/>
</linearGradient>
</defs>
</svg>
