<svg width="52" height="43" viewBox="0 0 52 43" fill="none" xmlns="http://www.w3.org/2000/svg">
<path d="M25.9671 34.4845C24.2274 34.6016 22.4844 34.3122 20.8759 33.6392C20.6892 33.5486 20.4818 33.5092 20.2748 33.5251C20.0679 33.5409 19.8689 33.6114 19.6981 33.7293C18.7648 34.3063 17.791 34.8171 16.8282 35.3426C16.345 35.6072 15.8416 35.881 15.2977 35.4915C14.6951 35.0596 14.7612 34.4441 14.8935 33.8377C15.1103 32.8252 15.283 31.798 15.5862 30.8113C15.7332 30.3317 15.5752 30.0946 15.3014 29.7768C8.96081 22.4322 11.6543 10.4515 21.3058 7.09614C29.4819 4.25899 38.3727 9.24421 39.9161 17.7226C41.3749 25.7397 36.4068 33.1578 28.0745 34.4698C27.3874 34.5782 26.6708 34.4845 25.9671 34.4845Z" fill="white"/>
<path d="M25.317 37.7884C28.8954 37.9584 32.4373 37.0045 35.4465 35.0604C38.4556 33.1162 40.7812 30.2793 42.0973 26.947C42.779 25.1811 42.6761 23.2205 43.0931 21.3829C44.269 16.203 40.5356 7.91754 33.1587 4.60631C22.8807 -0.00771899 10.9124 6.30419 8.90602 17.3918C8.55692 19.3268 8.93725 21.1569 9.19631 23.0202C9.50131 25.2252 9.88899 27.4174 10.2013 29.6206C10.3557 30.6992 9.91471 31.3626 8.89867 31.7631C5.92587 32.9392 3.55205 32.2611 1.86906 29.5581C-0.308175 26.0668 -0.563562 22.3109 1 18.5329C1.89111 16.372 3.57226 15.003 5.97548 14.7164C6.44032 14.6613 6.45686 14.3948 6.57445 14.0714C9.38004 6.35381 14.8149 1.59093 22.8881 0.269747C32.6902 -1.33625 42.1396 4.35274 45.4247 14.0365C45.568 14.4573 45.6727 14.7329 46.1725 14.7715C49.1343 15.0122 50.6445 16.938 51.4181 19.5344C52.4359 22.9614 52.153 26.313 50.2624 29.3982C49.2023 31.1218 47.7746 32.4247 45.5386 32.3383C45.3865 32.3595 45.2315 32.347 45.0848 32.3015C43.501 31.3828 42.7055 32.2721 41.7445 33.472C39.1987 36.6779 35.6987 38.9903 31.7513 40.0743C31.1652 40.2397 30.7555 40.4179 30.7684 41.1989C30.7849 42.1948 29.892 42.9537 28.8079 42.9702C26.9412 42.9996 25.0745 42.9996 23.2078 42.9702C22.0558 42.95 21.2639 42.1415 21.2124 41.0114C21.1878 40.5216 21.1928 40.0307 21.2271 39.5414C21.2567 39.0974 21.445 38.6789 21.7578 38.3624C22.0705 38.0459 22.4868 37.8526 22.9303 37.8178C23.0222 37.8086 23.1141 37.7994 23.2059 37.7994L25.317 37.7884Z" fill="white"/>
<path d="M18.7822 17.8016C19.1336 17.7945 19.4829 17.8576 19.8096 17.9872C20.1363 18.1168 20.4339 18.3103 20.6849 18.5564C20.9359 18.8025 21.1353 19.0962 21.2714 19.4203C21.4075 19.7444 21.4776 20.0924 21.4775 20.4439C21.4804 21.1378 21.2139 21.8057 20.734 22.3068C20.2542 22.808 19.5985 23.1033 18.9053 23.1304C17.4262 23.169 16.1052 21.8882 16.1272 20.4329C16.1522 19.7389 16.4407 19.0805 16.9339 18.5916C17.4271 18.1028 18.088 17.8203 18.7822 17.8016Z" fill="url(#paint0_linear_1250_4804)"/>
<path d="M33.1783 23.1304C32.4701 23.1174 31.7958 22.8243 31.3031 22.3153C30.8104 21.8064 30.5392 21.1229 30.5491 20.4146C30.5554 19.719 30.8362 19.0542 31.3304 18.5648C31.8245 18.0754 32.492 17.8011 33.1875 17.8016C34.6463 17.7906 35.9086 19.0272 35.9031 20.4605C35.8975 21.8938 34.6169 23.1304 33.1783 23.1304Z" fill="url(#paint1_linear_1250_4804)"/>
<path d="M23.3822 20.477C23.3767 20.1315 23.4393 19.7882 23.5664 19.4669C23.6934 19.1455 23.8826 18.8523 24.123 18.604C24.3634 18.3558 24.6503 18.1573 24.9674 18.0199C25.2845 17.8825 25.6255 17.809 25.971 17.8034C26.3166 17.7979 26.6598 17.8605 26.9811 17.9876C27.3025 18.1147 27.5956 18.3038 27.8439 18.5443C28.0921 18.7847 28.2906 19.0716 28.4279 19.3888C28.5653 19.7059 28.6388 20.047 28.6444 20.3925C28.6619 20.7453 28.6083 21.0981 28.4868 21.4298C28.3652 21.7615 28.1782 22.0653 27.9367 22.3232C27.6953 22.5811 27.4045 22.7878 27.0816 22.9309C26.7586 23.0741 26.4102 23.1507 26.057 23.1564C25.7038 23.1621 25.3531 23.0966 25.0257 22.9639C24.6984 22.8312 24.4011 22.634 24.1515 22.384C23.9019 22.134 23.7052 21.8363 23.573 21.5087C23.4409 21.1811 23.376 20.8303 23.3822 20.477Z" fill="url(#paint2_linear_1250_4804)"/>
<defs>
<linearGradient id="paint0_linear_1250_4804" x1="18.8022" y1="17.801" x2="18.8022" y2="23.1312" gradientUnits="userSpaceOnUse">
<stop stop-color="#3E94B9"/>
<stop offset="1" stop-color="#04B6FF"/>
</linearGradient>
<linearGradient id="paint1_linear_1250_4804" x1="33.2259" y1="17.8015" x2="33.2259" y2="23.1304" gradientUnits="userSpaceOnUse">
<stop stop-color="#3E94B9"/>
<stop offset="1" stop-color="#04B6FF"/>
</linearGradient>
<linearGradient id="paint2_linear_1250_4804" x1="26.0147" y1="17.8031" x2="26.0147" y2="23.1568" gradientUnits="userSpaceOnUse">
<stop stop-color="#3E94B9"/>
<stop offset="1" stop-color="#04B6FF"/>
</linearGradient>
</defs>
</svg>
