<svg width="16" height="16" viewBox="0 0 16 16" fill="none" xmlns="http://www.w3.org/2000/svg">
<path d="M9.99992 8.6333H5.33325C5.05992 8.6333 4.83325 8.40663 4.83325 8.1333C4.83325 7.85997 5.05992 7.6333 5.33325 7.6333H9.99992C10.2733 7.6333 10.4999 7.85997 10.4999 8.1333C10.4999 8.40663 10.2733 8.6333 9.99992 8.6333Z" fill="white"/>
<path d="M8.25325 11.3H5.33325C5.05992 11.3 4.83325 11.0734 4.83325 10.8C4.83325 10.5267 5.05992 10.3 5.33325 10.3H8.25325C8.52659 10.3 8.75325 10.5267 8.75325 10.8C8.75325 11.0734 8.52659 11.3 8.25325 11.3Z" fill="white"/>
<path d="M9.33325 4.49992H6.66659C6.02659 4.49992 4.83325 4.49992 4.83325 2.66659C4.83325 0.833252 6.02659 0.833252 6.66659 0.833252H9.33325C9.97325 0.833252 11.1666 0.833252 11.1666 2.66659C11.1666 3.30659 11.1666 4.49992 9.33325 4.49992ZM6.66659 1.83325C6.00659 1.83325 5.83325 1.83325 5.83325 2.66659C5.83325 3.49992 6.00659 3.49992 6.66659 3.49992H9.33325C10.1666 3.49992 10.1666 3.32659 10.1666 2.66659C10.1666 1.83325 9.99325 1.83325 9.33325 1.83325H6.66659Z" fill="white"/>
<path d="M10 15.1667H6C2.25333 15.1667 1.5 13.4467 1.5 10.6667V6.6667C1.5 3.6267 2.6 2.3267 5.30667 2.1867C5.57333 2.17337 5.82 2.38004 5.83333 2.66004C5.84667 2.94004 5.63333 3.1667 5.36 3.18004C3.46667 3.2867 2.5 3.85337 2.5 6.6667V10.6667C2.5 13.1334 2.98667 14.1667 6 14.1667H10C13.0133 14.1667 13.5 13.1334 13.5 10.6667V6.6667C13.5 3.85337 12.5333 3.2867 10.64 3.18004C10.3667 3.1667 10.1533 2.9267 10.1667 2.65337C10.18 2.38004 10.42 2.1667 10.6933 2.18004C13.4 2.3267 14.5 3.6267 14.5 6.66004V10.66C14.5 13.4467 13.7467 15.1667 10 15.1667Z" fill="white"/>
</svg>
