<svg width="25" height="25" viewBox="0 0 25 25" fill="none" xmlns="http://www.w3.org/2000/svg">
<path d="M7.3576 14.1142C5.50776 14.1142 3.65793 14.1248 1.80934 14.1142C0.727146 14.1062 0.0618519 13.5424 0.00568274 12.6211C-0.0692094 11.5159 0.601078 10.7773 1.72446 10.768C4.6128 10.7574 7.50239 10.768 10.3907 10.768C10.8688 10.768 11.3493 10.7349 11.8237 10.768C12.841 10.8527 13.5849 10.6727 14.3201 9.67206C15.9128 7.51851 19.1394 7.92221 20.4575 10.2836C20.6535 10.6357 20.8544 10.7852 21.2364 10.7693C21.9204 10.7416 22.6094 10.7482 23.2934 10.7693C24.1884 10.7918 24.8137 11.3292 24.8312 12.0599C24.8649 13.4735 24.5042 14.0123 23.3895 14.0956C22.705 14.1389 22.0187 14.1424 21.3337 14.1062C20.9156 14.089 20.6722 14.2214 20.4388 14.6211C20.0926 15.2252 19.6045 15.7237 19.0222 16.068C18.44 16.4122 17.7835 16.5904 17.1169 16.585C16.4503 16.5797 15.7964 16.391 15.2191 16.0375C14.6418 15.684 14.1609 15.1778 13.8233 14.5682C13.6161 14.2055 13.3976 14.1049 13.0307 14.1089C11.1396 14.1221 9.24863 14.1155 7.3576 14.1142Z" fill="#329CCB"/>
<path d="M17.6303 22.3593C15.6981 22.3593 13.7609 22.3685 11.8336 22.3513C11.5004 22.3513 11.3344 22.4572 11.1621 22.7696C10.8262 23.3999 10.3386 23.9245 9.7492 24.2899C9.15975 24.6552 8.48947 24.8483 7.80672 24.8494C7.12396 24.8505 6.45315 24.6595 5.86268 24.296C5.2722 23.9325 4.7832 23.4094 4.44552 22.7802C4.3808 22.6352 4.27441 22.5157 4.14164 22.4389C4.00887 22.3621 3.85656 22.3319 3.70659 22.3526C3.0001 22.3765 2.29362 22.3646 1.58464 22.3526C0.64724 22.3526 0.0081558 21.6802 0.00441119 20.718C0.000666582 19.7557 0.628513 19.0753 1.56466 19.0687C1.81431 19.0687 2.06395 19.0581 2.31359 19.0687C3.36457 19.119 4.1784 19.0224 4.98973 17.9423C6.66357 15.7146 9.82652 16.1872 11.1733 18.6703C11.3718 19.0369 11.6052 19.0674 11.9297 19.0674C15.6694 19.0621 19.4094 19.0621 23.1498 19.0674C24.3032 19.0674 24.8299 19.5346 24.8287 20.5604C24.8287 21.9145 24.408 22.354 23.1149 22.354L17.6303 22.3593Z" fill="#329CCB"/>
<path d="M18.3371 5.83229C16.6958 5.83229 15.0556 5.84023 13.4142 5.82435C13.2749 5.80783 13.1341 5.83704 13.0109 5.90805C12.8877 5.97906 12.788 6.08845 12.7252 6.22144C11.0888 9.03946 7.58638 9.03946 5.98493 6.22144C5.8027 5.90112 5.61047 5.82435 5.29842 5.82435C4.09391 5.84023 2.88939 5.83494 1.67863 5.82435C0.666342 5.82435 0.0185217 5.18768 0.00603963 4.20952C-0.0064424 3.18105 0.630146 2.51924 1.66491 2.50732C2.89064 2.49409 4.11637 2.49409 5.34211 2.50732C5.64792 2.50732 5.81143 2.40937 5.97495 2.12612C7.6076 -0.69587 11.0926 -0.713078 12.7152 2.10097C12.9199 2.45438 13.1384 2.50467 13.4642 2.50467C16.6205 2.49673 19.7776 2.49673 22.9355 2.50467C23.1436 2.4971 23.352 2.50152 23.5596 2.51791C24.502 2.63174 24.8578 3.20091 24.8266 4.52719C24.8091 5.24063 24.2312 5.81111 23.4435 5.81905C21.7435 5.8442 20.0409 5.83097 18.3371 5.83229Z" fill="#329CCB"/>
</svg>
