<svg width="19" height="15" viewBox="0 0 19 15" fill="none" xmlns="http://www.w3.org/2000/svg">
<g clip-path="url(#clip0_961_6434)">
<path d="M7.09049 3.70731C6.5455 5.16993 6.07484 6.34816 5.66817 7.56701C5.46174 8.14596 5.1397 8.37958 4.53486 8.36333C3.40154 8.33896 2.2641 8.36333 1.13286 8.36333C0.513562 8.36333 0.0181257 8.17644 0.00161116 7.4756C-0.019032 6.73007 0.466081 6.54114 1.14731 6.50255C2.08864 6.44973 3.24053 6.92711 3.91143 6.28722C4.51215 5.71232 4.63394 4.64989 4.95804 3.79873C5.31723 2.85209 5.68055 1.90544 6.01291 0.95474C6.19044 0.444853 6.38862 0.0080992 7.04507 0.0162249C7.70152 0.0243506 7.91002 0.487517 8.09374 0.970994C9.19472 3.87322 10.2957 6.77814 11.3967 9.68578C11.5515 10.0921 11.7146 10.4983 11.9705 11.1586C12.4536 9.83407 12.9036 8.72085 13.2525 7.59138C13.5023 6.77882 13.9234 6.43551 14.809 6.50458C15.7999 6.57974 16.801 6.53708 17.7981 6.51677C18.4959 6.50255 18.9541 6.80319 19.0016 7.47966C19.0532 8.22113 18.4773 8.42224 17.858 8.51366C17.7568 8.52788 17.6515 8.51366 17.5483 8.51366C16.6978 8.57663 15.6388 8.16831 15.0505 8.69648C14.4622 9.22465 14.3858 10.2079 14.0865 10.9981C13.7293 11.9447 13.3805 12.8934 13.0213 13.8421C12.8148 14.3784 12.6745 15.0365 11.9354 15.0101C11.2811 14.9878 11.1097 14.4007 10.9281 13.8766C9.78442 10.8335 8.64148 7.79656 7.49922 4.76568C7.396 4.48941 7.2866 4.21313 7.09049 3.70731Z" fill="url(#paint0_linear_961_6434)"/>
</g>
<defs>
<linearGradient id="paint0_linear_961_6434" x1="9.50291" y1="0.0161133" x2="9.50291" y2="15.0109" gradientUnits="userSpaceOnUse">
<stop stop-color="#3E94B9"/>
<stop offset="1" stop-color="#04B6FF"/>
</linearGradient>
<clipPath id="clip0_961_6434">
<rect width="19" height="15" fill="white"/>
</clipPath>
</defs>
</svg>
