<svg width="19" height="23" viewBox="0 0 19 23" fill="none" xmlns="http://www.w3.org/2000/svg">
<g clip-path="url(#clip0_2310_6125)">
<path d="M16.979 23.0001H0.0800781C0.128501 22.8072 0.266384 22.7255 0.366514 22.6178C2.70451 20.1234 5.04442 17.6308 7.38625 15.14C8.21355 14.2589 8.86358 14.2563 9.6917 15.133C12.0412 17.6337 14.392 20.1339 16.7443 22.6334C16.837 22.7316 16.9806 22.775 17.1005 22.8446L16.979 23.0001Z" fill="#454545"/>
<path d="M17.0834 12.5322V21.8773C16.9488 21.9303 16.9119 21.8061 16.8544 21.7444C15.0702 19.8496 13.2862 17.9533 11.5024 16.0557C11.3038 15.8454 11.2562 15.7507 11.5599 15.5856C13.3901 14.5933 15.2023 13.5758 17.0834 12.5322Z" fill="#454545"/>
<path d="M0 21.9669V12.6026C0.177279 12.5696 0.293827 12.6939 0.419399 12.7634C2.10683 13.6931 3.78441 14.6359 5.4784 15.5595C5.75827 15.7125 5.84774 15.7907 5.57525 16.0757C3.80247 17.9369 2.04609 19.8163 0.283976 21.6888C0.210931 21.7679 0.131318 21.8391 0 21.9669Z" fill="#454545"/>
<path d="M13.8547 5.24481V4.8373C13.8547 3.67991 13.8481 2.52253 13.8547 1.36166C13.8547 0.972394 13.7029 0.816861 13.3393 0.81773C10.8114 0.823523 8.28409 0.823523 5.75732 0.81773C5.5111 0.81773 5.45694 0.904621 5.47007 1.14096C5.48566 1.44457 5.48566 1.74884 5.47007 2.05245C5.4356 2.7328 5.00717 3.1716 4.36864 3.19767C4.32761 3.19767 4.28657 3.19767 4.24553 3.19767C3.20484 3.21244 3.20484 3.21244 3.20484 4.29858C3.20484 7.19494 3.20484 10.0878 3.20484 12.9772C3.20484 13.1302 3.24588 13.2909 3.14739 13.4786L0.477539 12.0014C1.09309 11.322 1.67663 10.6607 2.28315 10.0229C2.37015 9.93539 2.43794 9.8287 2.48176 9.7104C2.52558 9.5921 2.54435 9.46506 2.53676 9.33824C2.52691 7.29892 2.53676 5.25959 2.52609 3.21939C2.52046 3.10686 2.53861 2.99441 2.57921 2.89025C2.61982 2.78608 2.68186 2.69281 2.76082 2.61724C3.49346 1.85955 4.2179 1.09317 4.93413 0.318108C5.00567 0.232315 5.09433 0.164423 5.19369 0.119342C5.29304 0.0742604 5.40062 0.0531154 5.50864 0.0574353C8.07672 0.0661244 10.6456 0.0574333 13.2137 0.0635157C14.1526 0.0635157 14.5638 0.49797 14.5687 1.48418C14.5687 2.20711 14.5343 2.93265 14.5794 3.65645C14.6229 4.33246 14.192 4.74172 13.9688 5.26741L13.8547 5.24481Z" fill="#454545"/>
<path d="M12.9639 10.3478C12.986 9.32072 12.9639 8.42748 13.4883 7.5438C14.607 5.67304 15.6083 3.7206 16.6408 1.79597C16.7951 1.50749 16.9182 1.47622 17.1652 1.65695C17.433 1.85496 17.7167 2.02767 18.013 2.17308C18.2929 2.30776 18.2592 2.44244 18.1287 2.68747C16.9513 4.8273 15.7823 6.96887 14.6218 9.11218C14.531 9.28874 14.3957 9.43521 14.2311 9.53534C13.8289 9.78211 13.4383 10.0428 12.9639 10.3478Z" fill="#454545"/>
<path d="M14.7853 10.0264C14.8394 10.0794 14.892 10.1237 14.9379 10.1741C15.4304 10.7128 15.9228 11.2576 16.4275 11.7885C16.5835 11.9527 16.5564 12.0266 16.3734 12.1256C15.6216 12.5297 14.8698 12.9355 14.1287 13.3604C13.8989 13.4924 13.8488 13.4403 13.8504 13.1866C13.857 12.4202 13.8603 11.653 13.8504 10.8866C13.8427 10.8016 13.8601 10.7161 13.9005 10.6421C13.9408 10.5681 14.0019 10.5093 14.0753 10.4739C14.3125 10.334 14.5431 10.181 14.7853 10.0264Z" fill="#454545"/>
<path d="M8.52109 5.2777C9.38122 5.2777 10.2416 5.2777 11.1023 5.2777C11.2122 5.27167 11.3224 5.27954 11.4306 5.30117C11.6046 5.34548 11.7261 5.46713 11.717 5.66698C11.7137 5.74761 11.6839 5.82449 11.6328 5.88442C11.5818 5.94435 11.5126 5.9836 11.4372 5.99542C11.3164 6.01779 11.1936 6.02623 11.0711 6.02062H6.02852C5.93305 6.02585 5.83734 6.02411 5.74209 6.01541C5.53526 5.98326 5.37686 5.89028 5.38507 5.63048C5.39246 5.39153 5.54921 5.30551 5.73552 5.28292C5.91254 5.27031 6.09008 5.2677 6.26736 5.2751L8.52109 5.2777Z" fill="#454545"/>
<path d="M8.52044 8.81508H6.01966C5.9242 8.82118 5.82843 8.81944 5.73323 8.80986C5.52312 8.77424 5.37538 8.66302 5.38523 8.41103C5.39344 8.17382 5.54938 8.08085 5.73979 8.07477C6.12225 8.06173 6.50553 8.06695 6.88882 8.06695C8.25671 8.06695 9.6246 8.06695 10.9925 8.06695C11.1016 8.06695 11.2108 8.06695 11.3208 8.06695C11.535 8.07737 11.7131 8.17556 11.7156 8.41451C11.7156 8.66823 11.5457 8.80117 11.3142 8.80726C10.9318 8.81768 10.5485 8.80726 10.1652 8.80726L8.52044 8.81508Z" fill="#454545"/>
<path d="M8.52075 10.8501C9.40878 10.8501 10.2968 10.8501 11.1857 10.8501C11.4524 10.8501 11.7191 10.8953 11.706 11.2411C11.6945 11.5461 11.4483 11.5974 11.1922 11.5965C9.4293 11.5924 7.66637 11.5924 5.90343 11.5965C5.63669 11.5965 5.38144 11.5652 5.38883 11.2037C5.39539 10.8605 5.65557 10.8562 5.89686 10.8562C6.77122 10.8521 7.64585 10.8501 8.52075 10.8501Z" fill="#454545"/>
<path d="M9.69251 3.23324C9.18858 3.23324 8.68547 3.23324 8.18154 3.23324C7.93532 3.23324 7.68909 3.19066 7.70058 2.85439C7.71289 2.53377 7.95091 2.48511 8.20123 2.48511C9.20827 2.48511 10.2153 2.48511 11.2232 2.48511C11.485 2.48511 11.7066 2.57808 11.7091 2.87525C11.7115 3.17241 11.4842 3.23497 11.2445 3.23497L9.69251 3.23324Z" fill="#454545"/>
<path d="M17.9572 5.21482e-05C18.2946 0.162538 18.6959 0.31199 18.9651 0.673456C19.0915 0.847238 18.8494 1.57017 18.6614 1.67878C18.5654 1.73439 18.5079 1.65358 18.4439 1.61535C18.1476 1.44157 17.8481 1.26779 17.5649 1.0775C17.4344 0.990607 17.1833 0.990608 17.2317 0.722984C17.2933 0.381503 17.6642 -0.0051613 17.9572 5.21482e-05Z" fill="#454545"/>
</g>
<defs>
<clipPath id="clip0_2310_6125">
<rect width="19" height="23" fill="white"/>
</clipPath>
</defs>
</svg>
