<svg width="17" height="17" viewBox="0 0 17 17" fill="none" xmlns="http://www.w3.org/2000/svg">
<path d="M8.5 17C7.33015 17 6.2283 16.7765 5.19445 16.3294C4.1606 15.8818 3.26023 15.2742 2.49334 14.5067C1.72645 13.7391 1.11886 12.8388 0.670561 11.8056C0.222265 10.7723 -0.00125397 9.67048 5.291e-06 8.5C5.291e-06 7.32637 0.223524 6.22357 0.670561 5.19161C1.11823 4.15902 1.72582 3.25959 2.49334 2.49333C3.26086 1.72707 4.16123 1.11948 5.19445 0.670555C6.2283 0.223518 7.33015 0 8.5 0C9.67363 0 10.7764 0.223518 11.8084 0.670555C12.841 1.11822 13.7407 1.72581 14.5076 2.49333C15.2745 3.26085 15.8818 4.16028 16.3294 5.19161C16.7765 6.2242 17 7.327 17 8.5C17 9.66985 16.7765 10.7717 16.3294 11.8056C15.8818 12.8394 15.2742 13.7398 14.5067 14.5067C13.7391 15.2736 12.8397 15.8811 11.8084 16.3294C10.7771 16.7777 9.67426 17.0013 8.5 17ZM8.5 16.0631C9.05408 15.351 9.51119 14.6518 9.87134 13.9655C10.2309 13.2792 10.5233 12.5111 10.7487 11.6611H6.25128C6.50124 12.5589 6.79969 13.351 7.14661 14.0373C7.49417 14.7236 7.9453 15.3988 8.5 16.0631ZM7.29773 15.9214C6.85698 15.402 6.45465 14.7598 6.09073 13.9948C5.7268 13.2304 5.45606 12.4522 5.2785 11.6601H1.65656C2.19804 12.8344 2.96525 13.7977 3.95817 14.5501C4.95173 15.3019 6.06491 15.759 7.29773 15.9214ZM9.70228 15.9214C10.9351 15.759 12.0483 15.3019 13.0418 14.5501C14.0348 13.7977 14.802 12.8344 15.3434 11.6601H11.7224C11.4832 12.4641 11.1819 13.2483 10.8186 14.0127C10.4547 14.7777 10.0826 15.4146 9.70228 15.9214ZM1.27123 10.7166H5.08206C5.01028 10.3288 4.95991 9.95098 4.93095 9.58327C4.90073 9.2162 4.88562 8.85511 4.88562 8.5C4.88562 8.14489 4.90041 7.78379 4.93 7.41672C4.9596 7.04965 5.00997 6.67187 5.08111 6.28339H1.27217C1.16954 6.61079 1.08926 6.96748 1.03134 7.35344C0.973412 7.73878 0.944449 8.12096 0.944449 8.5C0.944449 8.87903 0.973098 9.26153 1.03039 9.6475C1.08769 10.0335 1.16797 10.3895 1.27123 10.7157M6.0265 10.7157H10.9735C11.0453 10.3284 11.0956 9.95696 11.1246 9.60122C11.1548 9.24611 11.1699 8.87903 11.1699 8.5C11.1699 8.12096 11.1551 7.75389 11.1256 7.39878C11.096 7.04366 11.0456 6.67218 10.9744 6.28433H6.02556C5.95441 6.67155 5.90404 7.04303 5.87445 7.39878C5.84486 7.75389 5.83006 8.12096 5.83006 8.5C5.83006 8.87903 5.84486 9.24611 5.87445 9.60122C5.90404 9.95633 5.95535 10.3278 6.0265 10.7157ZM11.9189 10.7157H15.7288C15.8314 10.3889 15.9117 10.0328 15.9696 9.6475C16.0269 9.26153 16.0556 8.87903 16.0556 8.5C16.0556 8.12096 16.0269 7.73846 15.9696 7.3525C15.9123 6.96653 15.832 6.61048 15.7288 6.28433H11.9179C11.9897 6.67155 12.0401 7.04902 12.0691 7.41672C12.0993 7.78442 12.1144 8.14552 12.1144 8.5C12.1144 8.85448 12.0996 9.21557 12.07 9.58327C12.0404 9.95098 11.99 10.3288 11.9189 10.7166M11.7224 5.33989H15.3434C14.79 4.14107 14.0319 3.17774 13.0692 2.44989C12.1065 1.72204 10.9842 1.25894 9.70228 1.06061C10.143 1.6405 10.5394 2.30381 10.8913 3.05055C11.2433 3.79667 11.5203 4.55978 11.7224 5.33989ZM6.25128 5.33989H10.7487C10.4994 4.45337 10.1918 3.65185 9.826 2.93533C9.46019 2.21881 9.01819 1.55267 8.5 0.936889C7.98182 1.55204 7.53982 2.21818 7.174 2.93533C6.80819 3.65248 6.49999 4.454 6.25128 5.33989ZM1.6575 5.33989H5.2785C5.48061 4.56041 5.75765 3.7973 6.10961 3.05055C6.46158 2.30381 6.85793 1.6405 7.29867 1.06061C6.00541 1.25957 4.88026 1.7255 3.92323 2.45839C2.96619 3.19254 2.21063 4.15272 1.65656 5.33894" fill="#454545"/>
</svg>
