<svg width="45" height="47" viewBox="0 0 45 47" fill="none" xmlns="http://www.w3.org/2000/svg">
<g clip-path="url(#clip0_1250_3814)">
<path d="M23.9144 31.3569C28.8495 31.6524 32.4463 35.4658 32.4563 40.4244C32.4563 41.4873 32.4681 42.5486 32.4563 43.6148C32.4312 45.5593 31.0089 46.9933 29.0611 47C24.6146 47.0135 20.1682 47.0135 15.7217 47C13.7722 47 12.3113 45.5593 12.3281 43.6216C12.3466 41.6468 12.1132 39.657 12.6808 37.7092C13.7269 34.1242 17.1356 31.4778 20.8566 31.3888C20.9721 31.2775 21.1106 31.1929 21.2624 31.141C21.4141 31.0891 21.5754 31.071 21.7348 31.0882C22.1384 31.1618 22.5495 31.186 22.959 31.1604C23.2897 31.152 23.6289 31.1302 23.9144 31.3569Z" fill="white"/>
<path d="M7.94552 30.1697C5.15306 29.2579 3.59814 27.0582 3.94573 24.5579C4.09708 23.3573 4.67445 22.2509 5.57279 21.4401C6.47112 20.6293 7.63071 20.168 8.84052 20.14C11.4113 20.1014 13.4717 21.8192 13.9385 24.4102C14.3919 26.9172 12.8924 29.1118 10.0193 30.168C12.0729 30.3494 13.0217 30.6365 14.3314 31.4828C12.9813 32.6162 11.8822 34.0185 11.104 35.6002C10.1268 37.637 10.0697 39.7981 10.0965 41.981C10.1234 43.635 10.0965 43.635 8.46774 43.635C6.78857 43.635 5.1094 43.6451 3.43022 43.635C1.48239 43.6216 0.071884 42.3001 0.0315839 40.3657C-0.00871625 38.4313 -0.186708 36.4398 0.767062 34.6212C2.27999 31.7498 4.69129 30.3091 7.94552 30.1697Z" fill="white"/>
<path d="M30.4434 31.4744C31.7985 30.5743 33.2425 30.2385 34.8193 30.1764C31.9748 29.2377 30.4081 26.9859 30.8161 24.4773C31.2242 21.9686 33.2459 20.1803 35.6857 20.1416C38.2565 20.103 40.3169 21.8208 40.7871 24.4067C41.2421 26.9255 39.7258 29.1437 36.8696 30.1663C40.2883 30.3544 42.8071 31.9109 44.1823 35.1047C45.0219 37.0475 44.854 39.1163 44.6223 41.1329C44.4678 42.5233 43.0136 43.6013 41.5544 43.6248C39.4286 43.6601 37.3028 43.6248 35.1736 43.6467C34.69 43.6467 34.643 43.4502 34.6413 43.0522C34.6413 41.6266 34.7202 40.1876 34.554 38.7804C34.2383 36.1139 33.0142 33.8655 31.0277 32.0419C30.8665 31.8723 30.6784 31.6994 30.4434 31.4744Z" fill="white"/>
<path d="M22.4273 -4.44693e-05C22.6374 0.00358833 22.8438 0.056167 23.0301 0.153524C23.2163 0.250881 23.3773 0.390339 23.5003 0.560803C23.7485 0.861869 23.9678 1.1857 24.1552 1.528C24.8822 3.0107 26.0593 3.83518 27.6814 4.04675C27.8997 4.09064 28.1138 4.15358 28.3212 4.23483C29.7636 4.68653 30.1683 5.71418 29.1473 6.79389C27.6831 8.33872 27.1055 10.0246 27.3741 12.1504C27.5739 13.7356 26.5883 14.4307 25.1375 13.7473C23.2501 12.8557 21.5088 12.859 19.6214 13.7473C18.1672 14.4324 17.1832 13.7473 17.3847 12.1538C17.6534 10.028 17.0808 8.34208 15.6166 6.79557C14.5855 5.70746 14.9617 4.53708 16.4427 4.27681C18.6256 3.90068 20.1 2.76556 21.0907 0.844584C21.4634 0.147727 21.8664 -0.0101195 22.4273 -4.44693e-05Z" fill="white"/>
<path d="M21.7115 31.2225L20.8534 31.3904C20.892 30.9287 20.4655 31.0546 20.2607 30.9673C19.0648 30.5358 18.0323 29.7438 17.3056 28.7006C16.5789 27.6575 16.1937 26.4145 16.2033 25.1432C16.2129 23.8719 16.6167 22.6349 17.3591 21.6028C18.1014 20.5708 19.1457 19.7944 20.348 19.381C21.8795 18.8205 23.571 18.8914 25.0502 19.5781C26.5295 20.2647 27.6754 21.5109 28.2359 23.0424C28.7964 24.574 28.7255 26.2654 28.0388 27.7447C27.3521 29.224 26.106 30.3699 24.5745 30.9303C24.3411 31.0177 24.1144 31.1184 23.8843 31.2124C23.5636 31.4072 23.2126 31.2712 22.8768 31.3132C22.4889 31.2594 22.0893 31.3904 21.7115 31.2225Z" fill="white"/>
<path d="M1.90459 13.6348C2.22363 12.6827 1.78704 11.8348 1.05493 11.0623C0.752451 10.7345 0.480419 10.3799 0.242202 10.0028C-0.214532 9.29921 0.00543873 8.39246 0.798008 8.25141C2.82309 7.88703 4.25207 6.85601 5.23102 5.03915C5.66257 4.23483 6.68686 4.28688 7.14695 5.10967C8.08057 6.77541 9.34667 7.82993 11.2878 8.16577C12.3994 8.35887 12.6127 9.27234 11.9477 10.1808C11.9328 10.204 11.916 10.2259 11.8973 10.2463C10.6027 11.5107 10.067 12.9716 10.3978 14.8203C10.6077 15.9957 9.69426 16.6674 8.62127 16.1452C6.95889 15.3476 5.4023 15.361 3.73824 16.1267C2.60816 16.6489 1.90794 16.0931 1.90459 14.8589V13.6348Z" fill="white"/>
<path d="M34.4243 13.6013C34.8373 12.6055 34.1472 11.7727 33.4268 10.9784C31.8299 9.21864 32.2296 8.19603 34.3739 7.90553C35.8851 7.69899 36.5988 6.64111 37.3292 5.50935C38.2276 4.11732 39.0521 4.08206 39.8816 5.52447C40.7111 6.96688 41.8277 7.73257 43.428 8.06672C44.9056 8.37569 45.2197 9.29421 44.2088 10.3941C43.0921 11.6081 42.674 12.9027 42.8319 14.5433C42.9998 16.2107 42.2593 16.7262 40.7027 16.0445C39.2972 15.4299 38.0412 15.3728 36.6139 16.0008C34.9045 16.7531 34.2379 16.1822 34.3672 14.3116C34.3789 14.1436 34.3924 13.9774 34.4243 13.6013Z" fill="white"/>
<path d="M22.9273 31.2426L23.8844 31.199C23.9 31.2218 23.9107 31.2476 23.9159 31.2748C23.9211 31.3019 23.9207 31.3298 23.9146 31.3568H22.9273L22.8047 31.2997L22.9273 31.2426Z" fill="white"/>
<path d="M22.9276 31.2427C22.9226 31.2811 22.9226 31.3201 22.9276 31.3585C22.5196 31.335 22.088 31.5433 21.7119 31.2158L22.9276 31.2427Z" fill="white"/>
</g>
<defs>
<clipPath id="clip0_1250_3814">
<rect width="44.8171" height="47" fill="white"/>
</clipPath>
</defs>
</svg>
