<svg width="150" height="51" viewBox="0 0 150 51" fill="none" xmlns="http://www.w3.org/2000/svg">
<path d="M15.3005 6.77624C15.3005 6.64063 15.2936 6.54669 15.2856 6.48274C15.2053 6.47058 15.0839 6.46134 14.9028 6.46134H9.2837L9.15919 6.46417C9.11084 6.4664 9.07114 6.47024 9.03872 6.47408C9.03356 6.52475 9.02959 6.59386 9.02959 6.68637V6.6915C9.01933 8.54643 9.01062 10.4066 9.02959 12.2599H9.02924C9.03236 12.5044 9.01855 12.9918 8.65659 13.3679C8.28391 13.7551 7.78446 13.7801 7.48631 13.771H7.48595C6.4267 13.7385 5.38838 13.7618 4.28928 13.7618C3.21721 13.7618 2.14506 13.759 1.0875 13.7535C1.00705 13.7539 0.945628 13.7589 0.899948 13.765C0.900478 13.7821 0.901142 13.8014 0.902934 13.8229C1.05649 15.6672 0.947187 17.6135 0.97476 19.3231L0.978974 19.4409C0.980209 19.4626 0.982 19.4821 0.98354 19.4999C1.03617 19.5042 1.10496 19.5076 1.19392 19.5076H1.19691C3.27258 19.5145 5.33732 19.5255 7.40201 19.5076H7.40465C7.66289 19.5048 8.14202 19.5204 8.51469 19.8682C8.90699 20.2343 8.93576 20.7312 8.93581 20.9981L8.93827 21.7268C8.94824 23.4259 8.98551 25.1208 9.00746 26.8403L9.00764 26.8541C9.03264 26.8544 9.05917 26.855 9.08737 26.855H9.09053C11.0784 26.8619 13.0917 26.8523 15.0946 26.8717H15.0956C15.188 26.8727 15.2612 26.8706 15.319 26.8672L15.3211 26.7625C15.3196 24.892 15.343 23.0485 15.3023 21.2003C15.2962 20.9303 15.2889 20.3702 15.6792 19.9497C16.0844 19.5133 16.658 19.4923 17.01 19.5009H17.0098C18.9945 19.5489 20.969 19.52 22.9868 19.52H22.988C23.1591 19.5203 23.2759 19.5117 23.3545 19.5004C23.3604 19.4465 23.3656 19.3707 23.3656 19.266V13.8919L23.3629 13.7802C23.3623 13.7674 23.3611 13.7554 23.3603 13.7442C23.3042 13.7391 23.23 13.7357 23.1332 13.7357V13.7355C21.0791 13.7369 19.0474 13.7164 17.0098 13.7657H17.0084C16.6537 13.7738 16.0915 13.7492 15.6858 13.3279C15.2854 12.912 15.281 12.3562 15.2876 12.0631L15.299 11.405C15.3196 9.87032 15.3005 8.33909 15.3005 6.77624ZM16.203 8.10292C16.2082 9.42953 16.2151 10.7561 16.1865 12.0828C16.1733 12.6696 16.3184 12.8753 16.9882 12.8601C19.0399 12.8104 21.0917 12.8312 23.1332 12.8299C24.0126 12.8299 24.2632 13.0618 24.2647 13.8903V19.266L24.2638 19.3502C24.2466 20.2004 23.9564 20.4271 22.9868 20.4258C21.1113 20.4258 19.237 20.4513 17.3629 20.4147L16.9882 20.4065C16.3111 20.39 16.1881 20.5971 16.2013 21.1798C16.2423 23.0412 16.2188 24.9081 16.2202 26.7625L16.2195 26.8384C16.2046 27.6031 15.9519 27.7868 15.0859 27.7774C13.0855 27.7581 11.0864 27.7677 9.08737 27.7608C8.27127 27.7608 8.13531 27.6698 8.11184 26.9962L8.1085 26.8536C8.08359 24.9011 8.03814 22.95 8.03668 20.9988C8.03667 20.5704 7.90782 20.4258 7.49807 20.414L7.41237 20.4134C5.34009 20.4314 3.26768 20.4203 1.19392 20.4134C0.342128 20.4134 0.10504 20.1905 0.0777294 19.4158L0.0757977 19.339C0.0474059 17.5827 0.151027 15.825 0.020304 14.0686L0.00695744 13.8986C-0.0545956 13.1598 0.291243 12.8505 1.08557 12.8477C1.61463 12.8505 2.14734 12.8525 2.68189 12.8539L4.28928 12.856C5.36201 12.856 6.43622 12.8326 7.51335 12.8658C7.98052 12.88 8.11926 12.7279 8.12993 12.3481L8.13045 12.2692C8.1114 10.4079 8.12019 8.54084 8.13045 6.68637C8.13047 5.82064 8.39133 5.5583 9.28089 5.55554H14.9028L14.998 5.55625C15.959 5.57214 16.1997 5.84119 16.1997 6.77624L16.203 8.10292Z" fill="url(#paint0_linear_1055_4734)"/>
<path d="M26.4093 3.65026C26.9457 3.65026 27.4828 3.63852 28.0214 3.65509C28.2705 3.66268 28.3328 3.57569 28.3299 3.35683C28.3204 2.42614 28.3248 1.49269 28.3299 0.565451C28.3299 0.132557 28.4603 0.00138084 28.9051 0C29.8421 0 30.7791 0 31.716 0C32.2363 0 32.3645 0.127726 32.3645 0.610331C32.3645 1.49476 32.377 2.37919 32.358 3.26362C32.3514 3.55705 32.4239 3.65992 32.7588 3.65232C33.7847 3.62747 34.8105 3.63783 35.8313 3.63714C36.271 3.63714 36.3963 3.75313 36.397 4.16739C36.397 5.06355 36.397 5.95949 36.397 6.85519C36.397 7.31501 36.2585 7.43584 35.758 7.43515C34.7578 7.43515 33.7583 7.44965 32.7588 7.42548C32.4202 7.4172 32.3587 7.52076 32.3653 7.81212C32.3858 8.7428 32.3741 9.67626 32.3748 10.6035C32.3748 11.0177 32.2546 11.1158 31.8076 11.111C30.8074 11.1013 29.8079 11.1061 28.8084 11.1027C28.3731 11.1027 28.3248 11.0509 28.3189 10.6491C28.3064 9.67281 28.2837 8.69724 28.283 7.72168C28.283 7.49315 28.2097 7.42618 27.9708 7.42894C26.9347 7.43791 25.8985 7.43239 24.8617 7.42894C24.422 7.42894 24.3099 7.31018 24.3026 6.89179C24.2879 5.98526 24.3436 5.07805 24.2681 4.17152C24.2374 3.80215 24.4103 3.64749 24.8074 3.64611C25.3365 3.64887 25.8729 3.65026 26.4093 3.65026Z" fill="url(#paint1_linear_1055_4734)"/>
<g clip-path="url(#clip0_1055_4734)">
<path d="M33.8939 29.6203C32.5434 28.1752 31.6991 27.2144 31.3611 26.7381C31.0389 26.3083 30.8614 25.7844 30.8548 25.244C30.8548 24.1642 31.675 22.7826 33.3153 21.0992C34.9556 19.4159 36.5407 18.5745 38.0708 18.5751C39.1316 18.5751 40.069 18.9508 40.8832 19.7023C41.6974 20.4538 42.1039 21.1094 42.1028 21.6689C42.1028 21.9921 41.9039 22.1536 41.5062 22.1536C41.1874 22.1347 40.8696 22.0994 40.5543 22.0479C39.4378 21.8796 38.5418 21.7955 37.8663 21.7955C36.9275 21.7902 35.9968 21.9726 35.1271 22.3323C34.2641 22.6878 33.8323 23.0271 33.8317 23.3503C33.8317 23.7549 34.3005 24.4422 35.2379 25.4122C36.1754 26.3823 37.0163 26.8661 37.7606 26.8638C38.464 26.8638 39.6634 26.5485 41.3588 25.9178C42.5576 25.4686 43.3363 25.244 43.6948 25.244C44.0118 25.244 44.1703 25.4053 44.1703 25.7279C44.1703 25.9522 43.9809 26.4675 43.6019 27.2739C43.2229 28.0803 42.9403 28.5327 42.7539 28.631C42.5681 28.7287 42.0823 28.9252 41.2966 29.2206C38.0314 30.482 34.9057 32.0895 31.9713 34.0166C31.1031 34.5773 30.5446 34.858 30.2958 34.8586C29.9515 34.8586 29.7793 34.6201 29.7793 34.1432C29.7793 33.1477 31.1508 31.6401 33.8939 29.6203Z" fill="url(#paint2_linear_1055_4734)"/>
<path d="M57.6817 35.821H56.2755C52.1131 35.821 50.0317 32.5954 50.0311 26.1441C50.0311 25.6672 50.0518 24.6223 50.0933 23.0095C50.1621 20.7515 50.1964 19.1329 50.1964 18.1536C50.1964 16.0078 50.1209 13.6866 49.9697 11.1899C52.1066 8.91513 53.3816 7.77777 53.7946 7.77777C54.0423 7.77777 54.194 7.95293 54.2497 8.30324C54.3054 8.65355 54.3338 9.30504 54.3349 10.2577L54.1491 14.2091L53.8594 20.8512C53.8026 22.364 53.7742 23.5491 53.7742 24.4064C53.7742 27.8534 54.7045 29.5767 56.5653 29.5761L57.6817 29.5978V35.821Z" fill="url(#paint3_linear_1055_4734)"/>
<path d="M116.674 29.5891C115.585 28.2861 115.04 27.3167 115.04 26.6808C115.04 26.0073 115.466 24.9547 116.319 23.5228C117.171 22.0909 118.071 21.0451 119.018 20.3856C119.943 19.732 121.045 19.3863 122.171 19.3962C123.564 19.3962 124.612 19.9506 125.315 21.0593C126.011 22.1361 126.379 23.3978 126.373 24.6864C126.373 26.4415 125.801 28.0766 124.657 29.5917H128.008V35.8236H126.891C124.561 35.8236 122.507 35.0236 120.727 33.4235C118.825 35.0241 116.86 35.8242 114.833 35.8236H57.2754L57.2754 29.5891H116.674ZM120.925 29.0732C123.352 28.3153 124.565 27.4878 124.564 26.5906C124.564 26.0704 124.164 25.4952 123.365 24.8651C122.575 24.2373 121.597 23.9032 120.594 23.9182C119.822 23.9182 119.047 24.1251 118.268 24.539C117.489 24.9529 117.1 25.3914 117.1 25.8544C117.1 26.2048 117.476 26.727 118.227 27.4213C119.016 28.1397 119.932 28.7001 120.925 29.0732ZM121.618 15.2861L118.744 12.3735L121.618 9.45996L124.389 12.3735L121.618 15.2861Z" fill="url(#paint4_linear_1055_4734)"/>
<path d="M127.78 29.5891H129.525C130.744 29.5891 131.582 29.3787 132.039 28.9579C132.495 28.537 132.828 27.7439 133.036 26.5785C133.174 25.7929 133.395 25.4001 133.698 25.4001C133.96 25.4001 134.147 25.7368 134.257 26.4103C134.574 28.4601 135.602 29.4848 137.34 29.4842C138.153 29.4842 138.788 29.253 139.243 28.7905C139.699 28.328 140.016 27.6054 140.195 26.6227C140.361 25.781 140.582 25.3599 140.858 25.3593C141.134 25.3593 141.32 25.6689 141.417 26.2854C141.748 28.4058 143.035 29.4657 145.277 29.4651C146.122 29.4651 146.783 29.3067 147.26 28.9899C147.736 28.6732 147.975 28.2685 147.976 27.776C147.976 27.1147 147.494 26.06 146.528 24.6119C146.28 24.2321 146.155 24.0136 146.155 23.9581C146.155 23.8176 146.24 23.6112 146.425 23.3286L147.84 21.1885C147.95 21.0203 148.062 20.9362 148.172 20.9362C148.627 20.9362 149.073 21.7854 149.511 23.4838C149.953 25.2356 150.097 27.0516 149.937 28.8529C149.785 30.734 149.266 32.3526 148.381 33.7088C147.496 35.0649 146.376 35.7421 145.022 35.7404C143.569 35.7404 142.291 34.8632 141.187 33.1087C140.124 34.8915 138.882 35.7829 137.461 35.7829C135.903 35.7829 134.606 34.8984 133.572 33.1295C132.339 34.9273 130.768 35.8257 128.858 35.8245H127.777L127.78 29.5891ZM138.645 14.1077L141.253 16.755L143.81 14.1112L146.636 16.9449L143.872 19.841L141.297 17.1972L138.692 19.841L135.85 16.9865L138.645 14.1077ZM141.253 8.28418L144.026 11.1907L141.233 14.1181L138.438 11.1907L141.253 8.28418Z" fill="url(#paint5_linear_1055_4734)"/>
</g>
<path d="M146.948 44.667C147.609 44.667 148.133 44.8686 148.521 45.2719C148.915 45.6751 149.112 46.2352 149.112 46.9521V50.0822H147.491V47.173C147.491 46.8273 147.399 46.5617 147.215 46.3761C147.037 46.184 146.789 46.088 146.472 46.088C146.154 46.088 145.903 46.184 145.719 46.3761C145.541 46.5617 145.452 46.8273 145.452 47.173V50.0822H143.831V47.173C143.831 46.8273 143.739 46.5617 143.555 46.3761C143.377 46.184 143.129 46.088 142.812 46.088C142.494 46.088 142.243 46.184 142.059 46.3761C141.881 46.5617 141.792 46.8273 141.792 47.173V50.0822H140.162V44.7246H141.792V45.3967C141.957 45.1727 142.173 44.9966 142.44 44.8686C142.707 44.7342 143.009 44.667 143.345 44.667C143.746 44.667 144.102 44.7534 144.413 44.9262C144.731 45.0991 144.978 45.3455 145.156 45.6655C145.341 45.3711 145.592 45.1311 145.909 44.9454C146.227 44.7598 146.573 44.667 146.948 44.667Z" fill="url(#paint6_linear_1055_4734)"/>
<path d="M137.716 45.6175C137.906 45.3231 138.145 45.0927 138.431 44.9262C138.716 44.7534 139.034 44.667 139.384 44.667V46.4049H138.936C138.529 46.4049 138.224 46.4945 138.021 46.6737C137.817 46.8465 137.716 47.1538 137.716 47.5954V50.0822H136.086V44.7246H137.716V45.6175Z" fill="url(#paint7_linear_1055_4734)"/>
<path d="M132.438 50.1589C131.917 50.1589 131.447 50.0469 131.028 49.8229C130.615 49.5989 130.287 49.2788 130.046 48.8627C129.811 48.4467 129.693 47.9602 129.693 47.4033C129.693 46.8528 129.814 46.3696 130.056 45.9535C130.297 45.531 130.627 45.2078 131.047 44.9838C131.466 44.7597 131.936 44.6477 132.457 44.6477C132.978 44.6477 133.449 44.7597 133.868 44.9838C134.287 45.2078 134.618 45.531 134.859 45.9535C135.101 46.3696 135.221 46.8528 135.221 47.4033C135.221 47.9538 135.097 48.4403 134.85 48.8627C134.608 49.2788 134.275 49.5989 133.849 49.8229C133.429 50.0469 132.959 50.1589 132.438 50.1589ZM132.438 48.7379C132.75 48.7379 133.013 48.6227 133.229 48.3923C133.452 48.1618 133.563 47.8322 133.563 47.4033C133.563 46.9745 133.455 46.6448 133.239 46.4144C133.029 46.1839 132.769 46.0687 132.457 46.0687C132.14 46.0687 131.876 46.1839 131.666 46.4144C131.457 46.6384 131.352 46.9681 131.352 47.4033C131.352 47.8322 131.453 48.1618 131.657 48.3923C131.866 48.6227 132.127 48.7379 132.438 48.7379Z" fill="url(#paint8_linear_1055_4734)"/>
<path d="M129.251 46.0879H128.374V50.0821H126.744V46.0879H126.153V44.7245H126.744V44.5709C126.744 43.9116 126.932 43.4123 127.307 43.073C127.681 42.7274 128.231 42.5546 128.955 42.5546C129.076 42.5546 129.165 42.5578 129.222 42.5642V43.9564C128.911 43.9372 128.692 43.982 128.565 44.0908C128.438 44.1996 128.374 44.3948 128.374 44.6765V44.7245H129.251V46.0879Z" fill="url(#paint9_linear_1055_4734)"/>
<path d="M125.675 48.6899V50.0821H124.846C124.255 50.0821 123.794 49.9381 123.464 49.65C123.134 49.3556 122.968 48.8787 122.968 48.2194V46.0879H122.32V44.7245H122.968V43.4187H124.598V44.7245H125.666V46.0879H124.598V48.2386C124.598 48.3987 124.636 48.5139 124.713 48.5843C124.789 48.6547 124.916 48.6899 125.094 48.6899H125.675Z" fill="url(#paint10_linear_1055_4734)"/>
<path d="M115.918 47.3937C115.918 46.8432 116.02 46.36 116.223 45.9439C116.433 45.5278 116.715 45.2078 117.071 44.9838C117.427 44.7597 117.824 44.6477 118.263 44.6477C118.637 44.6477 118.965 44.7245 119.244 44.8781C119.53 45.0318 119.749 45.2334 119.902 45.483V44.7245H121.532V50.0821H119.902V49.3236C119.743 49.5733 119.521 49.7749 119.235 49.9285C118.955 50.0821 118.628 50.1589 118.253 50.1589C117.821 50.1589 117.427 50.0469 117.071 49.8229C116.715 49.5925 116.433 49.2692 116.223 48.8531C116.02 48.4307 115.918 47.9442 115.918 47.3937ZM119.902 47.4033C119.902 46.9937 119.787 46.6704 119.559 46.4336C119.336 46.1967 119.063 46.0783 118.739 46.0783C118.415 46.0783 118.139 46.1967 117.91 46.4336C117.688 46.664 117.576 46.9841 117.576 47.3937C117.576 47.8034 117.688 48.1298 117.91 48.3731C118.139 48.6099 118.415 48.7283 118.739 48.7283C119.063 48.7283 119.336 48.6099 119.559 48.3731C119.787 48.1362 119.902 47.813 119.902 47.4033Z" fill="url(#paint11_linear_1055_4734)"/>
<path d="M115.061 42.9771V50.0821H113.432V42.9771H115.061Z" fill="url(#paint12_linear_1055_4734)"/>
<path d="M112.582 45.5118C112.582 45.9023 112.493 46.2608 112.316 46.5872C112.138 46.9073 111.864 47.1665 111.496 47.3649C111.127 47.5634 110.67 47.6626 110.123 47.6626H109.113V50.0821H107.483V43.3419H110.123C110.657 43.3419 111.108 43.4347 111.477 43.6204C111.845 43.806 112.122 44.062 112.306 44.3885C112.49 44.7149 112.582 45.0894 112.582 45.5118ZM110 46.3568C110.311 46.3568 110.543 46.2832 110.695 46.1359C110.848 45.9887 110.924 45.7807 110.924 45.5118C110.924 45.243 110.848 45.035 110.695 44.8878C110.543 44.7405 110.311 44.6669 110 44.6669H109.113V46.3568H110Z" fill="url(#paint13_linear_1055_4734)"/>
<path d="M100.625 45.483C100.777 45.2334 100.997 45.0318 101.283 44.8781C101.568 44.7245 101.896 44.6477 102.264 44.6477C102.703 44.6477 103.1 44.7597 103.456 44.9838C103.811 45.2078 104.091 45.5278 104.294 45.9439C104.504 46.36 104.609 46.8432 104.609 47.3937C104.609 47.9442 104.504 48.4307 104.294 48.8531C104.091 49.2692 103.811 49.5925 103.456 49.8229C103.1 50.0469 102.703 50.1589 102.264 50.1589C101.889 50.1589 101.562 50.0853 101.283 49.9381C101.003 49.7845 100.784 49.5829 100.625 49.3332V50.0821H98.9951V42.9771H100.625V45.483ZM102.95 47.3937C102.95 46.9841 102.836 46.664 102.607 46.4336C102.385 46.1967 102.109 46.0783 101.778 46.0783C101.454 46.0783 101.178 46.1967 100.949 46.4336C100.727 46.6704 100.615 46.9937 100.615 47.4033C100.615 47.813 100.727 48.1362 100.949 48.3731C101.178 48.6099 101.454 48.7283 101.778 48.7283C102.102 48.7283 102.379 48.6099 102.607 48.3731C102.836 48.1298 102.95 47.8034 102.95 47.3937Z" fill="url(#paint14_linear_1055_4734)"/>
<path d="M98.1351 47.3169C98.1351 47.4705 98.1256 47.6306 98.1065 47.797H94.4181C94.4435 48.1298 94.5483 48.3859 94.7326 48.5651C94.9232 48.7379 95.1551 48.8243 95.4284 48.8243C95.835 48.8243 96.1178 48.6515 96.2766 48.3059H98.0112C97.9223 48.6579 97.7602 48.9748 97.5251 49.2564C97.2964 49.538 97.0073 49.7589 96.6578 49.9189C96.3084 50.0789 95.9176 50.1589 95.4855 50.1589C94.9645 50.1589 94.5007 50.0469 94.094 49.8229C93.6874 49.5989 93.3697 49.2788 93.141 48.8627C92.9122 48.4467 92.7979 47.9602 92.7979 47.4033C92.7979 46.8464 92.909 46.36 93.1314 45.9439C93.3602 45.5278 93.6779 45.2078 94.0845 44.9838C94.4912 44.7597 94.9582 44.6477 95.4855 44.6477C96.0002 44.6477 96.4577 44.7565 96.858 44.9742C97.2583 45.1918 97.5696 45.5022 97.792 45.9055C98.0208 46.3088 98.1351 46.7792 98.1351 47.3169ZM96.4672 46.8848C96.4672 46.6032 96.3719 46.3792 96.1813 46.2127C95.9907 46.0463 95.7524 45.9631 95.4665 45.9631C95.1933 45.9631 94.9614 46.0431 94.7707 46.2031C94.5865 46.3632 94.4721 46.5904 94.4276 46.8848H96.4672Z" fill="url(#paint15_linear_1055_4734)"/>
<path d="M92.3046 43.3419L90.5604 50.0821H88.5875L87.5201 45.6463L86.4145 50.0821H84.4416L82.7451 43.3419H84.4893L85.4519 48.2483L86.6432 43.3419H88.435L89.5787 48.2483L90.5509 43.3419H92.3046Z" fill="url(#paint16_linear_1055_4734)"/>
<path d="M79.8974 42.9771V50.0821H78.2676V42.9771H79.8974Z" fill="url(#paint17_linear_1055_4734)"/>
<path d="M71.4746 47.3937C71.4746 46.8432 71.5763 46.36 71.7796 45.9439C71.9893 45.5278 72.272 45.2078 72.6278 44.9838C72.9837 44.7597 73.3808 44.6477 73.8192 44.6477C74.1941 44.6477 74.5213 44.7245 74.8009 44.8781C75.0868 45.0318 75.306 45.2334 75.4585 45.483V44.7245H77.0883V50.0821H75.4585V49.3236C75.2997 49.5733 75.0773 49.7749 74.7913 49.9285C74.5118 50.0821 74.1845 50.1589 73.8097 50.1589C73.3776 50.1589 72.9837 50.0469 72.6278 49.8229C72.272 49.5925 71.9893 49.2692 71.7796 48.8531C71.5763 48.4307 71.4746 47.9442 71.4746 47.3937ZM75.4585 47.4033C75.4585 46.9937 75.3441 46.6704 75.1154 46.4336C74.893 46.1967 74.6198 46.0783 74.2957 46.0783C73.9717 46.0783 73.6953 46.1967 73.4666 46.4336C73.2442 46.664 73.133 46.9841 73.133 47.3937C73.133 47.8034 73.2442 48.1298 73.4666 48.3731C73.6953 48.6099 73.9717 48.7283 74.2957 48.7283C74.6198 48.7283 74.893 48.6099 75.1154 48.3731C75.3441 48.1362 75.4585 47.813 75.4585 47.4033Z" fill="url(#paint18_linear_1055_4734)"/>
<path d="M65.7041 47.4033C65.7041 46.8464 65.8153 46.36 66.0377 45.9439C66.2664 45.5278 66.5809 45.2078 66.9812 44.9838C67.3879 44.7597 67.8517 44.6477 68.3727 44.6477C69.0399 44.6477 69.5959 44.8237 70.0406 45.1758C70.4918 45.5278 70.7872 46.0239 70.927 46.664H69.1924C69.0462 46.2543 68.7635 46.0495 68.3441 46.0495C68.0455 46.0495 67.8072 46.1679 67.6293 46.4048C67.4514 46.6352 67.3625 46.9681 67.3625 47.4033C67.3625 47.8386 67.4514 48.1746 67.6293 48.4115C67.8072 48.6419 68.0455 48.7571 68.3441 48.7571C68.7635 48.7571 69.0462 48.5523 69.1924 48.1426H70.927C70.7872 48.7699 70.4918 49.2628 70.0406 49.6213C69.5895 49.9797 69.0335 50.1589 68.3727 50.1589C67.8517 50.1589 67.3879 50.0469 66.9812 49.8229C66.5809 49.5989 66.2664 49.2788 66.0377 48.8627C65.8153 48.4467 65.7041 47.9602 65.7041 47.4033Z" fill="url(#paint19_linear_1055_4734)"/>
<path d="M64.0366 44.1676C63.7507 44.1676 63.5156 44.0844 63.3313 43.918C63.1534 43.7452 63.0645 43.5339 63.0645 43.2843C63.0645 43.0283 63.1534 42.817 63.3313 42.6506C63.5156 42.4778 63.7507 42.3914 64.0366 42.3914C64.3162 42.3914 64.5449 42.4778 64.7228 42.6506C64.9071 42.817 64.9992 43.0283 64.9992 43.2843C64.9992 43.5339 64.9071 43.7452 64.7228 43.918C64.5449 44.0844 64.3162 44.1676 64.0366 44.1676ZM64.8467 44.7245V50.0821H63.217V44.7245H64.8467Z" fill="url(#paint20_linear_1055_4734)"/>
<path d="M56.4248 47.3937C56.4248 46.8432 56.5265 46.36 56.7298 45.9439C56.9395 45.5278 57.2222 45.2078 57.578 44.9838C57.9339 44.7597 58.331 44.6477 58.7694 44.6477C59.1189 44.6477 59.4365 44.7213 59.7225 44.8685C60.0148 45.0158 60.2435 45.2142 60.4087 45.4638V42.9771H62.0385V50.0821H60.4087V49.314C60.2562 49.5701 60.037 49.7749 59.7511 49.9285C59.4715 50.0821 59.1443 50.1589 58.7694 50.1589C58.331 50.1589 57.9339 50.0469 57.578 49.8229C57.2222 49.5925 56.9395 49.2692 56.7298 48.8531C56.5265 48.4307 56.4248 47.9442 56.4248 47.3937ZM60.4087 47.4033C60.4087 46.9937 60.2943 46.6704 60.0656 46.4336C59.8432 46.1967 59.57 46.0783 59.2459 46.0783C58.9219 46.0783 58.6455 46.1967 58.4168 46.4336C58.1944 46.664 58.0832 46.9841 58.0832 47.3937C58.0832 47.8034 58.1944 48.1298 58.4168 48.3731C58.6455 48.6099 58.9219 48.7283 59.2459 48.7283C59.57 48.7283 59.8432 48.6099 60.0656 48.3731C60.2943 48.1362 60.4087 47.813 60.4087 47.4033Z" fill="url(#paint21_linear_1055_4734)"/>
<path d="M55.889 47.3169C55.889 47.4705 55.8795 47.6306 55.8604 47.797H52.172C52.1974 48.1298 52.3023 48.3859 52.4865 48.5651C52.6771 48.7379 52.9091 48.8243 53.1823 48.8243C53.5889 48.8243 53.8717 48.6515 54.0305 48.3059H55.7651C55.6762 48.6579 55.5142 48.9748 55.2791 49.2564C55.0503 49.538 54.7612 49.7589 54.4118 49.9189C54.0623 50.0789 53.6715 50.1589 53.2395 50.1589C52.7184 50.1589 52.2546 50.0469 51.8479 49.8229C51.4413 49.5989 51.1236 49.2788 50.8949 48.8627C50.6661 48.4467 50.5518 47.9602 50.5518 47.4033C50.5518 46.8464 50.6629 46.36 50.8853 45.9439C51.1141 45.5278 51.4318 45.2078 51.8384 44.9838C52.2451 44.7597 52.7121 44.6477 53.2395 44.6477C53.7541 44.6477 54.2116 44.7565 54.6119 44.9742C55.0122 45.1918 55.3235 45.5022 55.5459 45.9055C55.7747 46.3088 55.889 46.7792 55.889 47.3169ZM54.2211 46.8848C54.2211 46.6032 54.1258 46.3792 53.9352 46.2127C53.7446 46.0463 53.5063 45.9631 53.2204 45.9631C52.9472 45.9631 52.7153 46.0431 52.5246 46.2031C52.3404 46.3632 52.226 46.5904 52.1815 46.8848H54.2211Z" fill="url(#paint22_linear_1055_4734)"/>
<path d="M49.704 43.3419V50.0821H48.0742V46.0399L46.5779 50.0821H45.2626L43.7567 46.0303V50.0821H42.127V43.3419H44.0522L45.9298 48.0082L47.7883 43.3419H49.704Z" fill="url(#paint23_linear_1055_4734)"/>
<path d="M38.677 46.0304V47.3938H34.4834V46.0304H38.677Z" fill="url(#paint24_linear_1055_4734)"/>
<path d="M25.7656 47.3937C25.7656 46.8432 25.8673 46.36 26.0706 45.9439C26.2803 45.5278 26.563 45.2078 26.9189 44.9838C27.2747 44.7597 27.6718 44.6477 28.1102 44.6477C28.4851 44.6477 28.8123 44.7245 29.0919 44.8781C29.3778 45.0318 29.597 45.2334 29.7495 45.483V44.7245H31.3793V50.0821H29.7495V49.3236C29.5907 49.5733 29.3683 49.7749 29.0824 49.9285C28.8028 50.0821 28.4756 50.1589 28.1007 50.1589C27.6686 50.1589 27.2747 50.0469 26.9189 49.8229C26.563 49.5925 26.2803 49.2692 26.0706 48.8531C25.8673 48.4307 25.7656 47.9442 25.7656 47.3937ZM29.7495 47.4033C29.7495 46.9937 29.6352 46.6704 29.4064 46.4336C29.184 46.1967 28.9108 46.0783 28.5868 46.0783C28.2627 46.0783 27.9863 46.1967 27.7576 46.4336C27.5352 46.664 27.424 46.9841 27.424 47.3937C27.424 47.8034 27.5352 48.1298 27.7576 48.3731C27.9863 48.6099 28.2627 48.7283 28.5868 48.7283C28.9108 48.7283 29.184 48.6099 29.4064 48.3731C29.6352 48.1362 29.7495 47.813 29.7495 47.4033Z" fill="url(#paint25_linear_1055_4734)"/>
<path d="M19.2969 47.3937C19.2969 46.8432 19.3985 46.36 19.6019 45.9439C19.8115 45.5278 20.0943 45.2078 20.4501 44.9838C20.8059 44.7597 21.203 44.6477 21.6415 44.6477C22.0163 44.6477 22.3436 44.7245 22.6231 44.8781C22.9091 45.0318 23.1283 45.2334 23.2808 45.483V44.7245H24.9105V50.0821H23.2808V49.3236C23.1219 49.5733 22.8995 49.7749 22.6136 49.9285C22.334 50.0821 22.0068 50.1589 21.6319 50.1589C21.1999 50.1589 20.8059 50.0469 20.4501 49.8229C20.0943 49.5925 19.8115 49.2692 19.6019 48.8531C19.3985 48.4307 19.2969 47.9442 19.2969 47.3937ZM23.2808 47.4033C23.2808 46.9937 23.1664 46.6704 22.9377 46.4336C22.7153 46.1967 22.4421 46.0783 22.118 46.0783C21.794 46.0783 21.5176 46.1967 21.2888 46.4336C21.0664 46.664 20.9552 46.9841 20.9552 47.3937C20.9552 47.8034 21.0664 48.1298 21.2888 48.3731C21.5176 48.6099 21.794 48.7283 22.118 48.7283C22.4421 48.7283 22.7153 48.6099 22.9377 48.3731C23.1664 48.1362 23.2808 47.813 23.2808 47.4033Z" fill="url(#paint26_linear_1055_4734)"/>
<path d="M18.8553 46.0879H17.9785V50.0821H16.3487V46.0879H15.7578V44.7245H16.3487V44.5709C16.3487 43.9116 16.5362 43.4123 16.911 43.073C17.2859 42.7274 17.8355 42.5546 18.5599 42.5546C18.6806 42.5546 18.7696 42.5578 18.8267 42.5642V43.9564C18.5154 43.9372 18.2962 43.982 18.1691 44.0908C18.042 44.1996 17.9785 44.3948 17.9785 44.6765V44.7245H18.8553V46.0879Z" fill="url(#paint27_linear_1055_4734)"/>
<path d="M14.1958 44.1676C13.9099 44.1676 13.6748 44.0844 13.4905 43.918C13.3126 43.7452 13.2236 43.5339 13.2236 43.2843C13.2236 43.0283 13.3126 42.817 13.4905 42.6506C13.6748 42.4778 13.9099 42.3914 14.1958 42.3914C14.4754 42.3914 14.7041 42.4778 14.882 42.6506C15.0663 42.817 15.1584 43.0283 15.1584 43.2843C15.1584 43.5339 15.0663 43.7452 14.882 43.918C14.7041 44.0844 14.4754 44.1676 14.1958 44.1676ZM15.0059 44.7245V50.0821H13.3761V44.7245H15.0059Z" fill="url(#paint28_linear_1055_4734)"/>
<path d="M10.2232 44.6669C10.8332 44.6669 11.3224 44.8717 11.6909 45.2814C12.0595 45.6847 12.2437 46.2415 12.2437 46.9521V50.0821H10.6235V47.1729C10.6235 46.8144 10.5313 46.536 10.3471 46.3376C10.1628 46.1391 9.91502 46.0399 9.60368 46.0399C9.29234 46.0399 9.04453 46.1391 8.86027 46.3376C8.67601 46.536 8.58388 46.8144 8.58388 47.1729V50.0821H6.9541V42.9771H8.58388V45.4446C8.74908 45.2078 8.97464 45.019 9.26057 44.8781C9.54649 44.7373 9.86736 44.6669 10.2232 44.6669Z" fill="url(#paint29_linear_1055_4734)"/>
<path d="M3.51087 50.1494C3.02162 50.1494 2.5832 50.0694 2.19561 49.9094C1.80802 49.7494 1.49668 49.5125 1.26159 49.1989C1.03285 48.8852 0.912122 48.5076 0.899414 48.0659H2.63403C2.65944 48.3155 2.74522 48.5076 2.89136 48.642C3.0375 48.77 3.22812 48.834 3.46321 48.834C3.70466 48.834 3.89528 48.7796 4.03506 48.6708C4.17485 48.5556 4.24474 48.3988 4.24474 48.2003C4.24474 48.0339 4.18756 47.8963 4.07319 47.7875C3.96517 47.6786 3.82856 47.589 3.66336 47.5186C3.50451 47.4482 3.27577 47.3682 2.97714 47.2786C2.54507 47.1442 2.19243 47.0097 1.91921 46.8753C1.646 46.7409 1.4109 46.5425 1.21393 46.28C1.01696 46.0176 0.918476 45.6751 0.918476 45.2527C0.918476 44.6254 1.14404 44.1357 1.59517 43.7837C2.04629 43.4252 2.63403 43.246 3.35837 43.246C4.09543 43.246 4.68952 43.4252 5.14064 43.7837C5.59177 44.1357 5.83322 44.6286 5.86499 45.2623H4.10178C4.08907 45.0446 4.00965 44.875 3.86351 44.7534C3.71737 44.6254 3.52993 44.5614 3.30119 44.5614C3.10422 44.5614 2.94537 44.6158 2.82465 44.7246C2.70392 44.827 2.64356 44.9774 2.64356 45.1759C2.64356 45.3935 2.74522 45.5631 2.94855 45.6847C3.15187 45.8064 3.46957 45.9376 3.90163 46.0784C4.3337 46.2256 4.68316 46.3664 4.95003 46.5009C5.22324 46.6353 5.45834 46.8305 5.65531 47.0866C5.85228 47.3426 5.95076 47.6722 5.95076 48.0755C5.95076 48.4596 5.85228 48.8084 5.65531 49.1221C5.46469 49.4357 5.18512 49.6853 4.81659 49.871C4.44807 50.0566 4.01283 50.1494 3.51087 50.1494Z" fill="url(#paint30_linear_1055_4734)"/>
<defs>
<linearGradient id="paint0_linear_1055_4734" x1="12.1324" y1="5.55554" x2="12.1324" y2="27.7778" gradientUnits="userSpaceOnUse">
<stop stop-color="#3E94B9"/>
<stop offset="1" stop-color="#04B6FF"/>
</linearGradient>
<linearGradient id="paint1_linear_1055_4734" x1="30.3308" y1="0" x2="30.3308" y2="11.1111" gradientUnits="userSpaceOnUse">
<stop stop-color="#3E94B9"/>
<stop offset="1" stop-color="#04B6FF"/>
</linearGradient>
<linearGradient id="paint2_linear_1055_4734" x1="36.9748" y1="18.5751" x2="36.9748" y2="34.8586" gradientUnits="userSpaceOnUse">
<stop stop-color="#3E94B9"/>
<stop offset="1" stop-color="#04B6FF"/>
</linearGradient>
<linearGradient id="paint3_linear_1055_4734" x1="53.8257" y1="7.77777" x2="53.8257" y2="35.821" gradientUnits="userSpaceOnUse">
<stop stop-color="#3E94B9"/>
<stop offset="1" stop-color="#04B6FF"/>
</linearGradient>
<linearGradient id="paint4_linear_1055_4734" x1="92.6417" y1="9.45996" x2="92.6417" y2="35.8236" gradientUnits="userSpaceOnUse">
<stop stop-color="#3E94B9"/>
<stop offset="1" stop-color="#04B6FF"/>
</linearGradient>
<linearGradient id="paint5_linear_1055_4734" x1="138.889" y1="8.28418" x2="138.889" y2="35.8245" gradientUnits="userSpaceOnUse">
<stop stop-color="#3E94B9"/>
<stop offset="1" stop-color="#04B6FF"/>
</linearGradient>
<linearGradient id="paint6_linear_1055_4734" x1="144.637" y1="44.667" x2="144.637" y2="50.0822" gradientUnits="userSpaceOnUse">
<stop stop-color="#3E94B9"/>
<stop offset="1" stop-color="#04B6FF"/>
</linearGradient>
<linearGradient id="paint7_linear_1055_4734" x1="137.735" y1="44.667" x2="137.735" y2="50.0822" gradientUnits="userSpaceOnUse">
<stop stop-color="#3E94B9"/>
<stop offset="1" stop-color="#04B6FF"/>
</linearGradient>
<linearGradient id="paint8_linear_1055_4734" x1="132.457" y1="44.6477" x2="132.457" y2="50.1589" gradientUnits="userSpaceOnUse">
<stop stop-color="#3E94B9"/>
<stop offset="1" stop-color="#04B6FF"/>
</linearGradient>
<linearGradient id="paint9_linear_1055_4734" x1="127.702" y1="42.5546" x2="127.702" y2="50.0821" gradientUnits="userSpaceOnUse">
<stop stop-color="#3E94B9"/>
<stop offset="1" stop-color="#04B6FF"/>
</linearGradient>
<linearGradient id="paint10_linear_1055_4734" x1="123.998" y1="43.4187" x2="123.998" y2="50.0821" gradientUnits="userSpaceOnUse">
<stop stop-color="#3E94B9"/>
<stop offset="1" stop-color="#04B6FF"/>
</linearGradient>
<linearGradient id="paint11_linear_1055_4734" x1="118.725" y1="44.6477" x2="118.725" y2="50.1589" gradientUnits="userSpaceOnUse">
<stop stop-color="#3E94B9"/>
<stop offset="1" stop-color="#04B6FF"/>
</linearGradient>
<linearGradient id="paint12_linear_1055_4734" x1="114.247" y1="42.9771" x2="114.247" y2="50.0821" gradientUnits="userSpaceOnUse">
<stop stop-color="#3E94B9"/>
<stop offset="1" stop-color="#04B6FF"/>
</linearGradient>
<linearGradient id="paint13_linear_1055_4734" x1="110.033" y1="43.3419" x2="110.033" y2="50.0821" gradientUnits="userSpaceOnUse">
<stop stop-color="#3E94B9"/>
<stop offset="1" stop-color="#04B6FF"/>
</linearGradient>
<linearGradient id="paint14_linear_1055_4734" x1="101.802" y1="42.9771" x2="101.802" y2="50.1589" gradientUnits="userSpaceOnUse">
<stop stop-color="#3E94B9"/>
<stop offset="1" stop-color="#04B6FF"/>
</linearGradient>
<linearGradient id="paint15_linear_1055_4734" x1="95.4665" y1="44.6477" x2="95.4665" y2="50.1589" gradientUnits="userSpaceOnUse">
<stop stop-color="#3E94B9"/>
<stop offset="1" stop-color="#04B6FF"/>
</linearGradient>
<linearGradient id="paint16_linear_1055_4734" x1="87.5248" y1="43.3419" x2="87.5248" y2="50.0821" gradientUnits="userSpaceOnUse">
<stop stop-color="#3E94B9"/>
<stop offset="1" stop-color="#04B6FF"/>
</linearGradient>
<linearGradient id="paint17_linear_1055_4734" x1="79.0825" y1="42.9771" x2="79.0825" y2="50.0821" gradientUnits="userSpaceOnUse">
<stop stop-color="#3E94B9"/>
<stop offset="1" stop-color="#04B6FF"/>
</linearGradient>
<linearGradient id="paint18_linear_1055_4734" x1="74.2814" y1="44.6477" x2="74.2814" y2="50.1589" gradientUnits="userSpaceOnUse">
<stop stop-color="#3E94B9"/>
<stop offset="1" stop-color="#04B6FF"/>
</linearGradient>
<linearGradient id="paint19_linear_1055_4734" x1="68.3156" y1="44.6477" x2="68.3156" y2="50.1589" gradientUnits="userSpaceOnUse">
<stop stop-color="#3E94B9"/>
<stop offset="1" stop-color="#04B6FF"/>
</linearGradient>
<linearGradient id="paint20_linear_1055_4734" x1="64.0318" y1="42.3914" x2="64.0318" y2="50.0821" gradientUnits="userSpaceOnUse">
<stop stop-color="#3E94B9"/>
<stop offset="1" stop-color="#04B6FF"/>
</linearGradient>
<linearGradient id="paint21_linear_1055_4734" x1="59.2316" y1="42.9771" x2="59.2316" y2="50.1589" gradientUnits="userSpaceOnUse">
<stop stop-color="#3E94B9"/>
<stop offset="1" stop-color="#04B6FF"/>
</linearGradient>
<linearGradient id="paint22_linear_1055_4734" x1="53.2204" y1="44.6477" x2="53.2204" y2="50.1589" gradientUnits="userSpaceOnUse">
<stop stop-color="#3E94B9"/>
<stop offset="1" stop-color="#04B6FF"/>
</linearGradient>
<linearGradient id="paint23_linear_1055_4734" x1="45.9155" y1="43.3419" x2="45.9155" y2="50.0821" gradientUnits="userSpaceOnUse">
<stop stop-color="#3E94B9"/>
<stop offset="1" stop-color="#04B6FF"/>
</linearGradient>
<linearGradient id="paint24_linear_1055_4734" x1="36.5802" y1="46.0304" x2="36.5802" y2="47.3938" gradientUnits="userSpaceOnUse">
<stop stop-color="#3E94B9"/>
<stop offset="1" stop-color="#04B6FF"/>
</linearGradient>
<linearGradient id="paint25_linear_1055_4734" x1="28.5725" y1="44.6477" x2="28.5725" y2="50.1589" gradientUnits="userSpaceOnUse">
<stop stop-color="#3E94B9"/>
<stop offset="1" stop-color="#04B6FF"/>
</linearGradient>
<linearGradient id="paint26_linear_1055_4734" x1="22.1037" y1="44.6477" x2="22.1037" y2="50.1589" gradientUnits="userSpaceOnUse">
<stop stop-color="#3E94B9"/>
<stop offset="1" stop-color="#04B6FF"/>
</linearGradient>
<linearGradient id="paint27_linear_1055_4734" x1="17.3066" y1="42.5546" x2="17.3066" y2="50.0821" gradientUnits="userSpaceOnUse">
<stop stop-color="#3E94B9"/>
<stop offset="1" stop-color="#04B6FF"/>
</linearGradient>
<linearGradient id="paint28_linear_1055_4734" x1="14.191" y1="42.3914" x2="14.191" y2="50.0821" gradientUnits="userSpaceOnUse">
<stop stop-color="#3E94B9"/>
<stop offset="1" stop-color="#04B6FF"/>
</linearGradient>
<linearGradient id="paint29_linear_1055_4734" x1="9.59891" y1="42.9771" x2="9.59891" y2="50.0821" gradientUnits="userSpaceOnUse">
<stop stop-color="#3E94B9"/>
<stop offset="1" stop-color="#04B6FF"/>
</linearGradient>
<linearGradient id="paint30_linear_1055_4734" x1="3.42509" y1="43.246" x2="3.42509" y2="50.1494" gradientUnits="userSpaceOnUse">
<stop stop-color="#3E94B9"/>
<stop offset="1" stop-color="#04B6FF"/>
</linearGradient>
<clipPath id="clip0_1055_4734">
<rect width="120.221" height="42.2223" fill="white" transform="translate(29.7793 7.77777)"/>
</clipPath>
</defs>
</svg>
