<svg width="150" height="51" viewBox="0 0 150 51" fill="none" xmlns="http://www.w3.org/2000/svg">
<path d="M15.3005 6.77539C15.3005 6.63978 15.2936 6.54583 15.2856 6.48189C15.2053 6.46972 15.0839 6.46049 14.9028 6.46048H9.2837L9.15919 6.46331C9.11084 6.46554 9.07114 6.46938 9.03872 6.47322C9.03356 6.5239 9.02959 6.59301 9.02959 6.68552V6.69065C9.01933 8.54558 9.01062 10.4058 9.02959 12.259H9.02924C9.03236 12.5036 9.01855 12.9909 8.65659 13.367C8.28391 13.7542 7.78446 13.7793 7.48631 13.7702H7.48595C6.4267 13.7376 5.38838 13.761 4.28928 13.761C3.21721 13.761 2.14506 13.7582 1.0875 13.7527C1.00705 13.753 0.945628 13.7581 0.899948 13.7642C0.900478 13.7812 0.901142 13.8005 0.902934 13.822C1.05649 15.6664 0.947187 17.6126 0.97476 19.3223L0.978974 19.4401C0.980209 19.4617 0.982 19.4813 0.98354 19.499C1.03617 19.5034 1.10496 19.5068 1.19392 19.5068H1.19691C3.27258 19.5137 5.33732 19.5246 7.40201 19.5068H7.40465C7.66289 19.5039 8.14202 19.5195 8.51469 19.8673C8.90699 20.2335 8.93576 20.7303 8.93581 20.9973L8.93827 21.726C8.94824 23.425 8.98551 25.1199 9.00746 26.8395L9.00764 26.8533C9.03264 26.8535 9.05917 26.8542 9.08737 26.8542H9.09053C11.0784 26.861 13.0917 26.8514 15.0946 26.8708H15.0956C15.188 26.8718 15.2612 26.8697 15.319 26.8664L15.3211 26.7616C15.3196 24.8912 15.343 23.0476 15.3023 21.1995C15.2962 20.9295 15.2889 20.3694 15.6792 19.9489C16.0844 19.5124 16.658 19.4915 17.01 19.5001H17.0098C18.9945 19.548 20.969 19.5192 22.9868 19.5192H22.988C23.1591 19.5194 23.2759 19.5108 23.3545 19.4995C23.3604 19.4457 23.3656 19.3698 23.3656 19.2651V13.891L23.3629 13.7794C23.3623 13.7665 23.3611 13.7545 23.3603 13.7433C23.3042 13.7383 23.23 13.7348 23.1332 13.7348V13.7346C21.0791 13.736 19.0474 13.7155 17.0098 13.7649H17.0084C16.6537 13.7729 16.0915 13.7483 15.6858 13.327C15.2854 12.9111 15.281 12.3554 15.2876 12.0623L15.299 11.4042C15.3196 9.86946 15.3005 8.33823 15.3005 6.77539ZM16.203 8.10206C16.2082 9.42868 16.2151 10.7553 16.1865 12.0819C16.1733 12.6688 16.3184 12.8744 16.9882 12.8593C19.0399 12.8096 21.0917 12.8304 23.1332 12.829C24.0126 12.829 24.2632 13.0609 24.2647 13.8894V19.2651L24.2638 19.3493C24.2466 20.1995 23.9564 20.4263 22.9868 20.425C21.1113 20.425 19.237 20.4505 17.3629 20.4138L16.9882 20.4057C16.3111 20.3891 16.1881 20.5963 16.2013 21.179C16.2423 23.0403 16.2188 24.9072 16.2202 26.7616L16.2195 26.8375C16.2046 27.6022 15.9519 27.786 15.0859 27.7766C13.0855 27.7573 11.0864 27.7669 9.08737 27.76C8.27127 27.76 8.13531 27.6689 8.11184 26.9953L8.1085 26.8528C8.08359 24.9003 8.03814 22.9491 8.03668 20.998C8.03667 20.5695 7.90782 20.4249 7.49807 20.4131L7.41237 20.4126C5.34009 20.4305 3.26768 20.4195 1.19392 20.4126C0.342128 20.4126 0.10504 20.1896 0.0777294 19.415L0.0757977 19.3382C0.0474059 17.5818 0.151027 15.8242 0.020304 14.0678L0.00695744 13.8977C-0.0545956 13.159 0.291243 12.8496 1.08557 12.8469C1.61463 12.8496 2.14734 12.8517 2.68189 12.8531L4.28928 12.8552C5.36201 12.8552 6.43622 12.8318 7.51335 12.8649C7.98052 12.8792 8.11926 12.7271 8.12993 12.3473L8.13045 12.2684C8.1114 10.407 8.12019 8.53999 8.13045 6.68552C8.13047 5.81979 8.39133 5.55745 9.28089 5.55469H14.9028L14.998 5.5554C15.959 5.57129 16.1997 5.84033 16.1997 6.77539L16.203 8.10206Z" fill="url(#paint0_linear_2910_8739)"/>
<path d="M26.4093 3.65026C26.9457 3.65026 27.4828 3.63852 28.0214 3.65509C28.2705 3.66268 28.3328 3.57569 28.3299 3.35683C28.3204 2.42614 28.3248 1.49269 28.3299 0.565451C28.3299 0.132557 28.4603 0.00138084 28.9051 0C29.8421 0 30.7791 0 31.716 0C32.2363 0 32.3645 0.127726 32.3645 0.610331C32.3645 1.49476 32.377 2.37919 32.358 3.26362C32.3514 3.55705 32.4239 3.65992 32.7588 3.65232C33.7847 3.62747 34.8105 3.63783 35.8313 3.63714C36.271 3.63714 36.3963 3.75313 36.397 4.16739C36.397 5.06355 36.397 5.95949 36.397 6.85519C36.397 7.31501 36.2585 7.43584 35.758 7.43515C34.7578 7.43515 33.7583 7.44965 32.7588 7.42548C32.4202 7.4172 32.3587 7.52076 32.3653 7.81212C32.3858 8.7428 32.3741 9.67626 32.3748 10.6035C32.3748 11.0177 32.2546 11.1158 31.8076 11.111C30.8074 11.1013 29.8079 11.1061 28.8084 11.1027C28.3731 11.1027 28.3248 11.0509 28.3189 10.6491C28.3064 9.67281 28.2837 8.69724 28.283 7.72168C28.283 7.49315 28.2097 7.42618 27.9708 7.42894C26.9347 7.43791 25.8985 7.43239 24.8617 7.42894C24.422 7.42894 24.3099 7.31018 24.3026 6.89179C24.2879 5.98526 24.3436 5.07805 24.2681 4.17152C24.2374 3.80215 24.4103 3.64749 24.8074 3.64611C25.3365 3.64887 25.8729 3.65026 26.4093 3.65026Z" fill="url(#paint1_linear_2910_8739)"/>
<g clip-path="url(#clip0_2910_8739)">
<path d="M33.8939 29.6195C32.5434 28.1743 31.6991 27.2135 31.3611 26.7372C31.0389 26.3075 30.8614 25.7836 30.8548 25.2432C30.8548 24.1633 31.675 22.7817 33.3153 21.0984C34.9556 19.415 36.5407 18.5736 38.0708 18.5742C39.1316 18.5742 40.069 18.95 40.8832 19.7015C41.6974 20.453 42.1039 21.1085 42.1028 21.6681C42.1028 21.9912 41.9039 22.1528 41.5062 22.1528C41.1874 22.1339 40.8696 22.0986 40.5543 22.047C39.4378 21.8788 38.5418 21.7947 37.8663 21.7947C36.9275 21.7894 35.9968 21.9717 35.1271 22.3314C34.2641 22.6869 33.8323 23.0263 33.8317 23.3494C33.8317 23.7541 34.3005 24.4414 35.2379 25.4114C36.1754 26.3814 37.0163 26.8653 37.7606 26.8629C38.464 26.8629 39.6634 26.5476 41.3588 25.9169C42.5576 25.4678 43.3363 25.2432 43.6948 25.2432C44.0118 25.2432 44.1703 25.4045 44.1703 25.727C44.1703 25.9513 43.9809 26.4667 43.6019 27.2731C43.2229 28.0795 42.9403 28.5318 42.7539 28.6301C42.5681 28.7278 42.0823 28.9244 41.2966 29.2197C38.0314 30.4811 34.9057 32.0886 31.9713 34.0157C31.1031 34.5765 30.5446 34.8571 30.2958 34.8577C29.9515 34.8577 29.7793 34.6192 29.7793 34.1423C29.7793 33.1469 31.1508 31.6393 33.8939 29.6195Z" fill="url(#paint2_linear_2910_8739)"/>
<path d="M57.6817 35.8206H56.2755C52.1131 35.8206 50.0317 32.5949 50.0311 26.1436C50.0311 25.6667 50.0518 24.6219 50.0933 23.009C50.1621 20.7511 50.1964 19.1325 50.1964 18.1532C50.1964 16.0074 50.1209 13.6861 49.9697 11.1894C52.1066 8.91471 53.3816 7.77734 53.7946 7.77734C54.0423 7.77734 54.194 7.9525 54.2497 8.30281C54.3054 8.65313 54.3338 9.30462 54.3349 10.2573L54.1491 14.2087L53.8594 20.8508C53.8026 22.3636 53.7742 23.5487 53.7742 24.4059C53.7742 27.853 54.7045 29.5762 56.5653 29.5757L57.6817 29.5973V35.8206Z" fill="url(#paint3_linear_2910_8739)"/>
<path d="M116.674 29.5901C115.585 28.2871 115.04 27.3177 115.04 26.6818C115.04 26.0083 115.466 24.9556 116.319 23.5238C117.171 22.0919 118.071 21.0461 119.018 20.3865C119.943 19.7329 121.045 19.3873 122.171 19.3972C123.564 19.3972 124.612 19.9515 125.315 21.0603C126.011 22.1371 126.379 23.3988 126.373 24.6874C126.373 26.4424 125.801 28.0775 124.657 29.5927H128.008V35.8246H126.891C124.561 35.8246 122.507 35.0245 120.727 33.4244C118.825 35.0251 116.86 35.8252 114.833 35.8246H57.2754L57.2754 29.5901H116.674ZM120.925 29.0741C123.352 28.3163 124.565 27.4888 124.564 26.5916C124.564 26.0713 124.164 25.4961 123.365 24.866C122.575 24.2383 121.597 23.9042 120.594 23.9192C119.822 23.9192 119.047 24.1261 118.268 24.54C117.489 24.9539 117.1 25.3924 117.1 25.8554C117.1 26.2057 117.476 26.728 118.227 27.4223C119.016 28.1406 119.932 28.7011 120.925 29.0741ZM121.618 15.2871L118.744 12.3744L121.618 9.46094L124.389 12.3744L121.618 15.2871Z" fill="url(#paint4_linear_2910_8739)"/>
<path d="M127.78 29.5901H129.525C130.744 29.5901 131.582 29.3797 132.039 28.9588C132.495 28.538 132.828 27.7449 133.036 26.5795C133.174 25.7939 133.395 25.4011 133.698 25.4011C133.96 25.4011 134.147 25.7378 134.257 26.4113C134.574 28.4611 135.602 29.4857 137.34 29.4852C138.153 29.4852 138.788 29.2539 139.243 28.7915C139.699 28.329 140.016 27.6064 140.195 26.6237C140.361 25.782 140.582 25.3609 140.858 25.3603C141.134 25.3603 141.32 25.6699 141.417 26.2864C141.748 28.4068 143.035 29.4667 145.277 29.4661C146.122 29.4661 146.783 29.3077 147.26 28.9909C147.736 28.6741 147.975 28.2695 147.976 27.777C147.976 27.1156 147.494 26.0609 146.528 24.6129C146.28 24.2331 146.155 24.0146 146.155 23.9591C146.155 23.8186 146.24 23.6122 146.425 23.3295L147.84 21.1895C147.95 21.0213 148.062 20.9372 148.172 20.9372C148.627 20.9372 149.073 21.7864 149.511 23.4848C149.953 25.2366 150.097 27.0526 149.937 28.8539C149.785 30.735 149.266 32.3536 148.381 33.7097C147.496 35.0659 146.376 35.7431 145.022 35.7414C143.569 35.7414 142.291 34.8642 141.187 33.1097C140.124 34.8925 138.882 35.7839 137.461 35.7839C135.903 35.7839 134.606 34.8994 133.572 33.1305C132.339 34.9283 130.768 35.8266 128.858 35.8255H127.777L127.78 29.5901ZM138.645 14.1087L141.253 16.756L143.81 14.1121L146.636 16.9459L143.872 19.842L141.297 17.1982L138.692 19.842L135.85 16.9875L138.645 14.1087ZM141.253 8.28516L144.026 11.1917L141.233 14.1191L138.438 11.1917L141.253 8.28516Z" fill="url(#paint5_linear_2910_8739)"/>
</g>
<path d="M146.948 44.668C147.609 44.668 148.133 44.8696 148.521 45.2729C148.915 45.6761 149.112 46.2362 149.112 46.9531V50.0832H147.491V47.1739C147.491 46.8283 147.399 46.5627 147.215 46.377C147.037 46.185 146.789 46.089 146.472 46.089C146.154 46.089 145.903 46.185 145.719 46.377C145.541 46.5627 145.452 46.8283 145.452 47.1739V50.0832H143.831V47.1739C143.831 46.8283 143.739 46.5627 143.555 46.377C143.377 46.185 143.129 46.089 142.812 46.089C142.494 46.089 142.243 46.185 142.059 46.377C141.881 46.5627 141.792 46.8283 141.792 47.1739V50.0832H140.162V44.7256H141.792V45.3977C141.957 45.1736 142.173 44.9976 142.44 44.8696C142.707 44.7352 143.009 44.668 143.345 44.668C143.746 44.668 144.102 44.7544 144.413 44.9272C144.731 45.1 144.978 45.3465 145.156 45.6665C145.341 45.3721 145.592 45.132 145.909 44.9464C146.227 44.7608 146.573 44.668 146.948 44.668Z" fill="url(#paint6_linear_2910_8739)"/>
<path d="M137.716 45.6185C137.906 45.3241 138.145 45.0936 138.431 44.9272C138.716 44.7544 139.034 44.668 139.384 44.668V46.4058H138.936C138.529 46.4058 138.224 46.4954 138.021 46.6747C137.817 46.8475 137.716 47.1547 137.716 47.5964V50.0832H136.086V44.7256H137.716V45.6185Z" fill="url(#paint7_linear_2910_8739)"/>
<path d="M132.438 50.1597C131.917 50.1597 131.447 50.0477 131.028 49.8236C130.615 49.5996 130.287 49.2795 130.046 48.8635C129.811 48.4474 129.693 47.9609 129.693 47.4041C129.693 46.8536 129.814 46.3703 130.056 45.9542C130.297 45.5318 130.627 45.2085 131.047 44.9845C131.466 44.7605 131.936 44.6484 132.457 44.6484C132.978 44.6484 133.449 44.7605 133.868 44.9845C134.287 45.2085 134.618 45.5318 134.859 45.9542C135.101 46.3703 135.221 46.8536 135.221 47.4041C135.221 47.9545 135.097 48.441 134.85 48.8635C134.608 49.2795 134.275 49.5996 133.849 49.8236C133.429 50.0477 132.959 50.1597 132.438 50.1597ZM132.438 48.7387C132.75 48.7387 133.013 48.6234 133.229 48.393C133.452 48.1626 133.563 47.8329 133.563 47.4041C133.563 46.9752 133.455 46.6455 133.239 46.4151C133.029 46.1847 132.769 46.0695 132.457 46.0695C132.14 46.0695 131.876 46.1847 131.666 46.4151C131.457 46.6391 131.352 46.9688 131.352 47.4041C131.352 47.8329 131.453 48.1626 131.657 48.393C131.866 48.6234 132.127 48.7387 132.438 48.7387Z" fill="url(#paint8_linear_2910_8739)"/>
<path d="M129.251 46.088H128.374V50.0822H126.744V46.088H126.153V44.7246H126.744V44.571C126.744 43.9117 126.932 43.4124 127.307 43.0732C127.681 42.7275 128.231 42.5547 128.955 42.5547C129.076 42.5547 129.165 42.5579 129.222 42.5643V43.9565C128.911 43.9373 128.692 43.9821 128.565 44.0909C128.438 44.1997 128.374 44.395 128.374 44.6766V44.7246H129.251V46.088Z" fill="url(#paint9_linear_2910_8739)"/>
<path d="M125.675 48.6892V50.0814H124.846C124.255 50.0814 123.794 49.9374 123.464 49.6493C123.134 49.3549 122.968 48.878 122.968 48.2187V46.0872H122.32V44.7238H122.968V43.418H124.598V44.7238H125.666V46.0872H124.598V48.2379C124.598 48.3979 124.636 48.5131 124.713 48.5836C124.789 48.654 124.916 48.6892 125.094 48.6892H125.675Z" fill="url(#paint10_linear_2910_8739)"/>
<path d="M115.918 47.3945C115.918 46.844 116.02 46.3607 116.223 45.9446C116.433 45.5286 116.715 45.2085 117.071 44.9845C117.427 44.7605 117.824 44.6484 118.263 44.6484C118.637 44.6484 118.965 44.7252 119.244 44.8789C119.53 45.0325 119.749 45.2341 119.902 45.4838V44.7252H121.532V50.0829H119.902V49.3243C119.743 49.574 119.521 49.7756 119.235 49.9292C118.955 50.0829 118.628 50.1597 118.253 50.1597C117.821 50.1597 117.427 50.0477 117.071 49.8236C116.715 49.5932 116.433 49.2699 116.223 48.8539C116.02 48.4314 115.918 47.9449 115.918 47.3945ZM119.902 47.4041C119.902 46.9944 119.787 46.6711 119.559 46.4343C119.336 46.1975 119.063 46.0791 118.739 46.0791C118.415 46.0791 118.139 46.1975 117.91 46.4343C117.688 46.6647 117.576 46.9848 117.576 47.3945C117.576 47.8041 117.688 48.1306 117.91 48.3738C118.139 48.6106 118.415 48.7291 118.739 48.7291C119.063 48.7291 119.336 48.6106 119.559 48.3738C119.787 48.137 119.902 47.8137 119.902 47.4041Z" fill="url(#paint11_linear_2910_8739)"/>
<path d="M115.061 42.9766V50.0816H113.432V42.9766H115.061Z" fill="url(#paint12_linear_2910_8739)"/>
<path d="M112.582 45.5098C112.582 45.9002 112.493 46.2587 112.316 46.5851C112.138 46.9052 111.864 47.1644 111.496 47.3629C111.127 47.5613 110.67 47.6605 110.123 47.6605H109.113V50.0801H107.483V43.3398H110.123C110.657 43.3398 111.108 43.4327 111.477 43.6183C111.845 43.8039 112.122 44.06 112.306 44.3864C112.49 44.7129 112.582 45.0873 112.582 45.5098ZM110 46.3547C110.311 46.3547 110.543 46.2811 110.695 46.1339C110.848 45.9866 110.924 45.7786 110.924 45.5098C110.924 45.2409 110.848 45.0329 110.695 44.8857C110.543 44.7385 110.311 44.6648 110 44.6648H109.113V46.3547H110Z" fill="url(#paint13_linear_2910_8739)"/>
<path d="M100.625 45.4825C100.777 45.2329 100.997 45.0313 101.283 44.8777C101.568 44.724 101.896 44.6472 102.264 44.6472C102.703 44.6472 103.1 44.7592 103.456 44.9833C103.811 45.2073 104.091 45.5273 104.294 45.9434C104.504 46.3595 104.609 46.8427 104.609 47.3932C104.609 47.9437 104.504 48.4302 104.294 48.8527C104.091 49.2687 103.811 49.592 103.456 49.8224C103.1 50.0464 102.703 50.1585 102.264 50.1585C101.889 50.1585 101.562 50.0848 101.283 49.9376C101.003 49.784 100.784 49.5824 100.625 49.3327V50.0816H98.9951V42.9766H100.625V45.4825ZM102.95 47.3932C102.95 46.9836 102.836 46.6635 102.607 46.4331C102.385 46.1963 102.109 46.0778 101.778 46.0778C101.454 46.0778 101.178 46.1963 100.949 46.4331C100.727 46.6699 100.615 46.9932 100.615 47.4028C100.615 47.8125 100.727 48.1357 100.949 48.3726C101.178 48.6094 101.454 48.7278 101.778 48.7278C102.102 48.7278 102.379 48.6094 102.607 48.3726C102.836 48.1293 102.95 47.8029 102.95 47.3932Z" fill="url(#paint14_linear_2910_8739)"/>
<path d="M98.1351 47.3176C98.1351 47.4713 98.1256 47.6313 98.1065 47.7977H94.4181C94.4435 48.1306 94.5483 48.3866 94.7326 48.5658C94.9232 48.7387 95.1551 48.8251 95.4284 48.8251C95.835 48.8251 96.1178 48.6522 96.2766 48.3066H98.0112C97.9223 48.6586 97.7602 48.9755 97.5251 49.2571C97.2964 49.5388 97.0073 49.7596 96.6578 49.9196C96.3084 50.0797 95.9176 50.1597 95.4855 50.1597C94.9645 50.1597 94.5007 50.0477 94.094 49.8236C93.6874 49.5996 93.3697 49.2795 93.141 48.8635C92.9122 48.4474 92.7979 47.9609 92.7979 47.4041C92.7979 46.8472 92.909 46.3607 93.1314 45.9446C93.3602 45.5286 93.6779 45.2085 94.0845 44.9845C94.4912 44.7605 94.9582 44.6484 95.4855 44.6484C96.0002 44.6484 96.4577 44.7573 96.858 44.9749C97.2583 45.1925 97.5696 45.503 97.792 45.9062C98.0208 46.3095 98.1351 46.78 98.1351 47.3176ZM96.4672 46.8856C96.4672 46.6039 96.3719 46.3799 96.1813 46.2135C95.9907 46.0471 95.7524 45.9638 95.4665 45.9638C95.1933 45.9638 94.9614 46.0438 94.7707 46.2039C94.5865 46.3639 94.4721 46.5911 94.4276 46.8856H96.4672Z" fill="url(#paint15_linear_2910_8739)"/>
<path d="M92.3046 43.3398L90.5604 50.0801H88.5875L87.5201 45.6442L86.4145 50.0801H84.4416L82.7451 43.3398H84.4893L85.4519 48.2462L86.6432 43.3398H88.435L89.5787 48.2462L90.5509 43.3398H92.3046Z" fill="url(#paint16_linear_2910_8739)"/>
<path d="M79.8974 42.9766V50.0816H78.2676V42.9766H79.8974Z" fill="url(#paint17_linear_2910_8739)"/>
<path d="M71.4746 47.3945C71.4746 46.844 71.5763 46.3607 71.7796 45.9446C71.9893 45.5286 72.272 45.2085 72.6278 44.9845C72.9837 44.7605 73.3808 44.6484 73.8192 44.6484C74.1941 44.6484 74.5213 44.7252 74.8009 44.8789C75.0868 45.0325 75.306 45.2341 75.4585 45.4838V44.7252H77.0883V50.0829H75.4585V49.3243C75.2997 49.574 75.0773 49.7756 74.7913 49.9292C74.5118 50.0829 74.1845 50.1597 73.8097 50.1597C73.3776 50.1597 72.9837 50.0477 72.6278 49.8236C72.272 49.5932 71.9893 49.2699 71.7796 48.8539C71.5763 48.4314 71.4746 47.9449 71.4746 47.3945ZM75.4585 47.4041C75.4585 46.9944 75.3441 46.6711 75.1154 46.4343C74.893 46.1975 74.6198 46.0791 74.2957 46.0791C73.9717 46.0791 73.6953 46.1975 73.4666 46.4343C73.2442 46.6647 73.133 46.9848 73.133 47.3945C73.133 47.8041 73.2442 48.1306 73.4666 48.3738C73.6953 48.6106 73.9717 48.7291 74.2957 48.7291C74.6198 48.7291 74.893 48.6106 75.1154 48.3738C75.3441 48.137 75.4585 47.8137 75.4585 47.4041Z" fill="url(#paint18_linear_2910_8739)"/>
<path d="M65.7041 47.4041C65.7041 46.8472 65.8153 46.3607 66.0377 45.9446C66.2664 45.5286 66.5809 45.2085 66.9812 44.9845C67.3879 44.7605 67.8517 44.6484 68.3727 44.6484C69.0399 44.6484 69.5959 44.8245 70.0406 45.1765C70.4918 45.5286 70.7872 46.0246 70.927 46.6647H69.1924C69.0462 46.2551 68.7635 46.0503 68.3441 46.0503C68.0455 46.0503 67.8072 46.1687 67.6293 46.4055C67.4514 46.6359 67.3625 46.9688 67.3625 47.4041C67.3625 47.8393 67.4514 48.1754 67.6293 48.4122C67.8072 48.6426 68.0455 48.7579 68.3441 48.7579C68.7635 48.7579 69.0462 48.553 69.1924 48.1434H70.927C70.7872 48.7707 70.4918 49.2635 70.0406 49.622C69.5895 49.9804 69.0335 50.1597 68.3727 50.1597C67.8517 50.1597 67.3879 50.0477 66.9812 49.8236C66.5809 49.5996 66.2664 49.2795 66.0377 48.8635C65.8153 48.4474 65.7041 47.9609 65.7041 47.4041Z" fill="url(#paint19_linear_2910_8739)"/>
<path d="M64.0366 44.1669C63.7507 44.1669 63.5156 44.0837 63.3313 43.9173C63.1534 43.7444 63.0645 43.5332 63.0645 43.2836C63.0645 43.0275 63.1534 42.8163 63.3313 42.6499C63.5156 42.477 63.7507 42.3906 64.0366 42.3906C64.3162 42.3906 64.5449 42.477 64.7228 42.6499C64.9071 42.8163 64.9992 43.0275 64.9992 43.2836C64.9992 43.5332 64.9071 43.7444 64.7228 43.9173C64.5449 44.0837 64.3162 44.1669 64.0366 44.1669ZM64.8467 44.7238V50.0814H63.217V44.7238H64.8467Z" fill="url(#paint20_linear_2910_8739)"/>
<path d="M56.4248 47.3932C56.4248 46.8427 56.5265 46.3595 56.7298 45.9434C56.9395 45.5273 57.2222 45.2073 57.578 44.9833C57.9339 44.7592 58.331 44.6472 58.7694 44.6472C59.1189 44.6472 59.4365 44.7208 59.7225 44.868C60.0148 45.0153 60.2435 45.2137 60.4087 45.4633V42.9766H62.0385V50.0816H60.4087V49.3135C60.2562 49.5696 60.037 49.7744 59.7511 49.928C59.4715 50.0816 59.1443 50.1585 58.7694 50.1585C58.331 50.1585 57.9339 50.0464 57.578 49.8224C57.2222 49.592 56.9395 49.2687 56.7298 48.8527C56.5265 48.4302 56.4248 47.9437 56.4248 47.3932ZM60.4087 47.4028C60.4087 46.9932 60.2943 46.6699 60.0656 46.4331C59.8432 46.1963 59.57 46.0778 59.2459 46.0778C58.9219 46.0778 58.6455 46.1963 58.4168 46.4331C58.1944 46.6635 58.0832 46.9836 58.0832 47.3932C58.0832 47.8029 58.1944 48.1293 58.4168 48.3726C58.6455 48.6094 58.9219 48.7278 59.2459 48.7278C59.57 48.7278 59.8432 48.6094 60.0656 48.3726C60.2943 48.1357 60.4087 47.8125 60.4087 47.4028Z" fill="url(#paint21_linear_2910_8739)"/>
<path d="M55.889 47.3176C55.889 47.4713 55.8795 47.6313 55.8604 47.7977H52.172C52.1974 48.1306 52.3023 48.3866 52.4865 48.5658C52.6771 48.7387 52.9091 48.8251 53.1823 48.8251C53.5889 48.8251 53.8717 48.6522 54.0305 48.3066H55.7651C55.6762 48.6586 55.5142 48.9755 55.2791 49.2571C55.0503 49.5388 54.7612 49.7596 54.4118 49.9196C54.0623 50.0797 53.6715 50.1597 53.2395 50.1597C52.7184 50.1597 52.2546 50.0477 51.8479 49.8236C51.4413 49.5996 51.1236 49.2795 50.8949 48.8635C50.6661 48.4474 50.5518 47.9609 50.5518 47.4041C50.5518 46.8472 50.6629 46.3607 50.8853 45.9446C51.1141 45.5286 51.4318 45.2085 51.8384 44.9845C52.2451 44.7605 52.7121 44.6484 53.2395 44.6484C53.7541 44.6484 54.2116 44.7573 54.6119 44.9749C55.0122 45.1925 55.3235 45.503 55.5459 45.9062C55.7747 46.3095 55.889 46.78 55.889 47.3176ZM54.2211 46.8856C54.2211 46.6039 54.1258 46.3799 53.9352 46.2135C53.7446 46.0471 53.5063 45.9638 53.2204 45.9638C52.9472 45.9638 52.7153 46.0438 52.5246 46.2039C52.3404 46.3639 52.226 46.5911 52.1815 46.8856H54.2211Z" fill="url(#paint22_linear_2910_8739)"/>
<path d="M49.704 43.3398V50.0801H48.0742V46.0379L46.5779 50.0801H45.2626L43.7567 46.0283V50.0801H42.127V43.3398H44.0522L45.9298 48.0062L47.7883 43.3398H49.704Z" fill="url(#paint23_linear_2910_8739)"/>
<path d="M38.677 46.0312V47.3947H34.4834V46.0312H38.677Z" fill="url(#paint24_linear_2910_8739)"/>
<path d="M25.7656 47.3945C25.7656 46.844 25.8673 46.3607 26.0706 45.9446C26.2803 45.5286 26.563 45.2085 26.9189 44.9845C27.2747 44.7605 27.6718 44.6484 28.1102 44.6484C28.4851 44.6484 28.8123 44.7252 29.0919 44.8789C29.3778 45.0325 29.597 45.2341 29.7495 45.4838V44.7252H31.3793V50.0829H29.7495V49.3243C29.5907 49.574 29.3683 49.7756 29.0824 49.9292C28.8028 50.0829 28.4756 50.1597 28.1007 50.1597C27.6686 50.1597 27.2747 50.0477 26.9189 49.8236C26.563 49.5932 26.2803 49.2699 26.0706 48.8539C25.8673 48.4314 25.7656 47.9449 25.7656 47.3945ZM29.7495 47.4041C29.7495 46.9944 29.6352 46.6711 29.4064 46.4343C29.184 46.1975 28.9108 46.0791 28.5868 46.0791C28.2627 46.0791 27.9863 46.1975 27.7576 46.4343C27.5352 46.6647 27.424 46.9848 27.424 47.3945C27.424 47.8041 27.5352 48.1306 27.7576 48.3738C27.9863 48.6106 28.2627 48.7291 28.5868 48.7291C28.9108 48.7291 29.184 48.6106 29.4064 48.3738C29.6352 48.137 29.7495 47.8137 29.7495 47.4041Z" fill="url(#paint25_linear_2910_8739)"/>
<path d="M19.2969 47.3945C19.2969 46.844 19.3985 46.3607 19.6019 45.9446C19.8115 45.5286 20.0943 45.2085 20.4501 44.9845C20.8059 44.7605 21.203 44.6484 21.6415 44.6484C22.0163 44.6484 22.3436 44.7252 22.6231 44.8789C22.9091 45.0325 23.1283 45.2341 23.2808 45.4838V44.7252H24.9105V50.0829H23.2808V49.3243C23.1219 49.574 22.8995 49.7756 22.6136 49.9292C22.334 50.0829 22.0068 50.1597 21.6319 50.1597C21.1999 50.1597 20.8059 50.0477 20.4501 49.8236C20.0943 49.5932 19.8115 49.2699 19.6019 48.8539C19.3985 48.4314 19.2969 47.9449 19.2969 47.3945ZM23.2808 47.4041C23.2808 46.9944 23.1664 46.6711 22.9377 46.4343C22.7153 46.1975 22.4421 46.0791 22.118 46.0791C21.794 46.0791 21.5176 46.1975 21.2888 46.4343C21.0664 46.6647 20.9552 46.9848 20.9552 47.3945C20.9552 47.8041 21.0664 48.1306 21.2888 48.3738C21.5176 48.6106 21.794 48.7291 22.118 48.7291C22.4421 48.7291 22.7153 48.6106 22.9377 48.3738C23.1664 48.137 23.2808 47.8137 23.2808 47.4041Z" fill="url(#paint26_linear_2910_8739)"/>
<path d="M18.8553 46.088H17.9785V50.0822H16.3487V46.088H15.7578V44.7246H16.3487V44.571C16.3487 43.9117 16.5362 43.4124 16.911 43.0732C17.2859 42.7275 17.8355 42.5547 18.5599 42.5547C18.6806 42.5547 18.7696 42.5579 18.8267 42.5643V43.9565C18.5154 43.9373 18.2962 43.9821 18.1691 44.0909C18.042 44.1997 17.9785 44.395 17.9785 44.6766V44.7246H18.8553V46.088Z" fill="url(#paint27_linear_2910_8739)"/>
<path d="M14.1958 44.1669C13.9099 44.1669 13.6748 44.0837 13.4905 43.9173C13.3126 43.7444 13.2236 43.5332 13.2236 43.2836C13.2236 43.0275 13.3126 42.8163 13.4905 42.6499C13.6748 42.477 13.9099 42.3906 14.1958 42.3906C14.4754 42.3906 14.7041 42.477 14.882 42.6499C15.0663 42.8163 15.1584 43.0275 15.1584 43.2836C15.1584 43.5332 15.0663 43.7444 14.882 43.9173C14.7041 44.0837 14.4754 44.1669 14.1958 44.1669ZM15.0059 44.7238V50.0814H13.3761V44.7238H15.0059Z" fill="url(#paint28_linear_2910_8739)"/>
<path d="M10.2232 44.6664C10.8332 44.6664 11.3224 44.8713 11.6909 45.2809C12.0595 45.6842 12.2437 46.2411 12.2437 46.9516V50.0816H10.6235V47.1724C10.6235 46.8139 10.5313 46.5355 10.3471 46.3371C10.1628 46.1386 9.91502 46.0394 9.60368 46.0394C9.29234 46.0394 9.04453 46.1386 8.86027 46.3371C8.67601 46.5355 8.58388 46.8139 8.58388 47.1724V50.0816H6.9541V42.9766H8.58388V45.4441C8.74908 45.2073 8.97464 45.0185 9.26057 44.8777C9.54649 44.7368 9.86736 44.6664 10.2232 44.6664Z" fill="url(#paint29_linear_2910_8739)"/>
<path d="M3.51087 50.1495C3.02162 50.1495 2.5832 50.0695 2.19561 49.9095C1.80802 49.7495 1.49668 49.5126 1.26159 49.199C1.03285 48.8853 0.912122 48.5077 0.899414 48.066H2.63403C2.65944 48.3157 2.74522 48.5077 2.89136 48.6421C3.0375 48.7701 3.22812 48.8341 3.46321 48.8341C3.70466 48.8341 3.89528 48.7797 4.03506 48.6709C4.17485 48.5557 4.24474 48.3989 4.24474 48.2004C4.24474 48.034 4.18756 47.8964 4.07319 47.7876C3.96517 47.6788 3.82856 47.5892 3.66336 47.5187C3.50451 47.4483 3.27577 47.3683 2.97714 47.2787C2.54507 47.1443 2.19243 47.0099 1.91921 46.8754C1.646 46.741 1.4109 46.5426 1.21393 46.2802C1.01696 46.0177 0.918476 45.6753 0.918476 45.2528C0.918476 44.6255 1.14404 44.1358 1.59517 43.7838C2.04629 43.4253 2.63403 43.2461 3.35837 43.2461C4.09543 43.2461 4.68952 43.4253 5.14064 43.7838C5.59177 44.1358 5.83322 44.6287 5.86499 45.2624H4.10178C4.08907 45.0448 4.00965 44.8751 3.86351 44.7535C3.71737 44.6255 3.52993 44.5615 3.30119 44.5615C3.10422 44.5615 2.94537 44.6159 2.82465 44.7247C2.70392 44.8271 2.64356 44.9776 2.64356 45.176C2.64356 45.3936 2.74522 45.5632 2.94855 45.6849C3.15187 45.8065 3.46957 45.9377 3.90163 46.0785C4.3337 46.2257 4.68316 46.3666 4.95003 46.501C5.22324 46.6354 5.45834 46.8306 5.65531 47.0867C5.85228 47.3427 5.95076 47.6724 5.95076 48.0756C5.95076 48.4597 5.85228 48.8085 5.65531 49.1222C5.46469 49.4358 5.18512 49.6855 4.81659 49.8711C4.44807 50.0567 4.01283 50.1495 3.51087 50.1495Z" fill="url(#paint30_linear_2910_8739)"/>
<defs>
<linearGradient id="paint0_linear_2910_8739" x1="12.1324" y1="5.55469" x2="12.1324" y2="27.7769" gradientUnits="userSpaceOnUse">
<stop stop-color="#329CCB"/>
<stop offset="1" stop-color="#668DCA"/>
</linearGradient>
<linearGradient id="paint1_linear_2910_8739" x1="30.3308" y1="0" x2="30.3308" y2="11.1111" gradientUnits="userSpaceOnUse">
<stop stop-color="#329CCB"/>
<stop offset="1" stop-color="#668DCA"/>
</linearGradient>
<linearGradient id="paint2_linear_2910_8739" x1="36.9748" y1="18.5742" x2="36.9748" y2="34.8577" gradientUnits="userSpaceOnUse">
<stop stop-color="#329CCB"/>
<stop offset="1" stop-color="#668DCA"/>
</linearGradient>
<linearGradient id="paint3_linear_2910_8739" x1="53.8257" y1="7.77734" x2="53.8257" y2="35.8206" gradientUnits="userSpaceOnUse">
<stop stop-color="#329CCB"/>
<stop offset="1" stop-color="#668DCA"/>
</linearGradient>
<linearGradient id="paint4_linear_2910_8739" x1="92.6417" y1="9.46094" x2="92.6417" y2="35.8246" gradientUnits="userSpaceOnUse">
<stop stop-color="#329CCB"/>
<stop offset="1" stop-color="#668DCA"/>
</linearGradient>
<linearGradient id="paint5_linear_2910_8739" x1="138.889" y1="8.28516" x2="138.889" y2="35.8255" gradientUnits="userSpaceOnUse">
<stop stop-color="#329CCB"/>
<stop offset="1" stop-color="#668DCA"/>
</linearGradient>
<linearGradient id="paint6_linear_2910_8739" x1="144.637" y1="44.668" x2="144.637" y2="50.0832" gradientUnits="userSpaceOnUse">
<stop stop-color="#329CCB"/>
<stop offset="1" stop-color="#668DCA"/>
</linearGradient>
<linearGradient id="paint7_linear_2910_8739" x1="137.735" y1="44.668" x2="137.735" y2="50.0832" gradientUnits="userSpaceOnUse">
<stop stop-color="#329CCB"/>
<stop offset="1" stop-color="#668DCA"/>
</linearGradient>
<linearGradient id="paint8_linear_2910_8739" x1="132.457" y1="44.6484" x2="132.457" y2="50.1597" gradientUnits="userSpaceOnUse">
<stop stop-color="#329CCB"/>
<stop offset="1" stop-color="#668DCA"/>
</linearGradient>
<linearGradient id="paint9_linear_2910_8739" x1="127.702" y1="42.5547" x2="127.702" y2="50.0822" gradientUnits="userSpaceOnUse">
<stop stop-color="#329CCB"/>
<stop offset="1" stop-color="#668DCA"/>
</linearGradient>
<linearGradient id="paint10_linear_2910_8739" x1="123.998" y1="43.418" x2="123.998" y2="50.0814" gradientUnits="userSpaceOnUse">
<stop stop-color="#329CCB"/>
<stop offset="1" stop-color="#668DCA"/>
</linearGradient>
<linearGradient id="paint11_linear_2910_8739" x1="118.725" y1="44.6484" x2="118.725" y2="50.1597" gradientUnits="userSpaceOnUse">
<stop stop-color="#329CCB"/>
<stop offset="1" stop-color="#668DCA"/>
</linearGradient>
<linearGradient id="paint12_linear_2910_8739" x1="114.247" y1="42.9766" x2="114.247" y2="50.0816" gradientUnits="userSpaceOnUse">
<stop stop-color="#329CCB"/>
<stop offset="1" stop-color="#668DCA"/>
</linearGradient>
<linearGradient id="paint13_linear_2910_8739" x1="110.033" y1="43.3398" x2="110.033" y2="50.0801" gradientUnits="userSpaceOnUse">
<stop stop-color="#329CCB"/>
<stop offset="1" stop-color="#668DCA"/>
</linearGradient>
<linearGradient id="paint14_linear_2910_8739" x1="101.802" y1="42.9766" x2="101.802" y2="50.1585" gradientUnits="userSpaceOnUse">
<stop stop-color="#329CCB"/>
<stop offset="1" stop-color="#668DCA"/>
</linearGradient>
<linearGradient id="paint15_linear_2910_8739" x1="95.4665" y1="44.6484" x2="95.4665" y2="50.1597" gradientUnits="userSpaceOnUse">
<stop stop-color="#329CCB"/>
<stop offset="1" stop-color="#668DCA"/>
</linearGradient>
<linearGradient id="paint16_linear_2910_8739" x1="87.5248" y1="43.3398" x2="87.5248" y2="50.0801" gradientUnits="userSpaceOnUse">
<stop stop-color="#329CCB"/>
<stop offset="1" stop-color="#668DCA"/>
</linearGradient>
<linearGradient id="paint17_linear_2910_8739" x1="79.0825" y1="42.9766" x2="79.0825" y2="50.0816" gradientUnits="userSpaceOnUse">
<stop stop-color="#329CCB"/>
<stop offset="1" stop-color="#668DCA"/>
</linearGradient>
<linearGradient id="paint18_linear_2910_8739" x1="74.2814" y1="44.6484" x2="74.2814" y2="50.1597" gradientUnits="userSpaceOnUse">
<stop stop-color="#329CCB"/>
<stop offset="1" stop-color="#668DCA"/>
</linearGradient>
<linearGradient id="paint19_linear_2910_8739" x1="68.3156" y1="44.6484" x2="68.3156" y2="50.1597" gradientUnits="userSpaceOnUse">
<stop stop-color="#329CCB"/>
<stop offset="1" stop-color="#668DCA"/>
</linearGradient>
<linearGradient id="paint20_linear_2910_8739" x1="64.0318" y1="42.3906" x2="64.0318" y2="50.0814" gradientUnits="userSpaceOnUse">
<stop stop-color="#329CCB"/>
<stop offset="1" stop-color="#668DCA"/>
</linearGradient>
<linearGradient id="paint21_linear_2910_8739" x1="59.2316" y1="42.9766" x2="59.2316" y2="50.1585" gradientUnits="userSpaceOnUse">
<stop stop-color="#329CCB"/>
<stop offset="1" stop-color="#668DCA"/>
</linearGradient>
<linearGradient id="paint22_linear_2910_8739" x1="53.2204" y1="44.6484" x2="53.2204" y2="50.1597" gradientUnits="userSpaceOnUse">
<stop stop-color="#329CCB"/>
<stop offset="1" stop-color="#668DCA"/>
</linearGradient>
<linearGradient id="paint23_linear_2910_8739" x1="45.9155" y1="43.3398" x2="45.9155" y2="50.0801" gradientUnits="userSpaceOnUse">
<stop stop-color="#329CCB"/>
<stop offset="1" stop-color="#668DCA"/>
</linearGradient>
<linearGradient id="paint24_linear_2910_8739" x1="36.5802" y1="46.0312" x2="36.5802" y2="47.3947" gradientUnits="userSpaceOnUse">
<stop stop-color="#329CCB"/>
<stop offset="1" stop-color="#668DCA"/>
</linearGradient>
<linearGradient id="paint25_linear_2910_8739" x1="28.5725" y1="44.6484" x2="28.5725" y2="50.1597" gradientUnits="userSpaceOnUse">
<stop stop-color="#329CCB"/>
<stop offset="1" stop-color="#668DCA"/>
</linearGradient>
<linearGradient id="paint26_linear_2910_8739" x1="22.1037" y1="44.6484" x2="22.1037" y2="50.1597" gradientUnits="userSpaceOnUse">
<stop stop-color="#329CCB"/>
<stop offset="1" stop-color="#668DCA"/>
</linearGradient>
<linearGradient id="paint27_linear_2910_8739" x1="17.3066" y1="42.5547" x2="17.3066" y2="50.0822" gradientUnits="userSpaceOnUse">
<stop stop-color="#329CCB"/>
<stop offset="1" stop-color="#668DCA"/>
</linearGradient>
<linearGradient id="paint28_linear_2910_8739" x1="14.191" y1="42.3906" x2="14.191" y2="50.0814" gradientUnits="userSpaceOnUse">
<stop stop-color="#329CCB"/>
<stop offset="1" stop-color="#668DCA"/>
</linearGradient>
<linearGradient id="paint29_linear_2910_8739" x1="9.59891" y1="42.9766" x2="9.59891" y2="50.0816" gradientUnits="userSpaceOnUse">
<stop stop-color="#329CCB"/>
<stop offset="1" stop-color="#668DCA"/>
</linearGradient>
<linearGradient id="paint30_linear_2910_8739" x1="3.42509" y1="43.2461" x2="3.42509" y2="50.1495" gradientUnits="userSpaceOnUse">
<stop stop-color="#329CCB"/>
<stop offset="1" stop-color="#668DCA"/>
</linearGradient>
<clipPath id="clip0_2910_8739">
<rect width="120.221" height="42.2223" fill="white" transform="translate(29.7793 7.77734)"/>
</clipPath>
</defs>
</svg>
