<svg width="32" height="30" viewBox="0 0 32 30" fill="none" xmlns="http://www.w3.org/2000/svg">
<g clip-path="url(#clip0_1041_6464)">
<path d="M0.00117675 15.0036C0.00117675 12.1765 0.00117675 9.34885 0.00117675 6.52075C0.00117675 2.98913 3.04376 0.0433599 6.72689 -0.00320759C10.7127 -0.0542817 13.8722 2.70071 13.9426 6.35401C13.9891 8.78003 13.9634 11.2076 13.9426 13.6351C13.9277 13.9517 13.8129 14.257 13.6127 14.5123C10.5328 18.393 10.1282 22.4989 12.3989 26.8302C12.5927 27.2012 12.5767 27.4506 12.2852 27.7631C10.3636 29.821 7.22652 30.5406 4.39691 29.5521C1.7915 28.6418 0.0107845 26.1783 0.0107845 23.4803C0.00331151 20.6583 0.000109175 17.8327 0.00117675 15.0036ZM9.90079 13.1393C9.90079 10.6517 9.95524 8.28281 9.87357 5.91838C9.84315 5.08617 9.18018 4.47028 8.38911 4.07671C7.94833 3.84976 7.45336 3.73149 6.95056 3.73296C6.44775 3.73443 5.95357 3.8556 5.51432 4.08512C5.07506 4.31464 4.70509 4.64499 4.43908 5.04524C4.17307 5.44548 4.01971 5.90252 3.99337 6.37354C3.84925 8.43903 3.94053 10.5196 3.9117 12.5926C3.9117 13.0432 4.1439 13.1454 4.55225 13.1409C5.40417 13.1303 6.2577 13.1409 7.11443 13.1409L9.90079 13.1393Z" fill="white"/>
<path d="M22.9831 29.9834C21.6186 30.0234 20.2658 29.7353 19.0534 29.1467C18.2127 28.7561 18.1038 28.1703 18.7748 27.5379C22.2913 24.2231 25.8143 20.9183 29.3437 17.6235C30.0724 16.9415 30.6889 17.1248 31.1677 18.1087C31.7975 19.3899 32.0718 20.7997 31.9652 22.207C31.8586 23.6143 31.3745 24.9734 30.5579 26.1582C29.7413 27.343 28.6187 28.3149 27.2944 28.9837C25.9701 29.6525 24.4871 29.9964 22.9831 29.9834Z" fill="white"/>
<path d="M14.0234 21.5456C14.0378 15.6676 20.3088 11.6072 26.165 13.6847C26.3139 13.7388 26.4596 13.8004 26.6037 13.865C27.8848 14.4328 27.9777 14.903 26.9544 15.8644C23.5852 19.03 20.2127 22.1936 16.837 25.3552C16.347 25.8058 15.9387 26.0146 15.596 25.938C15.1972 25.8509 14.9811 25.4182 14.8161 25.0292C14.3603 23.9138 14.0929 22.7384 14.0234 21.5456Z" fill="white"/>
</g>
<defs>
<clipPath id="clip0_1041_6464">
<rect width="32" height="30" fill="white"/>
</clipPath>
</defs>
</svg>
