<svg width="35" height="34" viewBox="0 0 35 34" fill="none" xmlns="http://www.w3.org/2000/svg">
<g clip-path="url(#clip0_961_6490)">
<path d="M17.1811 33.4802C7.9059 33.6159 -0.227039 25.9902 0.0048403 16.2948C0.205802 7.65106 7.71181 -0.24756 17.6964 0.00696432C26.6641 0.234697 34.6407 7.61423 34.3573 17.2928C34.0928 26.0639 26.6057 33.5589 17.1811 33.4802Z" fill="white"/>
<path d="M15.526 12.2656C15.526 10.8724 15.5071 9.47923 15.526 8.08772C15.5466 7.01604 16.1426 6.368 17.0718 6.32614C18.1024 6.28093 18.7654 6.8737 18.7895 7.97218C18.825 10.3399 18.829 12.7065 18.8015 15.0721C18.7929 15.6364 18.9286 16.0014 19.4267 16.3162C21.055 17.3444 22.6593 18.4127 24.2704 19.4676C25.2426 20.1039 25.4985 20.9914 24.9574 21.8119C24.4645 22.5504 23.4305 22.6927 22.5322 22.115C20.4882 20.8005 18.4562 19.4693 16.414 18.1515C15.7819 17.7412 15.5328 17.1568 15.5346 16.4418C15.5311 15.0497 15.5283 13.6577 15.526 12.2656Z" fill="url(#paint0_linear_961_6490)"/>
</g>
<defs>
<linearGradient id="paint0_linear_961_6490" x1="20.3769" y1="6.32373" x2="20.3769" y2="22.4711" gradientUnits="userSpaceOnUse">
<stop stop-color="#3E94B9"/>
<stop offset="1" stop-color="#04B6FF"/>
</linearGradient>
<clipPath id="clip0_961_6490">
<rect width="34.361" height="33.48" fill="white"/>
</clipPath>
</defs>
</svg>
