<svg width="21" height="29" viewBox="0 0 21 29" fill="none" xmlns="http://www.w3.org/2000/svg">
<path d="M10.3125 0C16.5 0 20.625 4.125 20.625 10.3125C20.625 16.5 14.4375 22.6875 10.3125 28.875C6.1875 22.6875 0 16.5 0 10.3125C0 4.125 4.125 0 10.3125 0ZM10.3125 5.15625C8.94498 5.15625 7.63347 5.6995 6.66648 6.66648C5.6995 7.63347 5.15625 8.94498 5.15625 10.3125C5.15625 11.68 5.6995 12.9915 6.66648 13.9585C7.63347 14.9255 8.94498 15.4688 10.3125 15.4688C11.68 15.4688 12.9915 14.9255 13.9585 13.9585C14.9255 12.9915 15.4688 11.68 15.4688 10.3125C15.4688 8.94498 14.9255 7.63347 13.9585 6.66648C12.9915 5.6995 11.68 5.15625 10.3125 5.15625Z" fill="url(#paint0_linear_2438_6573)"/>
<defs>
<linearGradient id="paint0_linear_2438_6573" x1="0" y1="14.4375" x2="20.625" y2="14.4375" gradientUnits="userSpaceOnUse">
<stop stop-color="#329CCB"/>
<stop offset="1" stop-color="#668DCA"/>
</linearGradient>
</defs>
</svg>
