<svg width="20" height="14" viewBox="0 0 20 14" fill="none" xmlns="http://www.w3.org/2000/svg">
<path fill-rule="evenodd" clip-rule="evenodd" d="M20 7C20 6.58117 19.7788 6.307 19.3364 5.75633C17.7172 3.745 14.146 0 10 0C5.85405 0 2.28278 3.745 0.663626 5.75633C0.221209 6.307 0 6.58117 0 7C0 7.41883 0.221209 7.693 0.663626 8.24367C2.28278 10.255 5.85405 14 10 14C14.146 14 17.7172 10.255 19.3364 8.24367C19.7788 7.693 20 7.41883 20 7ZM10 10.5C10.9072 10.5 11.7773 10.1313 12.4188 9.47487C13.0604 8.8185 13.4208 7.92826 13.4208 7C13.4208 6.07174 13.0604 5.1815 12.4188 4.52513C11.7773 3.86875 10.9072 3.5 10 3.5C9.09276 3.5 8.22268 3.86875 7.58116 4.52513C6.93965 5.1815 6.57925 6.07174 6.57925 7C6.57925 7.92826 6.93965 8.8185 7.58116 9.47487C8.22268 10.1313 9.09276 10.5 10 10.5Z" fill="#333333"/>
</svg>
