<svg xmlns="http://www.w3.org/2000/svg" width="203" height="154" viewBox="0 0 203 154" fill="none"><metadata><rdf:RDF xmlns:rdf="http://www.w3.org/1999/02/22-rdf-syntax-ns#" xmlns:dc="http://purl.org/dc/elements/1.1/"><rdf:Description><dc:creator>RealFaviconGenerator</dc:creator><dc:source>https://realfavicongenerator.net</dc:source></rdf:Description></rdf:RDF></metadata><path d="M85.0847 37.4048C85.0847 36.6562 85.0462 36.1376 85.0017 35.7847C84.5552 35.7175 83.8801 35.6665 82.8727 35.6665H51.6256L50.9333 35.6821C50.6644 35.6944 50.4436 35.7156 50.2633 35.7368C50.2346 36.0166 50.2126 36.398 50.2126 36.9087V36.937C50.1555 47.1762 50.1071 57.4444 50.2126 67.6743H50.2106C50.228 69.0244 50.1512 71.7144 48.1383 73.7905C46.0659 75.9278 43.2885 76.0662 41.6305 76.016H41.6286C35.7382 75.8361 29.9642 75.9652 23.8522 75.9653C17.8905 75.9653 11.9284 75.9498 6.04748 75.9194C5.60012 75.9211 5.25853 75.949 5.00451 75.9828C5.00746 76.077 5.01115 76.1835 5.02112 76.3022C5.87503 86.4831 5.2672 97.2262 5.42053 106.663L5.44397 107.314C5.45083 107.433 5.46079 107.541 5.46936 107.639C5.76203 107.663 6.14458 107.682 6.63928 107.682H6.65588C18.1985 107.72 29.6802 107.781 41.1618 107.682H41.1764C42.6125 107.666 45.2769 107.752 47.3493 109.672C49.5308 111.693 49.6908 114.436 49.6911 115.91L49.7047 119.932C49.7602 129.311 49.9674 138.667 50.0895 148.158L50.0905 148.235C50.2295 148.236 50.377 148.24 50.5338 148.24H50.5514C61.6057 148.277 72.8014 148.224 83.9391 148.331H83.945C84.4589 148.337 84.8661 148.325 85.1872 148.307L85.1989 147.729C85.1907 137.404 85.3209 127.228 85.0944 117.026C85.0604 115.535 85.0197 112.443 87.1901 110.122C89.4434 107.713 92.6336 107.597 94.5905 107.645C105.627 107.91 116.606 107.75 127.827 107.75H127.834C128.785 107.752 129.434 107.704 129.872 107.642C129.905 107.345 129.933 106.926 129.933 106.348V76.683L129.919 76.0668C129.915 75.9959 129.908 75.9297 129.904 75.8676C129.592 75.8399 129.18 75.8207 128.641 75.8207C117.219 75.8284 105.92 75.7142 94.5895 75.9867H94.5817C92.6096 76.0311 89.4832 75.8952 87.2272 73.5697C85.0005 71.2741 84.9759 68.2063 85.0124 66.5883L85.0759 62.9555C85.1903 54.484 85.0847 46.0317 85.0847 37.4048ZM90.1032 44.728C90.1322 52.0509 90.1703 59.3738 90.0114 66.6967C89.9381 69.9361 90.7451 71.0715 94.4694 70.9877C105.879 70.7133 117.289 70.8284 128.641 70.8207C133.531 70.8207 134.925 72.101 134.933 76.6742V106.348L134.928 106.813C134.833 111.506 133.219 112.758 127.827 112.75C117.398 112.75 106.975 112.891 96.5534 112.689L94.4694 112.644C90.7044 112.552 90.0201 113.696 90.0935 116.912C90.3216 127.187 90.1908 137.492 90.1989 147.729L90.195 148.148C90.1118 152.369 88.707 153.383 83.8913 153.331C72.7669 153.225 61.6501 153.278 50.5338 153.24C45.9956 153.24 45.2395 152.737 45.109 149.019L45.0905 148.232C44.9519 137.454 44.6992 126.684 44.6911 115.913C44.691 113.548 43.9745 112.75 41.696 112.685L41.2194 112.682C29.6956 112.781 18.1712 112.72 6.63928 112.682C1.90253 112.682 0.584118 111.451 0.432245 107.175L0.421502 106.751C0.263619 97.0563 0.839847 87.3541 0.112908 77.6586L0.0386896 76.7201C-0.3036 72.6422 1.61957 70.9346 6.03674 70.9194C8.97875 70.9346 11.9411 70.9459 14.9137 70.9535L23.8522 70.9653C29.8176 70.9653 35.7911 70.8361 41.7809 71.019C44.3788 71.0976 45.1503 70.2579 45.2096 68.1616L45.2126 67.726C45.1066 57.4512 45.1555 47.1453 45.2126 36.9087C45.2126 32.1299 46.6633 30.6817 51.61 30.6665H82.8727L83.402 30.6704C88.7465 30.7581 90.0847 32.2433 90.0847 37.4048L90.1032 44.728Z" fill="url(#paint0_linear_2605_13971)"></path><path d="M146.86 20.1494C149.843 20.1494 152.829 20.0846 155.824 20.1761C157.21 20.218 157.556 19.7378 157.54 18.5297C157.487 13.3923 157.511 8.23963 157.54 3.12129C157.54 0.731714 158.265 0.00762225 160.739 0C165.949 0 171.16 0 176.37 0C179.263 0 179.976 0.705045 179.976 3.36902C179.976 8.25107 180.045 13.1331 179.94 18.0151C179.903 19.6349 180.306 20.2027 182.169 20.1608C187.873 20.0236 193.578 20.0808 199.254 20.077C201.699 20.077 202.396 20.7173 202.4 23.0039C202.4 27.9508 202.4 32.8963 202.4 37.8406C202.4 40.3788 201.63 41.0458 198.847 41.042C193.285 41.042 187.727 41.122 182.169 40.9886C180.286 40.9429 179.944 41.5145 179.98 43.1228C180.094 48.2602 180.029 53.4129 180.033 58.5312C180.033 60.8179 179.365 61.3591 176.879 61.3324C171.317 61.2791 165.759 61.3057 160.201 61.2867C157.78 61.2867 157.511 61.0009 157.479 58.7828C157.41 53.3939 157.283 48.0087 157.279 42.6236C157.279 41.3621 156.872 40.9924 155.543 41.0077C149.781 41.0572 144.02 41.0267 138.254 41.0077C135.809 41.0077 135.185 40.3522 135.144 38.0426C135.063 33.0386 135.373 28.0308 134.953 23.0268C134.782 20.9878 135.743 20.1341 137.952 20.1265C140.894 20.1418 143.877 20.1494 146.86 20.1494Z" fill="url(#paint1_linear_2605_13971)"></path><path d="M23.864 71.0798C29.8326 71.0798 35.8093 70.9509 41.8023 71.1328C44.5746 71.2162 45.2677 70.2611 45.2351 67.858C45.1291 57.639 45.178 47.3897 45.2351 37.2087C45.2351 32.4555 46.6864 31.0152 51.6358 31C62.0617 31 72.4877 31 82.9137 31C88.7028 31 90.1298 32.4024 90.1298 37.7014C90.1298 47.4125 90.2684 57.1234 90.0564 66.8345C89.983 70.0563 90.7902 71.1859 94.5165 71.1025C105.932 70.8296 117.347 70.9433 128.705 70.9357C133.598 70.9357 134.992 72.2094 135 76.7578C135 86.5978 135 96.4351 135 106.27C135 111.319 133.459 112.645 127.89 112.638C116.76 112.638 105.638 112.797 94.5165 112.532C90.7495 112.441 90.0646 113.578 90.1379 116.777C90.3663 126.996 90.2358 137.245 90.2439 147.426C90.2439 151.975 88.9067 153.051 83.9329 152.998C72.803 152.892 61.6812 152.945 50.5595 152.907C45.7161 152.907 45.178 152.339 45.1128 147.927C44.9741 137.207 44.7214 126.496 44.7132 115.784C44.7132 113.275 43.8979 112.539 41.2397 112.57C29.7103 112.668 18.1808 112.608 6.64325 112.57C1.75098 112.57 0.503448 111.266 0.42191 106.672C0.258834 96.7181 0.878545 86.7569 0.0387061 76.8033C-0.303753 72.7475 1.62053 71.0494 6.03987 71.0343C11.9269 71.0646 17.8955 71.0798 23.864 71.0798Z" fill="url(#paint2_linear_2605_13971)"></path><defs>
<linearGradient id="paint0_linear_2605_13971" x1="67.4667" y1="30.6665" x2="67.4667" y2="153.333" gradientUnits="userSpaceOnUse">
<stop stop-color="#3E94B9"></stop>
<stop offset="1" stop-color="#04B6FF"></stop>
</linearGradient>
<linearGradient id="paint1_linear_2605_13971" x1="168.667" y1="0" x2="168.667" y2="61.3333" gradientUnits="userSpaceOnUse">
<stop stop-color="#3E94B9"></stop>
<stop offset="1" stop-color="#04B6FF"></stop>
</linearGradient>
<linearGradient id="paint2_linear_2605_13971" x1="67.5" y1="31" x2="67.5" y2="153" gradientUnits="userSpaceOnUse">
<stop stop-color="#3E94B9"></stop>
<stop offset="1" stop-color="#04B6FF"></stop>
</linearGradient>
</defs><style>@media (prefers-color-scheme: light) { :root { filter: none; } }
@media (prefers-color-scheme: dark) { :root { filter: none; } }
</style></svg>