<svg width="23" height="23" viewBox="0 0 23 23" fill="none" xmlns="http://www.w3.org/2000/svg">
<path d="M0.700012 18.0326L5.95628 13.3019C6.74693 12.5903 7.95625 12.6221 8.70842 13.3743L10.7 15.3659L15.9525 10.1134C16.7335 9.33238 17.9998 9.33238 18.7809 10.1134L22.0333 13.3659M10.0333 7.36589C10.0333 8.10227 9.43639 8.69922 8.70001 8.69922C7.96363 8.69922 7.36668 8.10227 7.36668 7.36589C7.36668 6.62951 7.96363 6.03255 8.70001 6.03255C9.43639 6.03255 10.0333 6.62951 10.0333 7.36589ZM2.70001 22.0326H20.0333C21.1379 22.0326 22.0333 21.1371 22.0333 20.0326V2.69922C22.0333 1.59465 21.1379 0.699219 20.0333 0.699219H2.70001C1.59544 0.699219 0.700012 1.59465 0.700012 2.69922V20.0326C0.700012 21.1371 1.59545 22.0326 2.70001 22.0326Z" stroke="#737373" stroke-width="1.4" stroke-linecap="round" stroke-linejoin="round"/>
</svg>
