<svg width="32" height="50" viewBox="0 0 32 50" fill="none" xmlns="http://www.w3.org/2000/svg">
<path d="M9.94702 7.49954C9.94702 6.48503 10.2537 5.63294 10.6653 5.29061C10.9679 5.04073 12.1038 4.45101 15.0838 6.3301C15.5605 6.62962 16.1136 6.68265 16.6218 6.47755C17.13 6.27245 17.5517 5.82599 17.7943 5.23617C18.037 4.64635 18.0808 3.96138 17.9161 3.33163C17.7513 2.70188 17.3916 2.17881 16.9158 1.87725C13.4395 -0.314188 10.5402 -0.621539 8.42173 1.13761C6.41221 2.80431 5.91185 5.68542 5.91185 7.49954H1.87668C0.762967 7.49954 -0.157053 8.624 0.0225125 9.98834C0.216616 11.4451 0.575226 12.8608 1.0878 14.1938C1.89887 16.3178 3.08723 18.2419 4.58629 19.8661C6.12845 21.5195 7.90419 22.8055 9.82395 23.6592C11.1556 24.2589 12.5558 24.6588 13.9822 24.8537V32.4875H18.0174V24.8537C19.3462 24.672 20.6548 24.3092 21.9194 23.7717C21.7831 24.4086 21.5464 25.0058 21.223 25.529C20.8996 26.0522 20.4958 26.491 20.035 26.8202V32.1726C23.5153 31.0632 26.0877 27.1501 26.0877 22.4923C26.0881 22.0933 26.0113 21.7 25.8638 21.3454C26.4085 20.8889 26.925 20.3966 27.4133 19.8686C28.8821 18.295 30.073 16.3632 30.9118 14.1938C31.4219 12.8596 31.7804 11.4443 31.9771 9.98834C32.1586 8.624 31.2366 7.49954 30.1229 7.49954H9.94702Z" fill="#266F8F"/>
<path d="M10.9502 27.4902H11.959V32.4878H10.9502C10.6827 32.4878 10.4261 32.6195 10.2369 32.8538C10.0477 33.0881 9.94142 33.4059 9.94142 33.7372C9.94142 34.0686 10.0477 34.3864 10.2369 34.6207C10.4261 34.855 10.6827 34.9866 10.9502 34.9866H19.7025C20.6515 34.9858 21.5748 35.3682 22.3324 36.0759C23.09 36.7836 23.6406 37.778 23.9007 38.9083C24.1608 40.0386 24.1162 41.2431 23.7736 42.3391C23.4311 43.4351 22.8093 44.3629 22.0026 44.9818H26.0821V49.9794H5.90625V44.9818H13.9766C13.9764 44.4655 14.1054 43.9618 14.3458 43.54C14.6033 43.0884 14.9744 42.7554 15.401 42.5929L19.8054 40.7738C19.8795 40.7439 19.9425 40.6822 19.983 40.5998C20.0236 40.5174 20.0391 40.4198 20.0267 40.3245C20.0142 40.2292 19.9748 40.1426 19.9153 40.0802C19.8559 40.0178 19.7804 39.9838 19.7025 39.9842H10.9502C9.61247 39.9842 8.32952 39.326 7.38359 38.1545C6.43767 36.983 5.90625 35.394 5.90625 33.7372C5.90625 32.0804 6.43767 30.4915 7.38359 29.3199C8.32952 28.1484 9.61247 27.4902 10.9502 27.4902Z" fill="#266F8F"/>
</svg>
