<svg width="32" height="32" viewBox="0 0 32 32" fill="none" xmlns="http://www.w3.org/2000/svg">
<g clip-path="url(#clip0_1473_6676)">
<path d="M22.1584 5.74159L19.1661 8.79069C17.9393 8.13487 16.595 7.7281 15.2104 7.59379C13.2048 7.40914 11.19 7.82988 9.4259 8.80169C7.66185 9.77351 6.22958 11.2518 5.314 13.0457C2.25393 18.9962 5.85161 26.3263 12.4276 27.5391C17.9961 28.5665 23.3443 24.8132 24.226 19.2466C24.5681 17.0842 24.2709 15.0146 23.2655 13.0626C23.1149 12.7714 23.1478 12.6068 23.3752 12.3844C24.2868 11.4927 25.1785 10.581 26.0832 9.6714C29.4046 14.1368 29.8664 22.183 24.4255 27.6987C19.0813 33.1137 10.2333 33.3231 4.61182 28.1366C1.87322 25.6177 0.226475 22.1291 0.0224656 18.4139C-0.181544 14.6986 1.07331 11.0506 3.51965 8.24709C8.65734 2.36134 16.9558 2.07708 22.1584 5.74159Z" fill="url(#paint0_linear_1473_6676)"/>
<path d="M21.667 14.0858C23.3217 17.3583 22.5118 21.719 19.2243 24.1826C17.6267 25.3929 15.6405 25.9749 13.6423 25.8183C11.6441 25.6617 9.7729 24.7773 8.38338 23.3328C5.49087 20.3466 5.27643 15.7455 7.90362 12.47C10.5059 9.22438 14.8606 8.70373 17.7561 10.2318C17.6414 10.3565 17.5377 10.4791 17.4249 10.5928C16.8744 11.1464 16.3019 11.681 15.7742 12.2545C15.2256 12.853 14.6661 13.2041 13.7694 13.2739C11.3477 13.4614 9.65807 15.6677 9.87451 18.1243C10.08 20.4353 12.1965 22.1978 14.6232 22.0751C16.8973 21.9594 18.7725 19.9147 18.7186 17.5648C18.7087 17.3951 18.738 17.2254 18.8043 17.0689C18.8705 16.9123 18.9719 16.7732 19.1006 16.6621C19.9564 15.8283 20.7892 14.9705 21.667 14.0858Z" fill="url(#paint1_linear_1473_6676)"/>
<path d="M26.482 0C26.9508 0.487736 27.3796 0.905653 27.7706 1.35549C27.8993 1.5041 27.9562 1.73251 28.001 1.93399C28.0579 2.19132 28.0619 2.45963 28.1008 2.72195C28.2504 3.74231 28.2534 3.87696 29.2468 3.87097C30.5075 3.86199 31.115 4.69184 31.882 5.47681C31.111 6.24981 30.3699 7.02679 29.5809 7.75291C29.4164 7.90452 29.0822 7.89155 28.8209 7.9145C27.648 8.01424 26.472 8.09603 25.3 8.21372C25.0928 8.24164 24.8997 8.33452 24.7485 8.47903C22.1213 11.0896 19.4994 13.7048 16.8828 16.3247C16.6834 16.5242 16.6445 16.6977 16.7113 16.98C17.0514 18.4143 16.2026 19.8206 14.8701 20.083C13.333 20.3822 11.9556 19.4476 11.786 17.8887C11.5866 16.0275 13.347 14.7967 14.7893 15.1787C15.1593 15.2784 15.3827 15.2146 15.651 14.9433C18.0827 12.4886 20.5114 10.03 22.989 7.62325C23.248 7.38574 23.4558 7.09794 23.5999 6.77743C23.7439 6.45692 23.8212 6.11042 23.8269 5.75908C23.8747 4.76166 23.9565 3.77223 24.0413 2.7798C24.0504 2.60148 24.1153 2.43054 24.2268 2.29106C24.946 1.53602 25.689 0.799928 26.482 0Z" fill="url(#paint2_linear_1473_6676)"/>
<path d="M23.6279 30.9041L26.4736 28.3428V31.9574C25.8143 31.9574 25.157 31.9724 24.5017 31.9434C24.38 31.9375 24.2493 31.7639 24.1536 31.6442C23.9571 31.3949 23.7865 31.1345 23.6279 30.9041Z" fill="url(#paint3_linear_1473_6676)"/>
<path d="M4.93854 30.8807C4.62535 31.7485 4.03389 32.1245 3.11128 31.9639C2.80607 31.911 2.4849 31.9559 2.13281 31.9559V28.3662L4.93854 30.8807Z" fill="url(#paint4_linear_1473_6676)"/>
</g>
<defs>
<linearGradient id="paint0_linear_1473_6676" x1="14.2783" y1="3.33594" x2="14.2783" y2="31.8969" gradientUnits="userSpaceOnUse">
<stop stop-color="#3E94B9"/>
<stop offset="1" stop-color="#04B6FF"/>
</linearGradient>
<linearGradient id="paint1_linear_1473_6676" x1="14.2826" y1="9.40918" x2="14.2826" y2="25.8433" gradientUnits="userSpaceOnUse">
<stop stop-color="#3E94B9"/>
<stop offset="1" stop-color="#04B6FF"/>
</linearGradient>
<linearGradient id="paint2_linear_1473_6676" x1="21.8262" y1="0" x2="21.8262" y2="20.1385" gradientUnits="userSpaceOnUse">
<stop stop-color="#3E94B9"/>
<stop offset="1" stop-color="#04B6FF"/>
</linearGradient>
<linearGradient id="paint3_linear_1473_6676" x1="25.0507" y1="28.3428" x2="25.0507" y2="31.9613" gradientUnits="userSpaceOnUse">
<stop stop-color="#3E94B9"/>
<stop offset="1" stop-color="#04B6FF"/>
</linearGradient>
<linearGradient id="paint4_linear_1473_6676" x1="3.53568" y1="28.3662" x2="3.53568" y2="32.0001" gradientUnits="userSpaceOnUse">
<stop stop-color="#3E94B9"/>
<stop offset="1" stop-color="#04B6FF"/>
</linearGradient>
<clipPath id="clip0_1473_6676">
<rect width="31.8814" height="32.0001" fill="white"/>
</clipPath>
</defs>
</svg>
