<svg width="33" height="32" viewBox="0 0 33 32" fill="none" xmlns="http://www.w3.org/2000/svg">
<g clip-path="url(#clip0_1473_6634)">
<path d="M16.4923 26.3835C15.2893 26.3835 14.0863 26.3835 12.8843 26.3835C12.0349 26.3835 11.6617 26.0237 11.6473 25.1991C11.6339 23.8729 11.1391 22.7675 10.1948 21.7921C5.95896 17.4145 7.50938 10.4345 13.1977 8.17273C18.3355 6.12988 24.1857 9.2921 25.0526 14.5871C25.4949 17.2856 24.7918 19.6763 22.8878 21.6831C21.8858 22.7425 21.3147 23.9129 21.326 25.3581C21.326 26.0097 20.9013 26.3725 20.1921 26.3775C18.9664 26.3945 17.7294 26.3835 16.4923 26.3835ZM16.3428 11.303C14.3358 11.328 12.4915 12.6802 11.8854 14.5731C11.6967 15.1608 11.9081 15.6725 12.4194 15.8584C12.9554 16.0583 13.4832 15.7914 13.7018 15.1808C14.1533 13.9225 15.0563 13.2709 16.4233 13.1939C17.0892 13.1559 17.4686 12.7631 17.4397 12.1825C17.4139 11.6448 16.9737 11.292 16.3428 11.303Z" fill="url(#paint0_linear_1473_6634)"/>
<path d="M12.6585 28.2529H20.2745C20.7559 30.3517 19.356 31.8969 17.5788 31.9758C16.8572 32.0088 16.1356 32.0058 15.414 31.9758C14.7048 31.9531 14.0297 31.6753 13.5203 31.1964C13.0109 30.7175 12.7037 30.0718 12.6585 29.3853C12.6337 29.0265 12.6585 28.6627 12.6585 28.2529Z" fill="url(#paint1_linear_1473_6634)"/>
<path d="M9.35819 8.12449C9.14377 8.37435 8.97058 8.69417 8.69844 8.86707C8.31083 9.11293 7.89849 8.97401 7.57686 8.66718C6.81917 7.94559 6.07076 7.214 5.31926 6.48541C5.14374 6.3266 4.97783 6.15808 4.82239 5.98069C4.67025 5.79886 4.59346 5.5686 4.607 5.33484C4.62053 5.10107 4.72342 4.88059 4.89558 4.7164C5.23267 4.40258 5.80686 4.34261 6.16045 4.67043C7.13874 5.57792 8.08919 6.51339 9.0314 7.45486C9.17263 7.59778 9.21902 7.83265 9.35819 8.12449Z" fill="url(#paint2_linear_1473_6634)"/>
<path d="M24.6424 9.08061C24.3693 8.86673 24.0373 8.70283 23.8559 8.44097C23.5992 8.06918 23.7332 7.66741 24.0466 7.35259C24.5837 6.81589 25.1342 6.29218 25.6795 5.76348C26.031 5.42167 26.3712 5.06987 26.7372 4.74505C27.1691 4.36327 27.7546 4.37026 28.1247 4.73406C28.4948 5.09785 28.502 5.67053 28.0927 6.0783C27.2083 6.95914 26.3097 7.82532 25.397 8.67684C25.2239 8.84375 24.961 8.9167 24.6424 9.08061Z" fill="url(#paint3_linear_1473_6634)"/>
<path d="M17.4472 2.83262C17.4472 3.46526 17.4575 4.0979 17.4472 4.73155C17.4369 5.28923 17.008 5.703 16.4854 5.69101C16.2336 5.6842 15.9949 5.58122 15.8211 5.4045C15.6473 5.22779 15.5526 4.99165 15.5576 4.74754C15.5459 3.48159 15.5459 2.21563 15.5576 0.949676C15.5627 0.381996 15.9792 -0.0107845 16.5204 -0.000790126C17.0431 0.00920425 17.4348 0.388991 17.4482 0.933685C17.4575 1.56733 17.4472 2.19997 17.4472 2.83262Z" fill="url(#paint4_linear_1473_6634)"/>
<path d="M2.9617 15.0724C3.59774 15.0724 4.23379 15.0634 4.8688 15.0724C5.44814 15.0824 5.87492 15.4861 5.8708 15.9948C5.86668 16.5036 5.44196 16.9013 4.85643 16.9053C3.56854 16.9147 2.2803 16.9147 0.991721 16.9053C0.401037 16.9053 -0.00409227 16.5056 3.11883e-05 15.9838C0.00415464 15.4621 0.40619 15.0844 1.00409 15.0724C1.65663 15.0634 2.30916 15.0724 2.9617 15.0724Z" fill="url(#paint5_linear_1473_6634)"/>
<path d="M30.0745 16.9104C29.422 16.9104 28.7684 16.9204 28.1158 16.9104C27.5427 16.8994 27.1138 16.4806 27.1293 15.9749C27.1358 15.7301 27.2423 15.4979 27.4253 15.3292C27.6084 15.1605 27.8531 15.0692 28.1055 15.0754C29.4113 15.0634 30.7171 15.0634 32.0228 15.0754C32.6073 15.0804 33.0125 15.4872 33.0011 16.0109C32.9887 16.5176 32.596 16.8944 32.0331 16.9104C31.3796 16.9204 30.727 16.9104 30.0745 16.9104Z" fill="url(#paint6_linear_1473_6634)"/>
</g>
<defs>
<linearGradient id="paint0_linear_1473_6634" x1="16.4808" y1="7.5459" x2="16.4808" y2="26.387" gradientUnits="userSpaceOnUse">
<stop stop-color="#3E94B9"/>
<stop offset="1" stop-color="#04B6FF"/>
</linearGradient>
<linearGradient id="paint1_linear_1473_6634" x1="16.5089" y1="28.2529" x2="16.5089" y2="31.9995" gradientUnits="userSpaceOnUse">
<stop stop-color="#3E94B9"/>
<stop offset="1" stop-color="#04B6FF"/>
</linearGradient>
<linearGradient id="paint2_linear_1473_6634" x1="6.98183" y1="4.45117" x2="6.98183" y2="8.99314" gradientUnits="userSpaceOnUse">
<stop stop-color="#3E94B9"/>
<stop offset="1" stop-color="#04B6FF"/>
</linearGradient>
<linearGradient id="paint3_linear_1473_6634" x1="26.0609" y1="4.45996" x2="26.0609" y2="9.08061" gradientUnits="userSpaceOnUse">
<stop stop-color="#3E94B9"/>
<stop offset="1" stop-color="#04B6FF"/>
</linearGradient>
<linearGradient id="paint4_linear_1473_6634" x1="16.5004" y1="-0.000976563" x2="16.5004" y2="5.69126" gradientUnits="userSpaceOnUse">
<stop stop-color="#3E94B9"/>
<stop offset="1" stop-color="#04B6FF"/>
</linearGradient>
<linearGradient id="paint5_linear_1473_6634" x1="2.93542" y1="15.0684" x2="2.93542" y2="16.9123" gradientUnits="userSpaceOnUse">
<stop stop-color="#3E94B9"/>
<stop offset="1" stop-color="#04B6FF"/>
</linearGradient>
<linearGradient id="paint6_linear_1473_6634" x1="30.0651" y1="15.0664" x2="30.0651" y2="16.9148" gradientUnits="userSpaceOnUse">
<stop stop-color="#3E94B9"/>
<stop offset="1" stop-color="#04B6FF"/>
</linearGradient>
<clipPath id="clip0_1473_6634">
<rect width="33" height="32" fill="white"/>
</clipPath>
</defs>
</svg>
