<svg width="35" height="35" viewBox="0 0 35 35" fill="none" xmlns="http://www.w3.org/2000/svg">
<path d="M18.7348 1.25H6.24564C5.58318 1.25 4.94785 1.51316 4.47942 1.9816C4.01098 2.45003 3.74782 3.08536 3.74782 3.74782V26.2282L1.25 33.7217L11.2413 31.2239H31.2239C31.8863 31.2239 32.5217 30.9607 32.9901 30.4923C33.4585 30.0238 33.7217 29.3885 33.7217 28.726V16.2369" stroke="white" stroke-width="2.5" stroke-linecap="round" stroke-linejoin="round"/>
<path d="M20.8909 20.3321L13.3975 21.681L14.6464 14.0876L26.4611 2.32284C26.6933 2.08872 26.9695 1.9029 27.2739 1.77608C27.5783 1.64927 27.9048 1.58398 28.2345 1.58398C28.5643 1.58398 28.8907 1.64927 29.1951 1.77608C29.4995 1.9029 29.7758 2.08872 30.008 2.32284L32.6557 4.97053C32.8898 5.20273 33.0756 5.47899 33.2024 5.78338C33.3292 6.08776 33.3945 6.41424 33.3945 6.74398C33.3945 7.07372 33.3292 7.4002 33.2024 7.70458C33.0756 8.00897 32.8898 8.28523 32.6557 8.51743L20.8909 20.3321Z" stroke="white" stroke-width="2.5" stroke-linecap="round" stroke-linejoin="round"/>
</svg>
