<svg width="54" height="54" viewBox="0 0 54 54" fill="none" xmlns="http://www.w3.org/2000/svg">
<path d="M48.5028 23.3532C46.9852 22.1716 45.2516 21.6179 43.3175 22.0013C41.7558 22.3057 40.437 23.1229 39.2712 24.1672C35.9395 27.1503 32.9612 30.4599 30.1485 33.9336C29.5806 34.6371 28.989 35.3202 28.5173 36.0948C27.8437 37.199 27.3531 38.3743 27.4446 39.6962C27.5377 41.0576 28.2113 42.2092 29.0221 43.2456C31.4988 46.4353 34.1285 47.2998 37.7757 45.2869C39.1258 44.5194 40.374 43.585 41.4908 42.5058C44.0353 40.1079 46.8196 37.9673 49.1275 35.3139C50.6514 33.5581 51.5395 31.5752 51.5821 28.275C51.6026 26.7196 50.4021 24.8345 48.5028 23.3532ZM42.8427 39.8603C41.2399 41.3084 39.6751 42.8039 37.8499 43.9792C36.7346 44.6969 35.5625 45.2759 34.4109 45.2696C32.5526 45.2696 31.3884 44.3988 30.3851 43.2188C29.9722 42.6954 29.5868 42.151 29.2303 41.5877C28.2617 40.1884 28.3422 38.7671 29.0726 37.3094C29.7162 36.0111 30.617 34.8974 31.5966 33.8547C32.5005 32.8971 33.4549 31.9885 34.3715 31.042C34.7438 30.6586 35.1965 30.7265 35.6335 30.758C37.0153 30.8502 38.3322 31.3788 39.3942 32.2677C41.6138 34.0708 42.9894 36.333 43.0399 39.2734C43.0571 39.3799 43.0482 39.489 43.0138 39.5912C42.9795 39.6935 42.9207 39.7858 42.8427 39.8603Z" fill="white"/>
<path d="M31.9955 6.73815C31.1168 6.38006 30.1908 6.2507 29.2538 6.12292C27.3466 5.86263 25.8353 6.52519 24.6017 7.94337C23.9485 8.7045 23.3985 9.54837 22.9658 10.4532C22.4689 11.4723 22.0367 12.5276 21.4798 13.5136C19.5868 16.8532 18.2932 20.4388 17.1385 24.0687C16.5154 26.028 16.6179 28.0282 17.7395 29.8597C20.3187 34.0733 27.0279 34.2578 30.1119 30.2036C30.8555 29.1916 31.4672 28.089 31.9324 26.9224C33.289 23.6901 34.2245 20.3126 35.3572 17.003C35.826 15.6806 36.0795 14.2916 36.1081 12.8889C36.179 9.7023 35.0495 7.98439 31.9955 6.73815ZM34.1267 17.38C33.8112 18.3266 33.4799 19.2731 33.1881 20.2196C33.1508 20.3585 33.0806 20.4864 32.9834 20.5924C32.8862 20.6984 32.7648 20.7794 32.6296 20.8285C30.7997 21.633 28.9225 21.6062 27.0374 21.1203C25.4173 20.7023 23.9675 19.9419 22.8017 18.7067C22.4988 18.3735 22.2343 18.0073 22.013 17.6151C21.6202 16.9573 21.5397 16.3436 21.8757 15.588C22.5604 14.0326 23.0983 12.4125 23.9028 10.9059C24.3978 9.96765 25.0188 9.10145 25.7485 8.33144C26.7439 7.29186 27.9349 6.96374 29.3373 7.17828C30.5395 7.35946 31.7033 7.73902 32.7811 8.30147C34.2371 9.05552 34.9896 10.2623 35.018 11.9029C35.018 12.1774 35.018 12.4535 35.018 12.7295C35.0874 14.3528 34.622 15.8704 34.1267 17.38Z" fill="white"/>
<path d="M20.8709 37.2873C19.997 34.1776 18.0819 31.4622 15.4459 29.5954C14.2549 28.734 12.9218 28.2324 11.4768 27.9311C8.64994 27.3443 5.88615 30.2974 6.20481 32.4885C6.28423 33.1101 6.42966 33.7214 6.63862 34.3121C7.18917 35.7871 8.10098 37.0318 9.20681 38.278L7.91168 38.5178C6.59919 38.7639 5.2993 39.0541 4.13667 39.7498C2.91568 40.4802 2.28625 41.5261 2.44242 42.9853C2.49448 43.4743 2.51814 43.9649 2.55916 44.4555C2.63961 45.402 3.0056 46.063 3.98681 46.4385C5.60692 47.0568 7.24596 47.5616 8.96545 47.7778C11.7561 48.128 14.4867 47.8929 17.1322 46.8849C18.3469 46.4227 19.0442 45.5125 19.3108 44.2426C19.4685 43.4617 19.4306 42.6777 19.3975 41.8936C19.3818 41.7802 19.3974 41.6646 19.4424 41.5593C19.4874 41.4539 19.5602 41.3628 19.6531 41.2958C20.9719 40.242 21.3268 38.8632 20.8709 37.2873ZM3.9805 41.1932C4.39196 40.8281 4.86966 40.5454 5.38767 40.3603C6.83424 39.794 8.31553 39.368 9.88199 39.3191C10.1202 39.3191 10.3363 39.3191 10.5351 39.5021C11.9627 40.8367 13.5324 41.9678 15.3575 42.6982C15.3828 42.7092 15.3922 42.7613 15.4301 42.837C12.0653 43.6889 8.76355 43.591 5.51072 42.3827C5.01695 42.1981 4.5484 41.9473 4.05622 41.7517C3.63975 41.6018 3.73598 41.4235 3.9805 41.1932ZM16.5817 45.9778C15.5871 46.452 14.507 46.7203 13.4061 46.7666C10.658 46.9697 7.89628 46.6545 5.26461 45.8374C5.04061 45.7664 4.82608 45.6718 4.60523 45.5945C4.0531 45.3973 3.65869 45.1212 3.67131 44.4256C3.68551 43.9223 3.55775 43.4144 3.49623 42.908C3.49975 42.8359 3.51139 42.7645 3.53093 42.695C5.85363 43.8275 8.39342 44.4452 10.9768 44.506C13.5655 44.5675 16.0359 44.0469 18.3169 42.7297C18.4715 44.323 17.9399 45.3042 16.5817 45.9778ZM17.1985 41.8621C16.7599 42.0987 16.2788 41.9425 15.8371 41.758C14.2276 41.0732 12.7447 40.1229 11.45 38.9469C9.88672 37.5555 8.4985 36.0158 7.69239 34.0408C7.55547 33.6757 7.44064 33.3028 7.3485 32.9239C7.0961 32.0042 7.21441 31.1886 7.97951 30.5182C8.17492 30.3269 8.35876 30.1241 8.53006 29.9109C10.3174 35.0678 13.2168 39.0841 18.9763 40.4061C18.4226 40.9787 17.8673 41.5008 17.1985 41.8621ZM18.7949 39.2213C16.9287 38.9421 15.3733 38.0114 14.0056 36.7652C11.9548 34.8895 10.4751 32.6352 9.72266 29.9361C9.48762 29.0937 9.49235 29.0921 10.3537 29.0417C10.5114 29.0322 10.6692 29.0259 10.7402 29.0227C12.7767 29.0527 14.3684 29.9329 15.7771 31.1839C17.8058 32.987 19.1278 35.2492 19.9323 37.8252C19.9323 37.8442 19.9449 37.8631 19.9496 37.882C20.2289 39.1235 20.0049 39.4028 18.7949 39.2213Z" fill="white"/>
</svg>
