<svg width="50" height="42" viewBox="0 0 50 42" fill="none" xmlns="http://www.w3.org/2000/svg">
<path d="M46.0838 17.2858C44.5663 16.1042 42.8326 15.5505 40.8986 15.9339C39.3368 16.2383 38.0181 17.0555 36.8523 18.0998C33.5206 21.0829 30.5422 24.3925 27.7295 27.8662C27.1616 28.5697 26.57 29.2528 26.0984 30.0274C25.4248 31.1316 24.9341 32.3069 25.0256 33.6288C25.1187 34.9902 25.7923 36.1418 26.6031 37.1782C29.0798 40.368 31.7096 41.2324 35.3568 39.2195C36.7069 38.452 37.955 37.5176 39.0718 36.4384C41.6163 34.0406 44.4007 31.8999 46.7086 29.2465C48.2324 27.4907 49.1206 25.5078 49.1631 22.2076C49.1837 20.6522 47.9832 18.7671 46.0838 17.2858ZM40.4237 33.7929C38.821 35.241 37.2561 36.7365 35.4309 37.9118C34.3156 38.6295 33.1435 39.2085 31.992 39.2022C30.1336 39.2022 28.9694 38.3314 27.9661 37.1514C27.5533 36.628 27.1678 36.0836 26.8114 35.5203C25.8428 34.121 25.9233 32.6997 26.6536 31.2421C27.2973 29.9438 28.198 28.83 29.1777 27.7873C30.0816 26.8298 31.036 25.9211 31.9525 24.9746C32.3248 24.5913 32.7776 24.6591 33.2145 24.6906C34.5964 24.7828 35.9133 25.3114 36.9753 26.2003C39.1948 28.0034 40.5705 30.2656 40.6209 33.2061C40.6382 33.3125 40.6293 33.4216 40.5949 33.5239C40.5605 33.6261 40.5018 33.7184 40.4237 33.7929Z" fill="white"/>
<path d="M29.5765 0.670768C28.6979 0.312673 27.7719 0.183318 26.8348 0.0555395C24.9276 -0.20475 23.4164 0.457804 22.1827 1.87599C21.5296 2.63712 20.9795 3.48098 20.5468 4.38581C20.0499 5.40488 19.6177 6.46024 19.0608 7.44618C17.1678 10.7858 15.8743 14.3715 14.7195 18.0013C14.0964 19.9606 14.199 21.9609 15.3206 23.7924C17.8998 28.0059 24.6089 28.1905 27.693 24.1363C28.4366 23.1242 29.0483 22.0216 29.5134 20.855C30.8701 17.6227 31.8056 14.2453 32.9382 10.9356C33.407 9.61326 33.6605 8.22421 33.6891 6.82149C33.7601 3.63491 32.6306 1.917 29.5765 0.670768ZM31.7077 11.3127C31.3922 12.2592 31.061 13.2057 30.7691 14.1522C30.7319 14.2911 30.6616 14.419 30.5644 14.525C30.4672 14.631 30.3459 14.712 30.2107 14.7611C28.3808 15.5656 26.5035 15.5388 24.6184 15.0529C22.9983 14.6349 21.5486 13.8745 20.3828 12.6394C20.0799 12.3061 19.8153 11.9399 19.594 11.5477C19.2012 10.8899 19.1208 10.2762 19.4568 9.52061C20.1414 7.96519 20.6793 6.34508 21.4839 4.83855C21.9789 3.90026 22.5998 3.03407 23.3296 2.26406C24.325 1.22448 25.516 0.896354 26.9184 1.1109C28.1206 1.29208 29.2843 1.67164 30.3621 2.23408C31.8182 2.98813 32.5706 4.19493 32.599 5.83554C32.599 6.11003 32.599 6.38609 32.599 6.66216C32.6684 8.28542 32.2031 9.80299 31.7077 11.3127Z" fill="white"/>
<path d="M18.452 31.2199C17.5781 28.1102 15.663 25.3948 13.0269 23.528C11.8359 22.6667 10.5029 22.165 9.05789 21.8637C6.23099 21.2769 3.4672 24.23 3.78586 26.4211C3.86529 27.0427 4.01071 27.654 4.21968 28.2447C4.77023 29.7197 5.68203 30.9644 6.78787 32.2106L5.49274 32.4504C4.18025 32.6965 2.88035 32.9867 1.71773 33.6824C0.496731 34.4128 -0.132695 35.4587 0.0234791 36.9179C0.075537 37.4069 0.0991981 37.8975 0.140213 38.3881C0.220667 39.3346 0.586657 39.9956 1.56787 40.3711C3.18797 40.9895 4.82702 41.4943 6.54651 41.7104C9.33712 42.0606 12.0678 41.8255 14.7133 40.8175C15.928 40.3553 16.6252 39.4451 16.8918 38.1752C17.0496 37.3943 17.0117 36.6103 16.9786 35.8263C16.9629 35.7128 16.9784 35.5972 17.0234 35.4919C17.0685 35.3865 17.1413 35.2955 17.2341 35.2284C18.5529 34.1746 18.9079 32.7959 18.452 31.2199ZM1.56155 35.1258C1.97301 34.7608 2.45072 34.478 2.96872 34.2929C4.4153 33.7266 5.89658 33.3007 7.46305 33.2518C7.70125 33.2518 7.91736 33.2518 8.11612 33.4348C9.54377 34.7693 11.1134 35.9004 12.9386 36.6308C12.9638 36.6418 12.9733 36.6939 13.0111 36.7696C9.64631 37.6215 6.3446 37.5237 3.09177 36.3153C2.59801 36.1307 2.12945 35.8799 1.63727 35.6843C1.22081 35.5344 1.31704 35.3562 1.56155 35.1258ZM14.1627 39.9104C13.1682 40.3846 12.088 40.6529 10.9872 40.6992C8.23909 40.9023 5.47734 40.5871 2.84567 39.77C2.62166 39.6991 2.40713 39.6044 2.18628 39.5271C1.63415 39.3299 1.23975 39.0539 1.25237 38.3582C1.26656 37.8549 1.13881 37.347 1.07728 36.8406C1.08081 36.7685 1.09244 36.6971 1.11199 36.6276C3.43469 37.7601 5.97448 38.3778 8.55783 38.4386C11.1465 38.5001 13.6169 37.9796 15.898 36.6623C16.0526 38.2556 15.521 39.2368 14.1627 39.9104ZM14.7795 35.7947C14.341 36.0313 13.8599 35.8752 13.4182 35.6906C11.8087 35.0058 10.3257 34.0556 9.03109 32.8795C7.46777 31.4881 6.07955 29.9485 5.27344 27.9734C5.13652 27.6083 5.02169 27.2354 4.92956 26.8565C4.67715 25.9368 4.79547 25.1213 5.56056 24.4508C5.75598 24.2595 5.93982 24.0567 6.11111 23.8435C7.89843 29.0004 10.7979 33.0167 16.5574 34.3387C16.0037 34.9113 15.4484 35.4335 14.7795 35.7947ZM16.376 33.154C14.5098 32.8747 12.9544 31.944 11.5866 30.6978C9.53588 28.8221 8.05619 26.5678 7.30372 23.8687C7.06867 23.0263 7.0734 23.0248 7.93472 22.9743C8.09247 22.9648 8.25022 22.9585 8.32121 22.9553C10.3578 22.9853 11.9495 23.8656 13.3582 25.1165C15.3869 26.9196 16.7088 29.1818 17.5134 31.7579C17.5134 31.7768 17.526 31.7957 17.5307 31.8147C17.8099 33.0562 17.5859 33.3354 16.376 33.154Z" fill="white"/>
</svg>
