<svg width="53" height="53" viewBox="0 0 53 53" fill="none" xmlns="http://www.w3.org/2000/svg">
<path d="M26.5446 44.1663C24.0948 44.1663 21.7989 43.7055 19.6568 42.7839C17.5147 41.8623 15.6435 40.6006 14.0432 38.9988C12.4429 37.3971 11.1812 35.5259 10.2582 33.3853C9.33507 31.2446 8.875 28.9495 8.87794 26.4997C8.88089 24.0499 9.34169 21.7547 10.2604 19.6141C11.179 17.4735 12.4407 15.6023 14.0454 14.0005C15.6502 12.3987 17.5199 11.137 19.6546 10.2154C21.7893 9.29381 24.0853 8.83301 26.5424 8.83301C29.079 8.83301 31.495 9.35712 33.7901 10.4053C36.0853 11.4521 38.0861 12.9125 39.7924 14.7867V9.51317H42.0007C42.0007 9.51317 43.6342 18.9509 43.3264 19.6141C43.0186 20.2773 33.3081 18.3024 32.8295 18.6866V16.4783H38.3062C36.7692 14.7852 34.9952 13.4558 32.9841 12.49C30.976 11.5242 28.8295 11.0413 26.5446 11.0413C22.2369 11.0413 18.5836 12.5415 15.5847 15.5419C12.5857 18.5423 11.0855 22.1949 11.0841 26.4997C11.0826 30.8045 12.5828 34.4578 15.5847 37.4596C18.5865 40.4615 22.2391 41.961 26.5424 41.958C30.407 41.958 33.7703 40.6993 36.6323 38.1818C39.4943 35.6643 41.2241 32.5063 41.8219 28.708H44.0567C43.5326 33.1556 41.604 36.8435 38.2709 39.7718C34.9377 42.7015 31.029 44.1663 26.5446 44.1663ZM33.492 35.0106L25.4382 26.959V15.458H27.6466V26.0403L35.0533 33.4471L33.492 35.0106Z" fill="white" stroke="white" stroke-width="0.2"/>
</svg>
