<svg width="36" height="36" viewBox="0 0 36 36" fill="none" xmlns="http://www.w3.org/2000/svg">
<path d="M17.7663 35.4329C15.3165 35.4329 13.0206 34.9721 10.8785 34.0505C8.73641 33.1289 6.86522 31.8672 5.26492 30.2654C3.66461 28.6637 2.40292 26.7925 1.47983 24.6519C0.556748 22.5112 0.096679 20.2161 0.0996234 17.7663C0.102568 15.3165 0.563373 13.0213 1.48204 10.8807C2.40071 8.74008 3.6624 6.86889 5.26712 5.26711C6.87185 3.66533 8.74157 2.40364 10.8763 1.48203C13.011 0.560415 15.3069 0.0996094 17.7641 0.0996094C20.3007 0.0996094 22.7166 0.62372 25.0118 1.67194C27.307 2.71869 29.3078 4.17914 31.0141 6.05328V0.779776H33.2224C33.2224 0.779776 34.8559 10.2175 34.5481 10.8807C34.2403 11.5439 24.5297 9.56897 24.0512 9.95319V7.74486H29.5279C27.9909 6.0518 26.2168 4.72239 24.2058 3.75661C22.1977 2.79083 20.0512 2.30794 17.7663 2.30794C13.4586 2.30794 9.80525 3.80814 6.80633 6.80853C3.80742 9.80892 2.30722 13.4615 2.30575 17.7663C2.30428 22.0711 3.80447 25.7244 6.80633 28.7262C9.80819 31.7281 13.4608 33.2276 17.7641 33.2246C21.6287 33.2246 24.992 31.9659 27.854 29.4484C30.716 26.9309 32.4458 23.7729 33.0435 19.9746H35.2784C34.7543 24.4222 32.8256 28.1101 29.4925 31.0384C26.1594 33.9681 22.2507 35.4329 17.7663 35.4329ZM24.7137 26.2772L16.6599 18.2256V6.72461H18.8682V17.3069L26.275 24.7137L24.7137 26.2772Z" fill="white" stroke="white" stroke-width="0.2"/>
</svg>
