<svg width="134" height="136" viewBox="0 0 134 136" fill="none" xmlns="http://www.w3.org/2000/svg">
<ellipse cx="67" cy="68.5" rx="67" ry="67.5" fill="#E5F7FF"/>
<circle cx="34.5" cy="39.5" r="4" fill="white" stroke="#99D4EE"/>
<circle cx="109.5" cy="75.5" r="2.25" fill="white" stroke="#99D4EE" stroke-width="0.5"/>
<g filter="url(#filter0_f_3087_18442)">
<ellipse cx="60" cy="120.5" rx="26" ry="2.5" fill="#5BB4DB" fill-opacity="0.21"/>
</g>
<g clip-path="url(#clip0_3087_18442)">
<path d="M96.7474 83.6017L90.8635 108.63C90.2104 111.41 88.6608 113.91 86.4097 115.643C82.8379 118.395 76.3379 120.766 64.8973 118.238L64.88 118.234C53.519 115.317 48.7623 110.254 46.7945 106.176C45.5533 103.609 45.2831 100.674 45.9362 97.8943L51.8201 72.8658C53.2661 66.7139 55.1682 61.3094 59.1532 58.8318C60.9901 57.6868 62.6727 56.3077 64.1596 54.7287C64.8887 53.9532 65.4018 52.9974 65.6469 51.9579L68.2446 40.9067C68.9237 38.018 75.7542 37.1769 83.5 39.0279C91.2459 40.8789 96.9755 44.7215 96.2964 47.6098L93.6987 58.6594C93.4551 59.6993 93.4881 60.7857 93.7944 61.8086C94.4201 63.8926 95.3099 65.8865 96.4417 67.7409C98.8996 71.7602 98.1934 77.4498 96.7474 83.6017Z" fill="#75D9FC"/>
<g opacity="0.46">
<path d="M90.6093 44.0693C90.6093 44.0693 87.4936 41.9971 85.564 41.9971C83.6343 41.9971 83.8683 43.7003 85.3036 44.36C86.7389 45.0196 89.3701 46.1729 90.6093 47.4222C91.8485 48.6716 93.4292 47.1267 92.8545 45.9453C92.2798 44.7638 90.6093 44.0693 90.6093 44.0693Z" fill="white"/>
</g>
<g style="mix-blend-mode:color-burn" opacity="0.19">
<path d="M71.3035 43.9713C71.3035 43.9713 68.7432 41.9031 72.9464 40.562C72.9464 40.562 75.9656 40.118 78.8292 40.3205C79.054 40.3352 79.2727 40.4007 79.469 40.5122C79.6653 40.6238 79.8341 40.7784 79.9631 40.9647C80.092 41.151 80.1776 41.3642 80.2136 41.5885C80.2497 41.8127 80.2351 42.0423 80.1712 42.2601L78.6141 47.5109C78.6141 47.5109 75.0813 47.0856 74.7079 46.7087" fill="#000462"/>
</g>
<g opacity="0.46">
<path d="M72.3891 46.1714C72.6715 46.4561 74.0765 47.252 75.2487 47.5526C75.4767 47.6112 75.6731 47.7568 75.7965 47.9588C75.9198 48.1608 75.9604 48.4032 75.9097 48.6348L73.9568 57.0384C73.9081 57.2638 73.7771 57.4625 73.5897 57.595C73.4024 57.7274 73.1724 57.7839 72.9456 57.7532C72.0917 57.6388 70.9419 56.7274 69.3805 56.0058C69.1819 55.9143 69.0225 55.7539 68.9312 55.5538C68.8399 55.3538 68.8228 55.1274 68.883 54.9157L71.4508 46.5832C71.6005 46.059 72.0078 45.787 72.3891 46.1714Z" fill="white"/>
</g>
<path d="M73.8598 120.001C71.2322 120.001 68.2134 119.683 64.7503 118.918L64.7223 118.911C52.8823 115.871 48.1024 110.474 46.1751 106.481C44.8887 103.82 44.5661 100.712 45.266 97.7346L51.15 72.7065C52.5388 66.7977 54.426 60.9559 58.7915 58.2408C60.5776 57.1274 62.2137 55.7862 63.6592 54.2505C64.3046 53.5633 64.7591 52.7168 64.9768 51.7962L67.5745 40.7482C68.3662 37.3805 75.2814 36.3516 83.6598 38.3539C92.0383 40.3562 97.7592 44.4049 96.9678 47.7721L94.3701 58.8218C94.1548 59.7427 94.184 60.7045 94.4548 61.6104C95.0631 63.6366 95.9283 65.5751 97.0289 67.3779C99.7216 71.7792 98.8077 77.8537 97.4185 83.7625L91.5345 108.791C90.8346 111.769 89.1633 114.398 86.8287 116.195C84.3484 118.108 80.2712 120.001 73.8598 120.001ZM75.7662 38.7407C71.8529 38.7407 69.2414 39.6851 68.9157 41.0687L66.3184 52.1183C66.045 53.2769 65.4732 54.3422 64.6609 55.2067C63.1329 56.8299 61.4035 58.2473 59.5155 59.4238C55.5663 61.8793 53.7485 67.6781 52.4912 73.0266L46.6072 98.0535C45.9805 100.719 46.2673 103.494 47.4147 105.871C49.2144 109.6 53.7347 114.654 65.0508 117.56C76.441 120.076 82.7263 117.605 85.9917 115.089C88.0746 113.486 89.5666 111.135 90.1933 108.469L96.0773 83.4404C97.3346 78.0919 98.2913 72.0874 95.8559 68.1058C94.6928 66.2004 93.7786 64.1515 93.1361 62.0099C92.7956 60.8701 92.7591 59.6599 93.0301 58.5013L95.6278 47.4517C96.1344 45.2977 91.2135 41.5869 83.3431 39.7077C80.5272 39.0338 77.9449 38.7407 75.7655 38.7407H75.7662Z" fill="#401B56"/>
<path d="M89.3449 43.2968C91.0288 43.9266 93.3457 44.9858 94.074 46.7629C94.3891 47.5909 94.0161 48.5015 93.3008 48.9725C92.5102 49.5337 91.6188 49.733 90.7097 49.8859C89.8477 50.0145 88.9771 50.0754 88.1057 50.0682C83.119 49.9927 77.6471 48.654 73.2954 46.1716C71.9227 45.3217 69.5002 43.7491 70.1494 41.8032C71.1684 39.5523 75.6639 39.928 77.6794 40.262C77.7036 40.2663 77.7253 40.2795 77.7404 40.2991C77.7555 40.3187 77.7628 40.3432 77.761 40.3679C77.7592 40.3926 77.7483 40.4157 77.7306 40.4329C77.7128 40.45 77.6894 40.4598 77.6648 40.4605C76.8223 40.484 75.9853 40.5133 75.1593 40.5983C74.0241 40.7175 70.2132 41.175 71.2058 42.9636C71.8018 43.9473 72.8523 44.6014 73.8559 45.1875C74.5734 45.5868 75.3133 45.9438 76.0719 46.2566C79.1206 47.5187 82.384 48.3383 85.6569 48.7327C87.6874 48.9459 89.7534 49.0802 91.7126 48.5655C93.6777 48.0127 93.5958 46.9992 92.2593 45.6839C91.3691 44.8166 90.3221 44.1423 89.261 43.4755C89.1574 43.4179 89.2409 43.2547 89.3453 43.296L89.3449 43.2968Z" fill="#401B56"/>
<path d="M67.2771 47.3678C68.2019 49.2375 71.7335 53.3958 85.1294 55.8099C85.2626 55.8337 85.3897 55.8846 85.5027 55.9595C85.6158 56.0345 85.7124 56.1319 85.7869 56.2459C85.8613 56.3598 85.9118 56.4879 85.9355 56.6222C85.9591 56.7565 85.9553 56.8943 85.9243 57.0271C85.869 57.2635 85.7304 57.4715 85.5342 57.6125C85.338 57.7534 85.0977 57.8176 84.858 57.7931C82.0094 57.4989 72.7529 56.1228 66.0426 50.2787C65.2828 49.4908 64.9968 48.5977 65.0299 47.8519C65.0843 46.6256 66.7331 46.2681 67.2771 47.3678Z" fill="#75D9FC"/>
<g opacity="0.35">
<path d="M69.998 50.9146C69.998 50.9146 68.8797 51.4014 69.3158 52.6428L70.8539 53.6436L73.697 55.0248L74.2485 55.0621C74.2485 55.0621 73.3551 53.8529 74.5762 53.3041" fill="white"/>
</g>
<path d="M84.9574 58.3937C84.9038 58.3938 84.8501 58.3911 84.7967 58.3857C82.0422 58.1014 72.5215 56.7095 65.6556 50.7295C65.6422 50.7184 65.63 50.7065 65.6162 50.6942C64.8107 49.8602 64.392 48.84 64.4369 47.8253C64.4551 47.4292 64.603 47.0503 64.8575 46.748C65.112 46.4456 65.4587 46.2368 65.8434 46.1541C66.2281 46.0715 66.6291 46.1197 66.9837 46.2912C67.3384 46.4628 67.6266 46.7479 67.8034 47.1022C68.6164 48.7463 71.9425 52.8287 85.2308 55.2238C85.6206 55.2936 85.9704 55.5081 86.2113 55.825C86.4521 56.1419 86.5665 56.5383 86.5319 56.936C86.4973 57.3337 86.3162 57.7039 86.0244 57.9737C85.7325 58.2435 85.351 58.3933 84.9551 58.3937H84.9574ZM66.4481 49.8455C73.0513 55.5824 82.2522 56.9255 84.9169 57.2003C85.0141 57.2098 85.1114 57.1836 85.191 57.1265C85.2706 57.0695 85.3271 56.9854 85.3501 56.8897C85.3629 56.8363 85.3645 56.7808 85.355 56.7267C85.3455 56.6726 85.3251 56.621 85.295 56.5752C85.2648 56.5284 85.2253 56.4883 85.179 56.4575C85.1327 56.4268 85.0806 56.406 85.026 56.3965C71.7073 53.9963 67.8582 49.8761 66.7494 47.6335C66.5607 47.2523 66.2007 47.296 66.0959 47.319C65.9911 47.342 65.6402 47.4493 65.6209 47.8786C65.5894 48.5445 65.8915 49.2602 66.4481 49.8455Z" fill="#401B56"/>
<path d="M66.1723 52.6292C66.1092 53.0176 66.3503 53.6673 66.5973 54.0688C67.4757 55.5381 68.9709 56.631 70.409 57.5448C71.287 58.1079 72.4277 58.6866 73.3663 59.1528C73.4758 59.2004 73.4128 59.3823 73.2923 59.3367L72.018 58.8601C71.6513 58.7326 71.1243 58.4832 70.7576 58.3323C70.598 58.2668 70.288 58.1246 70.136 58.0444C68.0878 57.0615 64.8504 55.1029 64.8047 52.5172C64.8189 51.4807 66.3286 51.6038 66.1707 52.628L66.1723 52.6292Z" fill="#401B56"/>
<path d="M93.6832 82.8692L88.0478 106.841C87.5514 108.95 86.3788 110.805 84.7477 112.062C81.8979 114.256 76.3129 116.387 65.865 114.087C55.4946 111.415 51.4485 106.982 49.8793 103.729C48.9792 101.867 48.7567 99.6784 49.2526 97.5696L54.8896 73.5987C56.0318 68.745 57.6263 63.5165 60.8101 61.5348C60.9571 61.4435 61.1 61.3529 61.2434 61.2608L61.2647 61.2477C66.5499 58.0865 70.9084 62.6376 73.9035 67.4857C74.8572 69.0429 75.9862 70.4837 77.2681 71.7795C77.5104 71.8513 77.753 71.9216 77.9941 71.9895C80.9368 72.0499 83.351 71.0611 84.793 70.2755C85.4871 69.8967 86.124 69.4265 86.7231 68.911C89.244 66.7507 91.915 66.956 93.4906 69.2077C93.5205 69.1743 96.2025 71.9486 93.6832 82.8692Z" fill="url(#paint0_linear_3087_18442)"/>
<path d="M95.8719 81.1396C90.1302 83.929 74.6223 80.6964 64.6674 75.5588C64.4387 75.44 64.1861 75.3752 63.9288 75.3696C63.6716 75.3639 63.4164 75.4174 63.1827 75.526C62.949 75.6346 62.7429 75.7954 62.5801 75.9963C62.4173 76.1972 62.302 76.4329 62.243 76.6854L56.8144 99.7783C56.6894 100.301 56.7149 100.85 56.888 101.359C57.0611 101.868 57.3746 102.317 57.7917 102.652C64.8758 108.299 81.3019 111.23 88.7271 109.423C89.3511 109.269 89.9208 108.945 90.3731 108.486C90.8254 108.026 91.1427 107.449 91.2898 106.819L97.0993 82.107C97.2324 81.4005 96.5144 80.8271 95.8719 81.1396Z" fill="#F4F2F4"/>
<g opacity="0.46">
<path d="M67.941 58.6511C67.5558 58.5788 67.1577 58.658 66.8286 58.8723C65.6075 59.669 63.0043 62.0855 61.5843 65.689C59.88 70.0133 58.1366 74.8995 58.1366 74.8995L52.8403 96.5044C52.8403 96.5044 50.427 102.713 54.0389 105.011C57.6509 107.309 59.9843 106.476 61.4272 102.225C62.87 97.9734 66.9495 76.7605 66.9495 76.7605L71.5187 61.4584C71.6066 61.1649 71.6044 60.8514 71.5125 60.5591C71.4207 60.2668 71.2434 60.0092 71.0039 59.8203C70.4768 59.4061 69.5559 58.9549 67.941 58.6511Z" fill="white"/>
</g>
<path d="M83.3715 110.648C74.9588 110.648 63.1365 107.8 57.3632 103.198C56.3084 102.357 55.8271 100.952 56.1422 99.6178L61.5712 76.5249C61.6545 76.1701 61.8168 75.839 62.0458 75.5568C62.2747 75.2745 62.5644 75.0485 62.8928 74.8958C63.2212 74.743 63.5798 74.6677 63.9414 74.6753C64.303 74.683 64.6582 74.7735 64.9799 74.94C69.746 77.3998 76.0991 79.53 81.9748 80.6388C88.0801 81.7904 93.036 81.7452 95.5711 80.5133C95.8299 80.3871 96.1184 80.3363 96.4042 80.3666C96.6901 80.3969 96.9618 80.5071 97.1888 80.6848C97.4203 80.8629 97.5979 81.1026 97.7014 81.377C97.805 81.6513 97.8304 81.9494 97.7749 82.2376C97.773 82.2475 97.7706 82.2574 97.7682 82.267L91.9591 106.979C91.7848 107.735 91.405 108.428 90.8624 108.978C90.3197 109.529 89.6356 109.917 88.8868 110.098C87.3597 110.47 85.4717 110.648 83.3715 110.648ZM63.892 76.0647C63.6654 76.0647 63.4454 76.1419 63.2677 76.2836C63.09 76.4254 62.9649 76.6235 62.9128 76.8458L57.4838 99.9383C57.3897 100.333 57.4088 100.746 57.5389 101.13C57.669 101.514 57.9046 101.853 58.2184 102.107C61.3963 104.641 66.8816 106.844 73.2674 108.152C79.21 109.369 85.0712 109.597 88.5642 108.748C89.0651 108.626 89.5225 108.366 89.8853 107.998C90.2481 107.629 90.5019 107.165 90.6183 106.659L96.4227 81.9668C96.428 81.9329 96.4238 81.8982 96.4108 81.8665C96.3977 81.8348 96.3762 81.8074 96.3487 81.7872C96.3244 81.7662 96.2945 81.7529 96.2626 81.7492C96.2309 81.7454 96.1987 81.7513 96.1702 81.7662C92.3448 83.6247 85.4761 82.7141 81.7219 82.0045C75.6335 80.8556 69.3025 78.7318 64.3513 76.1766C64.2091 76.1032 64.0517 76.0648 63.892 76.0647Z" fill="#401B56"/>
<path d="M74.1102 99.4037C73.8171 94.4424 78.7222 87.9407 83.6577 86.5483C83.6577 86.5483 81.6942 88.1766 81.8493 91.4223C81.9734 94.0191 85.2278 100.352 81.5646 103.026C78.5789 105.206 74.33 103.114 74.1102 99.4037Z" fill="url(#paint1_linear_3087_18442)"/>
<path d="M94.0977 60.1939C92.8392 61.4425 90.9395 61.7653 89.2528 61.5402C89.2282 61.5376 89.2055 61.5259 89.1891 61.5073C89.1726 61.4887 89.1637 61.4645 89.1641 61.4396C89.1644 61.4147 89.174 61.3908 89.1909 61.3727C89.2079 61.3545 89.231 61.3435 89.2556 61.3416C90.6504 61.1732 92.12 60.6188 92.955 59.4354C93.447 58.6074 94.6488 59.3818 94.0973 60.1939H94.0977Z" fill="#401B56"/>
<g style="mix-blend-mode:color-burn" opacity="0.19">
<path d="M78.2649 72.9242C77.9072 72.6121 77.5606 72.2864 77.2246 71.9509C80.5128 72.2205 83.2232 71.1276 84.7897 70.2754C85.4837 69.8965 86.1207 69.4263 86.7217 68.9109C89.72 66.3419 92.9299 67.117 94.2588 70.7015C95.5378 77.7084 87.1771 80.7063 78.2649 72.9242Z" fill="#000462"/>
</g>
<g style="mix-blend-mode:color-burn" opacity="0.19">
<path d="M83.5223 115.1C80.9025 116.53 77.8045 117.284 74.9023 117.418C81.8041 116.053 87.0992 91.1201 87.0992 91.1201C87.0992 91.1201 90.7258 74.5786 90.0301 71.0044C89.7564 69.6002 89.3444 68.0041 88.9442 66.584C88.171 63.8387 86.6679 58.5506 87.0488 55.723L87.6573 51.2049C87.6786 51.0508 87.7568 50.9105 87.8763 50.812C87.9958 50.7136 88.1477 50.6643 88.3017 50.674C90.6797 50.8134 92.1544 50.4313 93.0202 50.0358C93.1126 49.993 93.2151 49.9772 93.316 49.9903C93.4169 50.0034 93.5121 50.0448 93.5907 50.1098C93.6694 50.1748 93.7284 50.2608 93.7609 50.3579C93.7935 50.4551 93.7983 50.5595 93.7749 50.6593L92.2418 57.2118C91.9495 58.4614 91.8839 59.7539 92.0481 61.027C92.3096 63.05 93.004 66.1007 94.8364 68.995C94.8364 68.995 96.8039 71.8301 96.0523 78.4768C95.5722 82.7209 90.751 100.95 88.8835 108.124C88.1111 111.088 86.1948 113.641 83.5223 115.1Z" fill="#000462"/>
</g>
<path d="M94.8017 53.9724C90.0722 54.7774 83.174 53.3568 80.9836 52.8557C80.8925 52.8345 80.8065 52.7955 80.7304 52.7407C80.6544 52.6859 80.5898 52.6165 80.5405 52.5365C80.4911 52.4565 80.458 52.3674 80.4429 52.2744C80.4278 52.1815 80.4311 52.0864 80.4526 51.9947C80.4922 51.8268 80.5908 51.679 80.7301 51.5786C80.8694 51.4782 81.04 51.4321 81.2104 51.4486C87.1413 52.0384 92.8488 52.8684 95.5761 50.8438C95.7828 50.6849 96.0417 50.611 96.3004 50.6369C97.6404 50.8021 97.1851 53.3457 94.8017 53.9724Z" fill="#75D9FC"/>
<g style="mix-blend-mode:color-burn" opacity="0.19">
<path d="M93.7145 51.8428C93.7145 51.8428 94.2805 53.1092 93.5443 53.9499L88.8617 54.1008L87.9688 53.8709C87.9688 53.8709 88.9413 53.0512 87.9688 52.0707L90.4688 51.8428" fill="#000462"/>
</g>
<path d="M91.5777 54.8081C87.2492 54.8081 82.4815 53.8105 80.8532 53.4376C80.5322 53.3624 80.2516 53.167 80.068 52.8911C79.8844 52.6152 79.8117 52.2793 79.8644 51.9514C79.9172 51.6234 80.0915 51.3279 80.3521 51.1246C80.6127 50.9213 80.9402 50.8254 81.2683 50.8563C81.825 50.9119 82.3789 50.9685 82.9298 51.0262C88.0768 51.5592 92.9378 52.0631 95.2263 50.3646C95.554 50.1151 95.9639 50.0014 96.3721 50.0469C97.0858 50.1339 97.5798 50.6823 97.6306 51.4393C97.7074 52.585 96.7944 54.0643 94.9521 54.55C94.9352 54.5543 94.9183 54.5579 94.9009 54.5611C93.8709 54.7362 92.74 54.8081 91.5777 54.8081ZM81.1415 52.0429C81.1153 52.0432 81.0899 52.0523 81.0693 52.0688C81.0488 52.0852 81.0343 52.1081 81.0281 52.1338C81.021 52.1643 81.0262 52.1963 81.0424 52.223C81.0586 52.2497 81.0846 52.2689 81.1147 52.2764C83.1236 52.7359 90.0265 54.1727 94.6772 53.3911C95.9499 53.0452 96.4891 52.0727 96.4517 51.5203C96.434 51.255 96.3059 51.2395 96.2295 51.23C96.1203 51.2227 96.0124 51.2567 95.9266 51.3253C93.271 53.2962 88.1894 52.77 82.81 52.2125C82.2612 52.1555 81.7091 52.0992 81.1537 52.0433L81.1415 52.0429Z" fill="#401B56"/>
<path d="M85.9668 8.15291C85.9668 8.15291 97.3243 0.932358 100.59 0.705996C103.979 0.470897 107.331 4.15186 107.309 8.19857C107.289 11.7727 99.2461 17.4441 94.218 20.7831" fill="#939393"/>
<g opacity="0.46">
<path d="M88.3008 8.74246C88.3008 8.74246 97.4603 2.62672 99.8666 2.49607C102.273 2.36541 102.092 4.909 101.101 5.56704C100.11 6.22508 91.4058 11.6165 91.4058 11.6165" fill="white"/>
</g>
<g style="mix-blend-mode:color-burn" opacity="0.19">
<path d="M93.1211 14.3679C93.1211 14.3679 103.244 7.95237 104.778 4.71777C104.778 4.71777 106.661 7.02786 105.501 9.2605C104.34 11.4931 95.1839 18.2788 95.1839 18.2788" fill="#000462"/>
</g>
<path d="M94.2207 21.4784C94.0723 21.4786 93.9278 21.4305 93.8087 21.3413C93.6896 21.2521 93.6022 21.1265 93.5596 20.9832C93.5169 20.8399 93.5213 20.6866 93.572 20.546C93.6227 20.4054 93.717 20.2851 93.841 20.2029C102.31 14.5795 106.609 10.5396 106.622 8.19535C106.632 6.25658 105.777 4.28326 104.333 2.91675C103.207 1.85126 101.891 1.31236 100.639 1.39933C98.1029 1.57526 89.4546 6.76053 86.3365 8.741C86.26 8.78971 86.1746 8.82274 86.0854 8.8382C85.9962 8.85367 85.9049 8.85126 85.8166 8.83113C85.7283 8.811 85.6448 8.77352 85.5708 8.72086C85.4969 8.66819 85.434 8.60135 85.3857 8.52417C85.3374 8.44699 85.3046 8.36096 85.2893 8.27101C85.2739 8.18107 85.2763 8.08895 85.2963 7.99993C85.3163 7.91091 85.3534 7.82673 85.4057 7.75219C85.4579 7.67765 85.5242 7.61422 85.6007 7.56551C86.7785 6.81692 97.202 0.244487 100.544 0.0129626C102.188 -0.101013 103.868 0.568939 105.277 1.90368C106.995 3.52991 108.013 5.88487 108 8.2029C107.984 11.121 103.726 15.3027 94.5992 21.3637C94.4869 21.4384 94.3553 21.4783 94.2207 21.4784Z" fill="#401B56"/>
<path d="M79.3338 6.32005L71.4331 11.5661C68.0685 13.8007 69.119 20.0646 73.0307 26.0505C76.9425 32.0364 82.234 35.4838 85.599 33.2496L93.4989 28.0031C96.8635 25.7685 96.0911 19.322 92.1794 13.3341C88.2676 7.34622 82.6984 4.08542 79.3338 6.32005Z" fill="url(#paint2_linear_3087_18442)"/>
<g style="mix-blend-mode:color-burn" opacity="0.19">
<path d="M92.0336 14.2417L85.8459 18.3504C85.5682 18.5346 85.3639 18.8118 85.2691 19.1331C85.1743 19.4544 85.195 19.7991 85.3276 20.1065C88.4968 27.4279 88.563 32.7851 81.5332 33.652L85.5997 33.2493L94.029 27.5847L95.4242 25.0431L95.8575 20.9003L93.7186 16.0319" fill="#000462"/>
</g>
<g style="mix-blend-mode:color-burn" opacity="0.19">
<path d="M72.4386 20.2981C72.4386 20.2981 71.0561 17.0416 72.3744 15.0115C73.6928 12.9814 76.5776 14.3896 76.5776 14.3896L78.72 15.9571" fill="#000462"/>
</g>
<g opacity="0.46">
<path d="M83.7483 6.49953C83.7483 6.49953 82.3724 6.03171 81.7938 6.32757C81.2151 6.62343 76.2084 10.0411 76.1548 10.302C76.1012 10.5629 75.2118 11.4763 77.4464 12.9628C79.6809 14.4492 81.1856 12.7789 81.1856 12.7789L87.7478 8.48635" fill="white"/>
</g>
<path d="M83.2757 34.6242C82.007 34.6242 80.6122 34.1913 79.1694 33.3315C76.8383 31.9416 74.4541 29.4925 72.4551 26.433C70.4561 23.3736 69.1653 20.1981 68.8199 17.4897C68.439 14.5053 69.2323 12.1949 71.0544 10.986L78.9559 5.73958C82.569 3.33975 88.503 6.44051 92.7567 12.9518C97.0103 19.4631 97.4936 26.1836 93.88 28.5835L85.9797 33.8299C85.1794 34.3605 84.2659 34.6242 83.2757 34.6242ZM79.7125 6.90038L71.8123 12.1468C70.0717 13.3028 69.9677 15.5939 70.1871 17.3122C70.5065 19.8141 71.7209 22.7819 73.6064 25.6682C75.492 28.5545 77.7171 30.8515 79.8693 32.135C81.3488 33.017 83.4778 33.8251 85.2184 32.6691L93.1202 27.4227C96.0287 25.491 95.363 19.4706 91.6041 13.7167C87.8452 7.96269 82.6234 4.96876 79.7125 6.90038Z" fill="#401B56"/>
<path d="M71.7133 16.7676C71.6826 14.0696 73.708 12.7344 76.2305 13.456C78.2834 14.0378 80.0173 15.448 81.4539 16.9678C83.7944 19.5467 85.5109 22.7956 85.9418 26.2915C86.2247 28.436 85.6185 31.368 83.0503 31.6313C81.5898 31.7552 80.2891 31.0519 79.1713 30.2302C79.1484 30.2124 79.133 30.1867 79.1281 30.1581C79.1231 30.1295 79.129 30.1 79.1445 30.0755C79.16 30.051 79.184 30.0332 79.2119 30.0257C79.2397 30.0182 79.2693 30.0214 79.2949 30.0348C79.883 30.3406 80.4857 30.613 81.1068 30.7774C84.2883 31.6356 85.2068 29.2112 84.7019 26.4627C84.373 24.5636 83.5643 22.7789 82.5926 21.1197C81.2664 18.9391 79.6234 16.8538 77.5291 15.4011C75.2607 13.8174 72.633 13.4878 71.9414 16.7911C71.9158 16.9273 71.7102 16.9019 71.7129 16.7672L71.7133 16.7676Z" fill="#401B56"/>
<path d="M70.9954 11.0296C73.9429 9.06863 77.3564 9.67425 79.6154 12.3481C79.6942 12.4367 79.5661 12.5705 79.4763 12.4887C78.386 11.5324 77.0606 10.808 75.6044 10.754C74.247 10.6961 72.8893 11.2159 71.8715 12.1043C71.1294 12.8088 70.1655 11.6349 70.9954 11.032V11.0296Z" fill="#401B56"/>
<path d="M84.291 23.168L57.8045 40.7559C56.4704 41.6475 55.0032 42.3179 53.4587 42.7415C53.0152 42.8606 52.5374 42.9734 52.0352 43.0648C50.8342 43.2828 49.6628 43.6438 48.5646 44.1803L41.1772 47.791C40.9222 47.9156 40.6311 47.9424 40.3579 47.8666C40.0848 47.7908 39.8483 47.6174 39.6926 47.3787C39.5331 47.1346 39.4693 46.8393 39.5138 46.5504C39.5583 46.2615 39.7078 45.9996 39.9333 45.8157L45.8515 40.9862C46.8654 40.1594 47.7654 39.1948 48.485 38.0983C48.7651 37.671 49.0542 37.2747 49.3378 36.9125C50.3333 35.649 51.5231 34.5545 52.862 33.6704L79.3468 16.082C81.5625 17.794 83.6245 21.0108 84.291 23.168Z" fill="#75D9FC"/>
<g style="mix-blend-mode:color-burn" opacity="0.19">
<path d="M79.7918 17.3242L76.5859 19.4532C76.5859 19.4532 79.9049 23.44 78.1883 25.6988L83.867 21.9261L81.3642 18.095" fill="#000462"/>
</g>
<path d="M40.6724 48.6012C40.2881 48.6024 39.9129 48.4832 39.5986 48.2602C39.2843 48.0372 39.0464 47.7214 38.9177 47.3562C38.789 46.9911 38.7759 46.5947 38.8802 46.2218C38.9844 45.8488 39.2009 45.5177 39.4998 45.2741L45.4173 40.4474C46.4166 39.6321 47.2548 38.7132 47.909 37.716C48.1812 37.3018 48.4794 36.8868 48.7961 36.4829C49.8368 35.1609 51.0811 34.0159 52.4817 33.0915L78.967 15.5031C79.0864 15.4238 79.2274 15.384 79.3703 15.3891C79.5132 15.3942 79.6511 15.4441 79.7646 15.5317C82.1378 17.3617 84.2636 20.7464 84.9482 22.9612C84.9926 23.1051 84.9894 23.2598 84.939 23.4017C84.8886 23.5437 84.7938 23.6653 84.6689 23.7483L58.1841 41.3366C56.7885 42.2687 55.2537 42.9691 53.6382 43.4112C53.143 43.5458 52.6444 43.6586 52.1575 43.7471C50.966 43.9636 49.8584 44.319 48.8654 44.8043L41.4783 48.4146C41.2272 48.5375 40.9516 48.6013 40.6724 48.6012ZM79.3042 16.9431L53.2399 34.2519C51.9625 35.0951 50.8274 36.1393 49.8777 37.3447C49.585 37.718 49.3097 38.0992 49.0588 38.4832C48.3265 39.5988 47.3934 40.623 46.2842 41.528L40.3668 46.3547C40.2752 46.4291 40.214 46.5349 40.1949 46.652C40.1758 46.769 40.2002 46.889 40.2632 46.9891C40.3263 47.0892 40.4238 47.1623 40.5369 47.1946C40.6501 47.2269 40.7711 47.216 40.8769 47.164L48.2643 43.5537C49.3704 43.0133 50.5981 42.6177 51.9133 42.379C52.3623 42.2996 52.822 42.1932 53.2797 42.0689C54.7532 41.6654 56.153 41.0262 57.4258 40.1758L83.4621 22.8857C82.7594 21.0506 81.1161 18.5002 79.3042 16.9431Z" fill="#401B56"/>
<path d="M53.5552 35.2119L61.8738 29.6875C61.8738 29.6875 64.8946 33.0234 68.9832 31.3332L56.7497 39.4572C52.6284 42.2061 48.5355 38.5454 53.5552 35.2119Z" fill="url(#paint3_linear_3087_18442)"/>
<path d="M37.6576 52.6761C37.8691 51.7694 36.8737 51.0673 36.1088 51.5899C34.1346 52.9401 31.4652 55.448 30.7944 59.4379C29.697 65.9655 37.4043 65.1899 37.5619 61.8409C37.6974 58.9701 36.6626 56.9392 37.6576 52.6761Z" fill="url(#paint4_linear_3087_18442)"/>
<path d="M34.179 65.0646C33.219 65.0646 32.2847 64.7794 31.5627 64.2242C30.8116 63.6468 29.6244 62.2422 30.1156 59.3217C30.8183 55.1412 33.5527 52.4967 35.7226 51.0146C36.0067 50.8214 36.3421 50.7191 36.6848 50.7212C37.0276 50.7234 37.3617 50.8298 37.6434 51.0266C37.9251 51.2234 38.1414 51.5013 38.2638 51.8241C38.3862 52.1469 38.409 52.4994 38.3294 52.8355C37.7165 55.4605 37.9067 57.1951 38.0911 58.8718C38.1947 59.8169 38.3018 60.7939 38.251 61.8729C38.1967 63.0349 37.4632 64.0316 36.2339 64.6083C35.5899 64.9092 34.8887 65.0649 34.179 65.0646ZM36.6739 52.1059C36.61 52.1069 36.548 52.1276 36.4962 52.1651C34.5484 53.4955 32.0964 55.8584 31.4749 59.554C31.1968 61.2081 31.5143 62.4408 32.3986 63.119C33.2348 63.7616 34.5725 63.8561 35.6517 63.349C36.0062 63.183 36.8334 62.7005 36.8728 61.8077C36.9185 60.8384 36.822 59.9579 36.7196 59.0255C36.5317 57.3147 36.319 55.3755 36.9858 52.517C37.0031 52.4518 36.9996 52.3828 36.9757 52.3198C36.9519 52.2568 36.909 52.2029 36.8531 52.1659C36.8005 52.1285 36.7382 52.1077 36.6739 52.1059Z" fill="#401B56"/>
<g opacity="0.46">
<path d="M73.8116 23.976C74.3189 24.7528 74.4256 25.1249 69.1365 28.6355C63.8473 32.1461 59.2171 34.4641 58.7094 33.6877C58.2016 32.9113 62.4316 29.9778 67.7188 26.4668C73.0061 22.9558 73.3042 23.1996 73.8116 23.976Z" fill="white"/>
</g>
</g>
<defs>
<filter id="filter0_f_3087_18442" x="33.3" y="117.3" width="53.4" height="6.4" filterUnits="userSpaceOnUse" color-interpolation-filters="sRGB">
<feFlood flood-opacity="0" result="BackgroundImageFix"/>
<feBlend mode="normal" in="SourceGraphic" in2="BackgroundImageFix" result="shape"/>
<feGaussianBlur stdDeviation="0.35" result="effect1_foregroundBlur_3087_18442"/>
</filter>
<linearGradient id="paint0_linear_3087_18442" x1="75.2981" y1="67.9817" x2="67.1343" y2="115.219" gradientUnits="userSpaceOnUse">
<stop stop-color="#5ABEFC"/>
<stop offset="1" stop-color="#499AFB"/>
</linearGradient>
<linearGradient id="paint1_linear_3087_18442" x1="78.946" y1="84.4511" x2="78.767" y2="106.073" gradientUnits="userSpaceOnUse">
<stop stop-color="#5ABEFC"/>
<stop offset="1" stop-color="#499AFB"/>
</linearGradient>
<linearGradient id="paint2_linear_3087_18442" x1="72.5944" y1="10.6089" x2="92.5648" y2="28.5489" gradientUnits="userSpaceOnUse">
<stop stop-color="#5ABEFC"/>
<stop offset="1" stop-color="#499AFB"/>
</linearGradient>
<linearGradient id="paint3_linear_3087_18442" x1="71.5143" y1="26.2003" x2="52.2782" y2="39.2913" gradientUnits="userSpaceOnUse">
<stop stop-color="#5ABEFC"/>
<stop offset="1" stop-color="#499AFB"/>
</linearGradient>
<linearGradient id="paint4_linear_3087_18442" x1="38.9487" y1="50.2038" x2="32.5544" y2="63.7647" gradientUnits="userSpaceOnUse">
<stop stop-color="#5ABEFC"/>
<stop offset="1" stop-color="#499AFB"/>
</linearGradient>
<clipPath id="clip0_3087_18442">
<rect width="78" height="120" fill="white" transform="translate(30)"/>
</clipPath>
</defs>
</svg>
