<svg width="134" height="152" viewBox="0 0 134 152" fill="none" xmlns="http://www.w3.org/2000/svg">
<ellipse cx="67" cy="68.5" rx="67" ry="67.5" fill="#E5F7FF"/>
<circle cx="109.5" cy="75.5" r="2.25" fill="white" stroke="#99D4EE" stroke-width="0.5"/>
<g filter="url(#filter0_f_3094_7399)">
<ellipse cx="67" cy="118" rx="22" ry="3" fill="#5BB4DB" fill-opacity="0.21"/>
</g>
<circle cx="32" cy="103" r="2.5" fill="white" stroke="#99D4EE"/>
<circle cx="48.5" cy="19.5" r="2" fill="white" stroke="#99D4EE"/>
<g clip-path="url(#clip0_3094_7399)">
<path d="M62.0686 10.0935H73.7738V1.45681C73.7738 1.26553 73.7359 1.07611 73.6622 0.899363C73.5884 0.722618 73.4803 0.562016 73.344 0.42673C73.2076 0.291443 73.0458 0.184126 72.8676 0.110906C72.6894 0.0376864 72.4985 -1.88919e-08 72.3056 0H61.6947C61.5018 -1.88919e-08 61.3109 0.0376864 61.1327 0.110906C60.9545 0.184126 60.7927 0.291443 60.6563 0.42673C60.52 0.562016 60.4119 0.722618 60.3381 0.899363C60.2644 1.07611 60.2265 1.26553 60.2266 1.45681V10.0935H62.0686ZM67.0002 2.94728C67.4906 2.94728 67.9699 3.09151 68.3777 3.36175C68.7855 3.63198 69.1033 4.01607 69.2909 4.46545C69.4786 4.91483 69.5277 5.40931 69.432 5.88637C69.3363 6.36342 69.1002 6.80163 68.7534 7.14557C68.4067 7.48951 67.9649 7.72373 67.4839 7.81863C67.0029 7.91352 66.5044 7.86482 66.0513 7.67868C65.5982 7.49254 65.211 7.17733 64.9385 6.7729C64.6661 6.36846 64.5207 5.89298 64.5207 5.40658C64.5207 4.75433 64.7819 4.1288 65.2469 3.66759C65.7119 3.20638 66.3426 2.94728 67.0002 2.94728Z" fill="#5C5C5C"/>
<path d="M54.168 26.1735C54.7413 25.7645 55.3351 25.3824 55.9493 25.0274C56.0041 26.4443 56.0722 27.8599 56.1535 29.2742C59.2924 26.9714 63.0945 25.7303 66.9987 25.7341C77.0942 25.7341 85.3079 33.8802 85.3079 43.8941V104.948C86.5101 105.418 87.7434 105.805 88.999 106.107V43.896C88.999 34.2594 82.6985 26.0881 73.9628 23.1978V19.9224H60.0359V23.1958C57.9398 23.8893 55.9614 24.8932 54.168 26.1735Z" fill="#CAE8F1"/>
<path d="M67.0545 77.6084C66.2902 77.6084 65.539 77.5989 64.8008 77.5799C64.8575 77.7599 64.9169 77.9398 64.975 78.1197C65.296 79.119 65.6223 80.115 65.9609 81.1065C68.5246 88.6138 72.2184 96.0364 78.5744 101.09C78.8113 101.278 79.0507 101.46 79.2921 101.638C79.3574 101.688 79.4266 101.736 79.4944 101.785C79.6815 101.921 79.8705 102.053 80.0614 102.183C80.1221 102.225 80.1828 102.267 80.2441 102.309C80.3857 102.403 80.5293 102.494 80.6722 102.586C81.0448 102.825 81.4199 103.056 81.801 103.274L81.8937 103.326C82.142 103.467 82.3922 103.603 82.644 103.735L82.7093 103.771C82.9868 103.915 83.2656 104.053 83.5458 104.187C83.8355 104.325 84.1269 104.457 84.4201 104.584C84.702 104.705 84.9848 104.822 85.2684 104.934L85.3017 104.947V73.9253C85.3095 75.96 77.1363 77.6084 67.0545 77.6084Z" fill="#5EB8D1"/>
<path d="M67.0541 70.2441C65.5422 70.2441 64.0748 70.2817 62.6699 70.3516V70.3555C62.7913 70.8027 62.9166 71.2492 63.0418 71.6958C63.2515 72.4409 63.4649 73.1847 63.6819 73.9273C63.789 74.291 63.8992 74.6534 64.0082 75.0165C64.2627 75.8578 64.5191 76.7024 64.786 77.5405L64.7984 77.5787C65.5379 77.5968 66.2891 77.6063 67.0521 77.6072C77.1339 77.6072 85.3071 75.9588 85.3071 73.9253C85.3071 71.8919 77.1358 70.2441 67.0541 70.2441Z" fill="#74C9E3"/>
<path d="M58.3836 10.1962C58.4668 10.1635 58.5529 10.1383 58.6407 10.1211C58.3056 10.1846 58.0033 10.362 57.7859 10.6227C57.5684 10.8834 57.4494 11.2111 57.4492 11.5494V18.4652C57.4493 18.8037 57.5684 19.1315 57.7858 19.3923C58.0033 19.6531 58.3056 19.8306 58.6407 19.8942C58.5529 19.8767 58.4669 19.8516 58.3836 19.8192V10.1962Z" fill="#9C9B9B"/>
<path d="M75.6165 19.8205C75.5331 19.8529 75.4471 19.878 75.3594 19.8955C75.6944 19.8314 75.9964 19.6536 76.2134 19.3925C76.4305 19.1315 76.5491 18.8036 76.5489 18.4652V11.5494C76.5487 11.2111 76.4297 10.8834 76.2122 10.6227C75.9948 10.362 75.6925 10.1846 75.3574 10.1211C75.4452 10.1383 75.5313 10.1635 75.6145 10.1962L75.6165 19.8205Z" fill="#9C9B9B"/>
<path d="M73.7734 13.7298V19.9221H74.9649V10.0933H73.7734V13.7298Z" fill="#9C9B9B"/>
<path d="M60.2266 13.7298V10.0933H59.0352V19.9221H60.2266V13.7298Z" fill="#9C9B9B"/>
<path d="M63.9122 10.0933H62.7207V19.9221H63.9122V10.0933Z" fill="#9C9B9B"/>
<path d="M71.2813 10.0933H70.0898V19.9221H71.2813V10.0933Z" fill="#9C9B9B"/>
<path d="M67.5958 10.0933H66.4043V19.9221H67.5958V10.0933Z" fill="#9C9B9B"/>
<path d="M69.4376 10.0933H68.2461V19.9221H69.4376V10.0933Z" fill="#9C9B9B"/>
<path d="M62.0684 10.0933H60.877V19.9221H62.0684V10.0933Z" fill="#9C9B9B"/>
<path d="M65.7533 10.0933H64.5625V19.9221H65.7533V10.0933Z" fill="#9C9B9B"/>
<path d="M73.1231 10.0933H71.9316V19.9221H73.1231V10.0933Z" fill="#9C9B9B"/>
<path d="M58.9185 10.0933C58.8256 10.0933 58.7329 10.1026 58.6419 10.1211C58.554 10.1383 58.468 10.1635 58.3848 10.1962V19.8204C58.4681 19.8529 58.5541 19.878 58.6419 19.8955C58.7329 19.914 58.8256 19.9233 58.9185 19.9234H59.036V10.0933H58.9185Z" fill="#6E6E6D"/>
<path d="M60.2266 13.7298V19.9221H60.8791V10.0933H60.2266V13.7298Z" fill="#6E6E6D"/>
<path d="M62.7209 10.0933H62.0684V19.9221H62.7209V10.0933Z" fill="#6E6E6D"/>
<path d="M64.5627 10.0933H63.9102V19.9221H64.5627V10.0933Z" fill="#6E6E6D"/>
<path d="M66.4045 10.0933H65.752V19.9221H66.4045V10.0933Z" fill="#6E6E6D"/>
<path d="M68.2482 10.0933H67.5957V19.9221H68.2482V10.0933Z" fill="#6E6E6D"/>
<path d="M70.09 10.0933H69.4375V19.9221H70.09V10.0933Z" fill="#6E6E6D"/>
<path d="M71.9318 10.0933H71.2793V19.9221H71.9318V10.0933Z" fill="#6E6E6D"/>
<path d="M73.123 19.9221H73.7755V10.0933H73.123V19.9221Z" fill="#6E6E6D"/>
<path d="M75.0823 19.9221C75.1752 19.922 75.2679 19.9127 75.359 19.8942C75.4467 19.8767 75.5327 19.8516 75.616 19.8192V10.1962C75.5328 10.1635 75.4468 10.1383 75.359 10.1211C75.2679 10.1026 75.1752 10.0933 75.0823 10.0933H74.9648V19.9221H75.0823Z" fill="#6E6E6D"/>
<path d="M67.001 7.86587C67.4914 7.86587 67.9708 7.72164 68.3785 7.4514C68.7863 7.18117 69.1041 6.79708 69.2917 6.3477C69.4794 5.89832 69.5285 5.40384 69.4328 4.92678C69.3372 4.44972 69.101 4.01152 68.7543 3.66758C68.4075 3.32364 67.9657 3.08941 67.4847 2.99452C67.0037 2.89963 66.5052 2.94833 66.0521 3.13447C65.5991 3.32061 65.2118 3.63582 64.9394 4.04025C64.6669 4.44468 64.5215 4.92016 64.5215 5.40657C64.5215 6.05882 64.7827 6.68435 65.2477 7.14556C65.7127 7.60677 66.3434 7.86587 67.001 7.86587ZM67.001 4.30635C67.2204 4.30635 67.4348 4.37088 67.6173 4.49177C67.7997 4.61267 67.9418 4.7845 68.0258 4.98554C68.1098 5.18657 68.1317 5.40779 68.0889 5.62121C68.0461 5.83463 67.9405 6.03067 67.7853 6.18454C67.6302 6.33841 67.4326 6.44319 67.2174 6.48564C67.0022 6.52809 66.7792 6.50631 66.5765 6.42303C66.3738 6.33976 66.2006 6.19874 66.0787 6.01782C65.9568 5.83689 65.8917 5.62417 65.8917 5.40657C65.8917 5.11477 66.0086 4.83493 66.2166 4.6286C66.4246 4.42227 66.7068 4.30635 67.001 4.30635Z" fill="#3D3D3D"/>
<path d="M66.9999 6.50658C67.2193 6.50658 67.4337 6.44205 67.6161 6.32116C67.7986 6.20027 67.9407 6.02844 68.0247 5.8274C68.1086 5.62636 68.1306 5.40515 68.0878 5.19173C68.045 4.97831 67.9394 4.78227 67.7842 4.6284C67.6291 4.47453 67.4315 4.36974 67.2163 4.32729C67.0011 4.28484 66.7781 4.30663 66.5754 4.3899C66.3727 4.47317 66.1995 4.61419 66.0776 4.79512C65.9557 4.97605 65.8906 5.18877 65.8906 5.40637C65.8906 5.69816 66.0075 5.97801 66.2155 6.18434C66.4235 6.39067 66.7057 6.50658 66.9999 6.50658Z" fill="#1C1C1C"/>
<path d="M85.2768 104.935L85.3101 104.949V110.968C83.1784 111.944 76.7728 113.337 67.001 113.337C57.2292 113.337 50.8236 111.944 48.6918 110.968V43.896C48.6918 43.1566 48.7371 42.4179 48.8276 41.684C48.8711 41.3215 48.9263 40.9626 48.9933 40.607C49.8432 36.0674 52.4022 32.0184 56.1512 29.2813C56.608 37.4158 57.4719 45.5256 58.9002 53.5663C59.8992 59.1968 61.1585 64.8124 62.671 70.3555C64.0758 70.2856 65.542 70.2481 67.0551 70.2481C77.1369 70.2481 85.3101 71.8965 85.3101 73.9306V43.896C85.3101 33.8821 77.0965 25.736 67.001 25.736C63.0968 25.7323 59.2947 26.9733 56.1558 29.2761C56.0766 27.8614 56.0085 26.4458 55.9516 25.0293C55.3382 25.3831 54.7444 25.7651 54.1702 26.1755C53.6039 26.5771 53.0608 27.0045 52.5409 27.4575L52.4959 27.4964C51.9961 27.9313 51.5176 28.3875 51.0604 28.8652C51.0252 28.9027 50.9893 28.9389 50.9541 28.9765C50.8105 29.1279 50.6691 29.2815 50.5299 29.4373C50.4967 29.4742 50.4647 29.513 50.4308 29.5505C50.1906 29.8236 49.9573 30.1026 49.7306 30.3873C49.6725 30.4598 49.6145 30.5317 49.5577 30.6054C49.4455 30.7504 49.3348 30.8967 49.2256 31.0442C49.1603 31.1361 49.0918 31.23 49.0253 31.3238C48.8621 31.5516 48.7036 31.7831 48.5496 32.0182C48.4739 32.1334 48.3982 32.2493 48.3245 32.3664C48.241 32.4998 48.1574 32.6344 48.0765 32.7703C47.9858 32.9211 47.8984 33.0738 47.811 33.2278C47.7131 33.4004 47.6172 33.5752 47.5232 33.7521C47.4364 33.9158 47.351 34.0802 47.2681 34.2465C47.2094 34.3656 47.1506 34.4847 47.0932 34.605C46.994 34.8143 46.8981 35.0251 46.8055 35.2373C46.7546 35.3538 46.7048 35.471 46.656 35.5888C46.569 35.7997 46.4844 36.0127 46.4022 36.2275C46.3626 36.3328 46.3235 36.4383 46.2848 36.544C46.1915 36.8029 46.1021 37.0618 46.0186 37.3245C45.997 37.3892 45.9768 37.4591 45.9533 37.5258C45.875 37.7808 45.8015 38.0377 45.7328 38.2966C45.7073 38.3904 45.6832 38.4843 45.659 38.5788C45.584 38.8745 45.5135 39.1722 45.4509 39.4725L45.4339 39.5586C45.3752 39.8505 45.323 40.1411 45.2754 40.4401C45.2617 40.5261 45.2486 40.6129 45.2356 40.6989C45.1886 41.0167 45.1455 41.3364 45.1122 41.6587V41.6852C45.0803 42.003 45.0568 42.3234 45.0385 42.645C45.0339 42.7285 45.0294 42.8126 45.0254 42.8961C45.0104 43.2275 45 43.5595 45 43.8947V112.212C45 114.857 54.8527 117.001 67.0003 117.001C79.1479 117.001 89.0007 114.856 89.0007 112.212V106.108C87.745 105.806 86.5118 105.418 85.3095 104.949L85.2768 104.935ZM68.1402 31.0171C71.0837 28.7616 76.0786 30.2812 79.298 34.4115C82.5174 38.5419 82.7367 43.7193 79.7932 45.9748C76.8498 48.2302 71.8549 46.7106 68.6355 42.5803C65.4161 38.45 65.1962 33.2731 68.1402 31.0171Z" fill="#AFDCE8"/>
<path d="M48.7991 73.9252C48.7991 72.1965 54.7068 70.7462 62.6706 70.3501C61.1581 64.807 59.8987 59.1888 58.8998 53.5608C57.4714 45.5176 56.6049 37.4103 56.1508 29.2759C52.4018 32.013 49.8428 36.062 48.9929 40.6016C48.9272 40.9571 48.8719 41.3161 48.8271 41.6785C48.7365 42.4142 48.6911 43.1546 48.6914 43.8958V73.9252H48.7991Z" fill="#97D4E1"/>
<path d="M83.5486 104.187C83.268 104.054 82.9892 103.915 82.7121 103.771L82.6468 103.735C82.395 103.603 82.1448 103.467 81.8964 103.326L81.8038 103.275C81.4227 103.057 81.0475 102.822 80.675 102.586C80.2339 102.303 79.7974 102.009 79.37 101.695L79.2956 101.638C79.0542 101.46 78.8147 101.278 78.5778 101.09C72.2218 96.0365 68.5293 88.6159 65.9644 81.1066C65.6255 80.1143 65.2969 79.1187 64.9784 78.1199C64.9204 77.94 64.861 77.76 64.8042 77.5801C55.7867 77.3555 48.8036 75.8062 48.803 73.9268H48.6953V110.97C50.827 111.946 57.2326 113.34 67.0044 113.34C76.7763 113.34 83.1819 111.946 85.3136 110.97V104.952C84.7172 104.719 84.1289 104.464 83.5486 104.187Z" fill="#2894AD"/>
<path d="M62.6703 70.3516C54.7098 70.7476 48.7988 72.198 48.7988 73.9266C48.7988 75.8034 55.7806 77.3567 64.8001 77.58C64.4142 76.3671 64.0419 75.1494 63.683 73.9266C63.4655 73.1845 63.2523 72.4409 63.0435 71.6958C62.9183 71.2492 62.793 70.8026 62.6716 70.3554L62.6703 70.3516Z" fill="#56C2DF"/>
<path d="M68.6352 42.5811C71.8526 46.7114 76.8469 48.2316 79.7929 45.9756C82.7389 43.7195 82.5151 38.5433 79.2977 34.4123C76.0802 30.2813 71.0859 28.7624 68.1399 31.0178C65.1939 33.2733 65.4177 38.4507 68.6352 42.5811ZM74.1886 36.2251C75.6495 35.2129 78.0592 36.1306 79.5697 38.2754C81.0803 40.4201 81.1201 42.9804 79.6591 43.9926C78.6021 44.7252 77.0491 44.4456 75.6998 43.4256C75.8596 44.1757 75.6939 44.865 75.1941 45.2112C74.4215 45.7465 73.1478 45.2611 72.3485 44.1272C71.5492 42.9933 71.529 41.6394 72.3016 41.1042C72.6931 40.833 73.2151 40.8246 73.7338 41.0285C72.7857 39.1154 72.9306 37.0968 74.1886 36.2251Z" fill="#DBEFF8"/>
<path d="M73.7326 41.0283C73.2106 40.8245 72.6919 40.8342 72.3004 41.1041C71.5278 41.6393 71.5487 42.9925 72.3473 44.1271C73.146 45.2616 74.4203 45.745 75.1929 45.2111C75.6927 44.8649 75.8584 44.1756 75.6986 43.4255C77.0486 44.4468 78.6009 44.7251 79.658 43.9924C81.1189 42.9803 81.0791 40.4206 79.5686 38.2752C78.058 36.1298 75.6483 35.2127 74.1874 36.2249C72.9294 37.0967 72.7845 39.1153 73.7326 41.0283Z" fill="white"/>
</g>
<defs>
<filter id="filter0_f_3094_7399" x="44.3" y="114.3" width="45.4" height="7.4" filterUnits="userSpaceOnUse" color-interpolation-filters="sRGB">
<feFlood flood-opacity="0" result="BackgroundImageFix"/>
<feBlend mode="normal" in="SourceGraphic" in2="BackgroundImageFix" result="shape"/>
<feGaussianBlur stdDeviation="0.35" result="effect1_foregroundBlur_3094_7399"/>
</filter>
<clipPath id="clip0_3094_7399">
<rect width="44" height="117" fill="white" transform="translate(45)"/>
</clipPath>
</defs>
</svg>
