<svg width="23" height="24" viewBox="0 0 23 24" fill="none" xmlns="http://www.w3.org/2000/svg">
<path fill-rule="evenodd" clip-rule="evenodd" d="M16.598 1.83766L13.3649 7.12452H18.4298L20.2107 4.26509C20.5194 3.76496 20.625 3.15736 20.5044 2.57595C20.3838 1.99453 20.0468 1.48693 19.5675 1.1648C19.0882 0.842677 18.5059 0.732419 17.9487 0.858282C17.3916 0.984146 16.9051 1.33582 16.5964 1.83594M1.75318 15.1662L1.27675 10.7434C1.2511 10.5037 1.27421 10.261 1.34457 10.0312C1.41494 9.80148 1.53098 9.5898 1.68511 9.41004C1.83923 9.23028 2.02798 9.08649 2.23901 8.98805C2.45004 8.88962 2.6786 8.83876 2.90975 8.8388H20.0908C20.3221 8.83873 20.5508 8.88963 20.7619 8.98817C20.9731 9.08671 21.1619 9.23066 21.3161 9.41061C21.4702 9.59057 21.5862 9.80246 21.6565 10.0324C21.7267 10.2624 21.7497 10.5052 21.7238 10.7451L21.2473 15.1679C21.1295 16.2613 20.7612 17.3091 20.1736 18.2227C19.586 19.1363 18.7963 19.889 17.8713 20.4171C18.1275 20.9434 18.3083 21.5194 18.397 22.1314C18.4256 22.3305 18.4127 22.5338 18.3591 22.7272C18.3055 22.9207 18.2125 23.0998 18.0865 23.2523C17.9604 23.4048 17.8043 23.5272 17.6288 23.6109C17.4533 23.6947 17.2625 23.7379 17.0695 23.7377H5.93097C5.73798 23.7379 5.54721 23.6947 5.3717 23.6109C5.1962 23.5272 5.04009 23.4048 4.91406 23.2523C4.78802 23.0998 4.69503 22.9207 4.64144 22.7272C4.58785 22.5338 4.57492 22.3305 4.60354 22.1314C4.68998 21.5343 4.86746 20.9556 5.12925 20.4171C4.204 19.8888 3.4142 19.1359 2.82658 18.222C2.23896 17.308 1.87079 16.2599 1.75318 15.1662ZM12.527 12.9805C12.527 12.6964 12.4189 12.4238 12.2263 12.2229C12.0337 12.022 11.7726 11.9091 11.5003 11.9091C11.2279 11.9091 10.9668 12.022 10.7742 12.2229C10.5816 12.4238 10.4735 12.6964 10.4735 12.9805V15.2159H8.33118C8.19634 15.2159 8.06282 15.2437 7.93825 15.2975C7.81367 15.3513 7.70048 15.4303 7.60514 15.5298C7.50979 15.6292 7.43416 15.7474 7.38256 15.8774C7.33096 16.0073 7.3044 16.1467 7.3044 16.2874C7.3044 16.4281 7.33096 16.5674 7.38256 16.6974C7.43416 16.8274 7.50979 16.9455 7.60514 17.045C7.70048 17.1445 7.81367 17.2234 7.93825 17.2772C8.06282 17.3311 8.19634 17.3588 8.33118 17.3588H10.4735V19.5959C10.4735 19.8801 10.5816 20.1526 10.7742 20.3536C10.9668 20.5545 11.2279 20.6674 11.5003 20.6674C11.7726 20.6674 12.0337 20.5545 12.2263 20.3536C12.4189 20.1526 12.527 19.8801 12.527 19.5959V17.3605H14.6693C14.9416 17.3605 15.2028 17.2476 15.3954 17.0467C15.5879 16.8458 15.6961 16.5732 15.6961 16.2891C15.6961 16.0049 15.5879 15.7324 15.3954 15.5315C15.2028 15.3305 14.9416 15.2177 14.6693 15.2177H12.527V12.9805Z" fill="#454545"/>
</svg>
