<svg width="22" height="20" viewBox="0 0 22 20" fill="none" xmlns="http://www.w3.org/2000/svg">
<path d="M17.9505 0.736084H9.19414C8.3816 0.736953 7.60258 1.06012 7.02802 1.63468C6.45346 2.20923 6.1303 2.98825 6.12943 3.8008V9.49241H14.5229L11.6399 6.60884C11.4826 6.44329 11.3962 6.22285 11.3991 5.99452C11.4021 5.76619 11.4941 5.54803 11.6555 5.38657C11.817 5.2251 12.0352 5.13309 12.2635 5.13017C12.4918 5.12725 12.7123 5.21364 12.8778 5.37092L17.256 9.74908C17.4201 9.91328 17.5122 10.1359 17.5122 10.368C17.5122 10.6002 17.4201 10.8228 17.256 10.987L12.8778 15.3652C12.7123 15.5224 12.4918 15.6088 12.2635 15.6059C12.0352 15.603 11.817 15.511 11.6555 15.3495C11.4941 15.1881 11.4021 14.9699 11.3991 14.7416C11.3962 14.5132 11.4826 14.2928 11.6399 14.1272L14.5229 11.2437H6.12943V16.9353C6.12943 18.6893 7.97865 20 9.63196 20H17.9505C18.763 19.9991 19.542 19.676 20.1166 19.1014C20.6911 18.5268 21.0143 17.7478 21.0152 16.9353V3.8008C21.0143 2.98825 20.6911 2.20923 20.1166 1.63468C19.542 1.06012 18.763 0.736953 17.9505 0.736084ZM0.875633 9.49241C0.6434 9.49241 0.42068 9.58466 0.256467 9.74888C0.0922541 9.91309 0 10.1358 0 10.368C0 10.6003 0.0922541 10.823 0.256467 10.9872C0.42068 11.1514 0.6434 11.2437 0.875633 11.2437H6.12943V9.49241H0.875633Z" fill="#454545"/>
</svg>
