<svg width="24" height="24" viewBox="0 0 24 24" fill="none" xmlns="http://www.w3.org/2000/svg">
<path d="M17.2222 15.6389L20.1667 12.6667C20.7593 12.0741 21.213 11.3981 21.5278 10.6389C21.8426 9.87963 22 9.08333 22 8.25C22 6.50926 21.3937 5.03222 20.1811 3.81889C18.9685 2.60556 17.4915 1.99926 15.75 2C14.9167 2 14.1204 2.15741 13.3611 2.47222C12.6019 2.78704 11.9259 3.24074 11.3333 3.83333L8.36111 6.77778L17.2222 15.6389ZM8.25 22C9.08333 22 9.87963 21.8426 10.6389 21.5278C11.3981 21.213 12.0741 20.7593 12.6667 20.1667L15.6389 17.2222L6.77778 8.36111L3.83333 11.3333C3.24074 11.9259 2.78704 12.6019 2.47222 13.3611C2.15741 14.1204 2 14.9167 2 15.75C2 17.4907 2.60667 18.9674 3.82 20.18C5.03333 21.3926 6.51 21.9993 8.25 22Z" fill="#454545"/>
</svg>
