<svg width="24" height="24" viewBox="0 0 24 24" fill="none" xmlns="http://www.w3.org/2000/svg">
<path d="M15.6845 3.25219C14.749 2.29205 13.4423 1.76331 12 1.76331C10.55 1.76331 9.23902 2.28885 8.30779 3.24305C7.36647 4.20776 6.90783 5.51887 7.01552 6.93463C7.22898 9.72777 9.46497 11.9999 12 11.9999C14.535 11.9999 16.7672 9.72823 16.984 6.93555C17.0931 5.53258 16.6316 4.22421 15.6845 3.25219ZM20.4613 22.2366H3.53869C3.31719 22.2393 3.09783 22.1951 2.89658 22.1071C2.69532 22.0191 2.51723 21.8896 2.37526 21.7279C2.06277 21.3729 1.93682 20.888 2.03008 20.3976C2.43584 18.258 3.70215 16.4606 5.69248 15.1989C7.4607 14.0788 9.70054 13.4623 12 13.4623C14.2995 13.4623 16.5393 14.0793 18.3075 15.1989C20.2978 16.4602 21.5642 18.2575 21.9699 20.3972C22.0632 20.8875 21.9372 21.3724 21.6247 21.7275C21.4828 21.8892 21.3047 22.0188 21.1035 22.1069C20.9022 22.195 20.6828 22.2393 20.4613 22.2366Z" fill="#454545"/>
</svg>
