<svg width="20" height="20" viewBox="0 0 20 20" fill="none" xmlns="http://www.w3.org/2000/svg">
<path d="M13 0C13.5304 0 14.0391 0.210714 14.4142 0.585786C14.7893 0.960859 15 1.46957 15 2H6C5.46957 2 4.96086 2.21071 4.58579 2.58579C4.21071 2.96086 4 3.46957 4 4V16C3.46957 16 2.96086 15.7893 2.58579 15.4142C2.21071 15.0391 2 14.5304 2 14V2C2 1.46957 2.21071 0.960859 2.58579 0.585786C2.96086 0.210714 3.46957 0 4 0L13 0Z" fill="#454545"/>
<path d="M5 18C5 19.1 5.9 20 7 20H16C17.1 20 18 19.1 18 18V5C18 3.9 17.1 3 16 3V12L13.2 9.2L10.4 12V3H7C5.4 3 5 4.6 5 5V18Z" fill="#454545"/>
</svg>
