<svg width="24" height="24" viewBox="0 0 24 24" fill="none" xmlns="http://www.w3.org/2000/svg">
<path fill-rule="evenodd" clip-rule="evenodd" d="M2 12C2 6.47733 6.47733 2 12 2C14.4222 2 16.6436 2.86222 18.3733 4.29333L19.5556 3.11111L20.4444 4V8H16.4444L15.5556 7.11111L16.7929 5.87378C15.4262 4.80037 13.7378 4.21858 12 4.22222C10.395 4.22259 8.82938 4.71949 7.51792 5.64477C6.20646 6.57005 5.21337 7.8784 4.67485 9.39038C4.13633 10.9024 4.07876 12.5439 4.51003 14.0899C4.9413 15.6359 5.84029 17.0106 7.08371 18.0255C8.32712 19.0404 9.85406 19.6457 11.4551 19.7585C13.0562 19.8714 14.6529 19.4861 16.0263 18.6556C17.3998 17.8251 18.4827 16.59 19.1264 15.1198C19.7702 13.6495 19.9434 12.0161 19.6222 10.4436L21.8 10.0009C21.9327 10.6492 21.9994 11.3156 22 12C22 17.5227 17.5227 22 12 22C6.47733 22 2 17.5227 2 12ZM14.8889 10C14.8889 10.7662 14.5845 11.501 14.0428 12.0428C13.501 12.5845 12.7662 12.8889 12 12.8889C11.2338 12.8889 10.499 12.5845 9.95725 12.0428C9.41548 11.501 9.11111 10.7662 9.11111 10C9.11111 9.23382 9.41548 8.49902 9.95725 7.95725C10.499 7.41548 11.2338 7.11111 12 7.11111C12.7662 7.11111 13.501 7.41548 14.0428 7.95725C14.5845 8.49902 14.8889 9.23382 14.8889 10ZM17.5671 15.248L17.3698 15.1538C15.6919 14.3571 13.8574 13.945 12 13.9476C10.08 13.9476 8.25778 14.3804 6.63022 15.1538L6.43289 15.248C7.00057 16.2208 7.81332 17.0279 8.79011 17.5887C9.76691 18.1496 10.8736 18.4446 12 18.4444C13.1264 18.4446 14.2331 18.1496 15.2099 17.5887C16.1867 17.0279 16.9994 16.2208 17.5671 15.248Z" fill="#454545"/>
</svg>
