<svg width="22" height="20" viewBox="0 0 22 20" fill="none" xmlns="http://www.w3.org/2000/svg">
<path d="M12.4666 9.99993C14.8862 9.99993 17.0238 7.78075 17.2333 5.05264C17.3373 3.68212 16.896 2.404 15.9903 1.45445C15.0943 0.516514 13.8416 0 12.4666 0C11.0806 0 9.82711 0.513389 8.93749 1.44553C8.03778 2.38793 7.59915 3.66872 7.69999 5.05175C7.90578 7.7803 10.043 9.99993 12.4666 9.99993ZM21.9715 18.2034C21.5847 16.1133 20.377 14.3575 18.4795 13.1254C16.7942 12.0312 14.6589 11.4285 12.4666 11.4285C10.2744 11.4285 8.13907 12.0312 6.45378 13.1249C4.55628 14.357 3.34858 16.1128 2.96175 18.203C2.87329 18.682 2.99337 19.1557 3.29129 19.5025C3.42641 19.6606 3.59608 19.7873 3.78789 19.8733C3.97971 19.9594 4.18883 20.0026 4.39999 19.9999H20.5333C20.7446 20.0028 20.9539 19.9597 21.1458 19.8737C21.3378 19.7878 21.5077 19.6611 21.6429 19.503C21.9399 19.1561 22.06 18.6825 21.9715 18.2034ZM4.03333 11.4285V9.64279H5.86666C6.06115 9.64279 6.24768 9.56754 6.3852 9.43358C6.52273 9.29963 6.59999 9.11795 6.59999 8.92851C6.59999 8.73907 6.52273 8.55739 6.3852 8.42344C6.24768 8.28948 6.06115 8.21423 5.86666 8.21423H4.03333V6.42853C4.03333 6.23909 3.95607 6.05741 3.81854 5.92345C3.68101 5.7895 3.49449 5.71425 3.29999 5.71425C3.1055 5.71425 2.91898 5.7895 2.78145 5.92345C2.64392 6.05741 2.56666 6.23909 2.56666 6.42853V8.21423H0.733332C0.53884 8.21423 0.352314 8.28948 0.214788 8.42344C0.0772615 8.55739 0 8.73907 0 8.92851C0 9.11795 0.0772615 9.29963 0.214788 9.43358C0.352314 9.56754 0.53884 9.64279 0.733332 9.64279H2.56666V11.4285C2.56666 11.6179 2.64392 11.7996 2.78145 11.9336C2.91898 12.0675 3.1055 12.1428 3.29999 12.1428C3.49449 12.1428 3.68101 12.0675 3.81854 11.9336C3.95607 11.7996 4.03333 11.6179 4.03333 11.4285Z" fill="white"/>
</svg>
