<svg width="24" height="24" viewBox="0 0 24 24" fill="none" xmlns="http://www.w3.org/2000/svg">
<g clip-path="url(#clip0_1842_8213)">
<path d="M7.5 13.5H13.55C13.34 13.97 13.18 14.47 13.09 15H7.5C4.46 15 2 12.54 2 9.5C2 6.46 4.46 4 7.5 4H18C20.21 4 22 5.79 22 8C22 8.91 21.69 9.74 21.17 10.41C20.63 10.2 20.05 10.07 19.45 10.03C19.8822 9.72344 20.2055 9.28725 20.3732 8.78462C20.5409 8.28199 20.5442 7.73903 20.3827 7.23439C20.2212 6.72974 19.9032 6.28963 19.4748 5.9778C19.0464 5.66597 18.5299 5.49863 18 5.5H7.5C5.29 5.5 3.5 7.29 3.5 9.5C3.5 11.71 5.29 13.5 7.5 13.5ZM9.5 10.5C8.95 10.5 8.5 10.05 8.5 9.5C8.5 8.95 8.95 8.5 9.5 8.5H17V7H9.5C8.83696 7 8.20107 7.26339 7.73223 7.73223C7.26339 8.20107 7 8.83696 7 9.5C7 10.163 7.26339 10.7989 7.73223 11.2678C8.20107 11.7366 8.83696 12 9.5 12H14.54C15.1142 11.3571 15.8203 10.8455 16.61 10.5H9.5ZM20 15V12H18V15H15V17H18V20H20V17H23V15H20Z" fill="#737373"/>
</g>
<defs>
<clipPath id="clip0_1842_8213">
<rect width="24" height="24" fill="white"/>
</clipPath>
</defs>
</svg>
