<svg width="15" height="16" viewBox="0 0 15 16" fill="none" xmlns="http://www.w3.org/2000/svg">
<path d="M4.61293 1.99287C4.6855 1.91526 4.77171 1.85369 4.86662 1.81168C4.96154 1.76967 5.06329 1.74805 5.16605 1.74805C5.26881 1.74805 5.37056 1.76967 5.46548 1.81168C5.56039 1.85369 5.6466 1.91526 5.71918 1.99287L10.9129 7.53287C10.9709 7.59455 11.0168 7.66781 11.0482 7.74845C11.0796 7.8291 11.0957 7.91556 11.0957 8.00287C11.0957 8.09018 11.0796 8.17664 11.0482 8.25729C11.0168 8.33793 10.9709 8.41119 10.9129 8.47287L5.71918 14.0129C5.41293 14.3395 4.91918 14.3395 4.61293 14.0129C4.30667 13.6862 4.30667 13.1595 4.61293 12.8329L9.13793 7.99954L4.60668 3.1662C4.30668 2.8462 4.30667 2.31287 4.61293 1.99287Z" fill="#454545"/>
</svg>
